<?xml version="1.0" encoding="UTF-8"?>
<svg width="336" height="189" viewBox="0 0 336 189" fill="none" xmlns="http://www.w3.org/2000/svg">
  <path d="M176 81C176 78.2386 178.239 76 181 76L207 76C209.761 76 212 78.2386 212 81V107C212 109.761 209.761 112 207 112H181C178.239 112 176 109.761 176 107L176 81Z" stroke="#00243D" stroke-width="1" />
  <path d="M185 94L189.701 100.581C189.889 100.844 190.192 101 190.515 101H193.46C193.797 101 194.111 100.83 194.296 100.549L204.5 85" stroke="#42B0D5" stroke-width="1" />
  <path d="M129 112C126.239 112 124 109.761 124 107L124 81C124 78.2386 126.239 76 129 76L155 76C157.761 76 160 78.2386 160 81L160 107C160 109.761 157.761 112 155 112L129 112Z" stroke="#00243D" stroke-width="1" />
</svg>
