<svg width="66" height="66" viewBox="0 0 66 66" fill="none" xmlns="http://www.w3.org/2000/svg">
<path d="M66 -0.00012207H0V65.9999L66 -0.00012207Z" fill="#4DB5AB"/>
<path d="M12.0662 44.5934C12.5683 44.0913 12.8723 43.5186 12.9501 43.2428L12.3703 42.663C12.2996 42.9458 12.0167 43.5256 11.5712 43.9711C10.6803 44.8621 9.81055 45.2651 8.02864 43.4832C6.46594 41.9205 6.47301 41.1215 7.56902 40.0255C8.09228 39.5022 8.57311 39.2476 8.8206 39.1699L8.26906 38.6183C8.00036 38.7032 7.50538 38.9719 6.98919 39.4881C5.51841 40.9588 5.46891 42.1821 7.41346 44.1267C9.52771 46.2409 10.8217 45.8379 12.0662 44.5934ZM15.5484 41.1112C16.6444 40.0152 16.6515 38.9475 15.2726 37.5686C13.8938 36.1897 12.826 36.1968 11.73 37.2928C10.634 38.3888 10.6269 39.4566 12.0058 40.8354C13.3846 42.2143 14.4524 42.2072 15.5484 41.1112ZM15.0393 40.6021C14.311 41.3304 13.6392 41.2385 12.621 40.2202C11.6098 39.2091 11.5108 38.5303 12.2391 37.8019C12.9675 37.0736 13.6533 37.1655 14.6645 38.1767C15.6827 39.1949 15.7676 39.8738 15.0393 40.6021ZM18.6555 37.8627L15.827 35.0343C15.8695 34.6666 15.9685 34.1009 16.4493 33.6201C16.8311 33.2382 17.2271 33.111 17.7786 33.6625L20.3172 36.201L20.9111 35.607L18.309 33.0049C18.2312 32.9271 18.1463 32.8564 18.0756 32.7998C18.1181 32.4038 18.2736 31.7957 18.6979 31.3715C19.0797 30.9896 19.4828 30.8553 20.0343 31.4068L22.5728 33.9453L23.1597 33.3584L20.4939 30.6926C19.7373 29.936 19.0514 29.9714 18.3373 30.6856C17.7574 31.2654 17.6372 31.9089 17.5877 32.2271C17.5736 32.3261 17.5665 32.3756 17.5382 32.4038C17.4958 32.4463 17.4251 32.4321 17.3544 32.418C16.9867 32.3614 16.5271 32.4958 16.0957 32.9271C15.5654 33.4574 15.4593 33.9878 15.4098 34.3625C15.3957 34.4898 15.3816 34.5322 15.3603 34.5534C15.3391 34.5747 15.3108 34.5747 15.2543 34.5322L14.9007 34.2635L14.3916 34.7727L18.0686 38.4496L18.6555 37.8627ZM24.8772 31.641L22.0487 28.8126C22.0912 28.4449 22.1902 27.8792 22.671 27.3984C23.0528 27.0165 23.4488 26.8892 24.0004 27.4408L26.5389 29.9793L27.1328 29.3853L24.5307 26.7832C24.4529 26.7054 24.3681 26.6347 24.2973 26.5781C24.3398 26.1821 24.4953 25.574 24.9196 25.1498C25.3014 24.7679 25.7045 24.6336 26.256 25.1851L28.7945 27.7236L29.3814 27.1367L26.7157 24.4709C25.959 23.7143 25.2732 23.7497 24.559 24.4639C23.9791 25.0437 23.8589 25.6872 23.8094 26.0054C23.7953 26.1044 23.7882 26.1538 23.7599 26.1821C23.7175 26.2246 23.6468 26.2104 23.5761 26.1963C23.2084 26.1397 22.7488 26.2741 22.3174 26.7054C21.7871 27.2357 21.6811 27.7661 21.6316 28.1408C21.6174 28.2681 21.6033 28.3105 21.5821 28.3317C21.5608 28.353 21.5326 28.353 21.476 28.3105L21.1224 28.0418L20.6133 28.5509L24.2903 32.2279L24.8772 31.641ZM31.9333 22.8878C31.8908 23.2555 31.7424 23.8707 31.2615 24.3516C30.8655 24.7475 30.4625 24.8819 29.9109 24.3303L27.3724 21.7918L26.7855 22.3787L29.4513 25.0445C30.2009 25.7941 30.8938 25.7658 31.608 25.0516C32.1525 24.5071 32.301 23.9344 32.3505 23.5596C32.3646 23.4323 32.3787 23.3899 32.4 23.3687C32.4212 23.3475 32.4495 23.3475 32.506 23.3899L32.8737 23.6444L33.3687 23.1495L29.6917 19.4725L29.1048 20.0594L31.9333 22.8878ZM35.1316 21.3866L32.3102 18.5652C32.3527 18.1975 32.4941 17.5753 32.9749 17.0944C33.378 16.6914 33.774 16.5641 34.3255 17.1156L36.864 19.6542L37.458 19.0602L34.7922 16.3944C34.0356 15.6378 33.3426 15.6802 32.6284 16.3944C32.084 16.9389 31.9355 17.5116 31.8931 17.8935C31.8789 18.0207 31.8648 18.0632 31.8436 18.0844C31.8223 18.1056 31.7941 18.1056 31.7375 18.0632L31.3698 17.7945L30.8677 18.2965L34.5447 21.9735L35.1316 21.3866ZM34.1437 12.2911L33.4578 12.977L34.1578 13.6771L34.8437 12.9912L34.1437 12.2911ZM35.4589 13.7053L34.872 14.2922L38.549 17.9692L39.1359 17.3823L35.4589 13.7053ZM41.5983 15.0613C41.8952 14.7643 42.1074 14.4108 42.2205 14.1845L41.7185 13.6825C41.6195 13.8946 41.4003 14.2128 41.1669 14.4461C40.9124 14.7007 40.6012 14.8704 40.0214 14.2906L37.9354 12.2046L39.0739 11.0662L38.586 10.5783L37.4475 11.7167L36.401 10.6702L35.9838 11.4268L36.8606 12.3036L36.203 12.9612L36.6909 13.4491L37.3485 12.7915L39.4557 14.8987C40.276 15.7189 40.9265 15.7331 41.5983 15.0613ZM43.7011 11.5301L39.5858 9.57849L38.9635 10.2007L44.0476 12.4988C44.5072 13.411 44.5072 14.0191 44.0688 14.4575C43.9203 14.606 43.7294 14.7404 43.5385 14.8606L44.0971 15.4192C44.3022 15.2848 44.4648 15.1646 44.6557 14.9737C45.3133 14.3161 45.3982 13.5241 44.7476 12.1099L42.3081 6.85613L41.6859 7.47839L43.7011 11.5301Z" fill="white"/>
<g clip-path="url(#clip0_1_10)">
<path fill-rule="evenodd" clip-rule="evenodd" d="M5.10006 13.5858C4.70954 13.1953 4.70954 12.5621 5.10006 12.1716L6.51428 10.7574C6.9048 10.3668 7.53796 10.3668 7.92849 10.7574L10.0498 12.8787C10.4403 13.2692 10.4403 13.9024 10.0498 14.2929L8.6356 15.7071C8.24507 16.0976 7.61191 16.0976 7.22138 15.7071L5.10006 13.5858ZM7.22138 11.4645L5.80717 12.8787L7.92849 15L9.3427 13.5858L7.22138 11.4645ZM14.9996 9.34315C14.609 8.95262 14.609 8.31946 14.9996 7.92893L16.4138 6.51472C16.8043 6.1242 17.4375 6.1242 17.828 6.51472L19.2422 7.92893C19.6327 8.31946 19.6327 8.95262 19.2422 9.34315L17.828 10.7574C17.4375 11.1479 16.8043 11.1479 16.4138 10.7574L14.9996 9.34315ZM17.1209 7.22183L15.7067 8.63604L17.1209 10.0503L18.5351 8.63604L17.1209 7.22183ZM8.6356 18.5355C8.24507 18.9261 8.24507 19.5592 8.6356 19.9497L11.2872 22.6014L12.5247 22.4246L10.0498 19.9497L10.7569 19.2426L16.4138 24.8995L19.2422 22.0711L13.5853 16.4142L14.2924 15.7071L16.7673 18.182L16.9441 16.9445L14.2924 14.2929C13.9019 13.9024 13.2688 13.9024 12.8782 14.2929L8.6356 18.5355ZM17.6512 19.0659L17.934 17.086C17.9786 16.7744 17.8738 16.46 17.6512 16.2374L14.9996 13.5858C14.2185 12.8047 12.9522 12.8047 12.1711 13.5858L7.92849 17.8284C7.14744 18.6095 7.14744 19.8758 7.92849 20.6569L10.5801 23.3085C10.8027 23.5311 11.1171 23.6359 11.4287 23.5913L13.4086 23.3085L15.7067 25.6066C16.0972 25.9971 16.7304 25.9971 17.1209 25.6066L19.9493 22.7782C20.3398 22.3876 20.3398 21.7545 19.9493 21.364L17.6512 19.0659ZM19.2422 12.1716C18.8517 12.5621 18.8517 13.1953 19.2422 13.5858L20.8635 15.2071H21.8635C22.1287 15.2071 22.3831 15.3125 22.5706 15.5L24.1919 17.1213L25.6062 15.7071L23.9848 14.0858C23.7973 13.8983 23.6919 13.6439 23.6919 13.3787L23.6919 12.3787L22.0706 10.7574C21.6801 10.3668 21.0469 10.3668 20.6564 10.7574L19.2422 12.1716ZM18.5351 14.2929C17.754 13.5118 17.754 12.2455 18.5351 11.4645L19.9493 10.0503C20.7304 9.26921 21.9967 9.2692 22.7777 10.0503L24.399 11.6716C24.5866 11.8591 24.6919 12.1135 24.6919 12.3787L24.6919 13.3787L26.3133 15C26.7038 15.3905 26.7038 16.0237 26.3133 16.4142L24.899 17.8284C24.5085 18.219 23.8754 18.219 23.4848 17.8284L21.8635 16.2071H20.8635C20.5983 16.2071 20.3439 16.1017 20.1564 15.9142L18.5351 14.2929Z" fill="white"/>
</g>
<defs>
<clipPath id="clip0_1_10">
<rect width="20" height="20" fill="white" transform="translate(0.857422 15) rotate(-45)"/>
</clipPath>
</defs>
</svg>