<?xml version="1.0" encoding="utf-8"?>
<!-- Generator: Adobe Illustrator 25.2.0, SVG Export Plug-In . SVG Version: 6.00 Build 0)  -->
<svg version="1.1" id="Layer_1" xmlns="http://www.w3.org/2000/svg" xmlns:xlink="http://www.w3.org/1999/xlink" x="0px" y="0px"
	 viewBox="0 0 720 420" style="enable-background:new 0 0 720 420;" xml:space="preserve">
<style type="text/css">
	.st0{clip-path:url(#SVGID_2_);}
	.st1{fill:#E5F5FC;}
	.st2{fill:#BEDBE9;}
	.st3{fill:#052338;}
	.st4{fill:#E9E8E7;}
	.st5{fill:#F6F7F7;}
	.st6{fill:#D8D9D8;}
	.st7{fill:#D2D2D1;}
	.st8{fill:#FFFFFF;}
	.st9{fill:#555554;}
	.st10{fill:#304D62;}
	.st11{fill:#F26A68;}
	.st12{fill:#677D8C;}
	.st13{fill:#674C41;}
	.st14{fill:#878787;}
	.st15{fill:#CFD0D0;}
	.st16{fill:#010101;}
	.st17{fill:#01253E;}
	.st18{fill:#ABE0F7;}
	.st19{fill:#BDBDBD;}
	.st20{fill:#8E8E8E;}
	.st21{fill:#F26A57;}
	.st22{fill:#EDEDEE;}
	.st23{fill:#FBFCFC;}
	.st24{fill:#A09F9F;}
	.st25{fill:#00B2D9;}
	.st26{fill:#F15F4F;}
	.st27{fill:#ACACAC;}
	.st28{fill:#F26E5F;}
	.st29{fill:#4DA298;}
	.st30{clip-path:url(#SVGID_4_);}
	.st31{fill:#C6E9F3;}
	.st32{fill:none;stroke:#CFD0D0;stroke-width:0.48;stroke-miterlimit:10;}
	.st33{clip-path:url(#SVGID_6_);}
	.st34{fill:#A3C03A;}
	.st35{fill:#FCCBB5;}
	.st36{fill:#E0AD98;}
	.st37{fill:#486276;}
	.st38{fill:#324E64;}
	.st39{fill:#FEC668;}
	.st40{fill:#DCA58D;}
	.st41{fill:#BC8E7B;}
	.st42{fill:#F9BAB3;}
	.st43{fill:#F37668;}
	.st44{fill:#F79F96;}
	.st45{fill:#42B0D5;}
	.st46{fill:#A2D7E9;}
	.st47{fill:#DCDBDB;}
	.st48{fill:#C4E7F2;}
</style>
<g>
	<g>
		<defs>
			<rect id="SVGID_1_" width="720" height="420"/>
		</defs>
		<clipPath id="SVGID_2_">
			<use xlink:href="#SVGID_1_"  style="overflow:visible;"/>
		</clipPath>
		<g class="st0">
			<g>
				<rect x="-55" y="-80" class="st1" width="803" height="301.5"/>
				<g>
					<path class="st2" d="M619,197.2h-2.8v-17.1c0,0-0.1-0.7,0.5-0.7h3.2l-7-10c-0.5-0.8-1.4-1.1-2.4-1.1h-6.8v-3.9h-3.9v3.9h-9.2
						c-0.9,0-1.6,0.5-2.1,1.1l-7.1,10h3c0.3,0,0.7,0.2,0.7,0.5l0,0v9.5l-3.6,3.4v7.6c0,0.8-0.3,1.3-1.7,1.3H578v-13.3
						c0,0-0.1-0.7,0.5-0.7h3l-8.3-10c-0.7-0.7-1.6-1.1-2.5-1.1h-4.5V172h-3.9v4.6H553c-0.8,0-1.6,0.3-2.1,0.9l-8.1,11h2
						c0.3,0,0.7,0.2,0.7,0.5l0,0v11c0.1,0.7-0.5,1.3-1.1,1.4h-23.8c-0.7-0.1-1.1-0.7-1.1-1.3v-11.3c0-4.2-4.6-4.2-4.6-4.2h-2.2v-31
						h-23.6v42.7l-5.6-4.3v-27.8H458v35.1c0.1,0.9-0.7,1.6-1.6,1.7h-0.1H453c0-2.1-1.7-3.8-3.8-3.8H449c0-5.3-4.5-5.4-4.5-5.4h-0.9
						v-8.2c0-1.6-1.3-2.9-3-2.9h-19.2v-6.8c0-1.4-0.2-3-0.5-4.5l-5.2-21.4l-5.6,21.4c-0.5,1.6-0.7,3.3-0.7,5.1v18.6
						c-1.8,0.1-3.2,1.6-3.2,3.6v7.1l-87.6,0.1c-6.4,0-6.4,5.1-6.4,5.1l310.8-0.1V200C622.4,198.5,620.9,197.1,619,197.2
						C619.1,197.2,619,197.2,619,197.2L619,197.2"/>
					<rect x="339.8" y="201.4" class="st2" width="3.6" height="3.2"/>
					<rect x="339.8" y="197.6" class="st2" width="3.6" height="3.2"/>
					<rect x="343.9" y="201.4" class="st2" width="3.6" height="3.2"/>
					<rect x="343.9" y="197.6" class="st2" width="3.6" height="3.2"/>
					<rect x="348" y="201.4" class="st2" width="3.6" height="3.2"/>
					<rect x="348" y="197.6" class="st2" width="3.6" height="3.2"/>
					<path class="st2" d="M358.5,204.7v-15.4c0-2.4,3.2-7.2,20.1-7.2s20.6,4.7,20.6,7.2v15.2"/>
					<rect x="361.9" y="191.6" class="st2" width="11.2" height="12.5"/>
					<rect x="375.5" y="191.6" class="st2" width="11.2" height="12.5"/>
					<rect x="385.1" y="200.8" class="st2" width="3.6" height="3.6"/>
					<rect x="380.8" y="200.8" class="st2" width="3.6" height="3.6"/>
					<rect x="326.8" y="197.4" class="st2" width="3.7" height="3.3"/>
					<rect x="328.5" y="193" class="st2" width="0.3" height="4.7"/>
					<rect x="525.9" y="192.8" class="st2" width="2.6" height="12.7"/>
					<path class="st2" d="M525.7,187.5h3.1c1.7,0,3.2,1.4,3.2,3.2l0,0v3.8c0,1.7-1.4,3.2-3.2,3.2l0,0h-3.1c-1.7,0-3.2-1.4-3.2-3.2
						l0,0v-3.8C522.7,188.9,523.9,187.6,525.7,187.5z"/>
					<rect x="537.2" y="194.1" class="st2" width="2.4" height="11.4"/>
					<path class="st2" d="M536.9,189.4h2.8c1.6,0,2.9,1.3,2.9,2.9l0,0v3.4c0,1.6-1.3,2.9-2.9,2.9l0,0h-2.8c-1.6,0-2.9-1.3-2.9-2.9
						l0,0v-3.4c0-1.6,1.1-2.9,2.6-2.9C536.9,189.4,536.9,189.4,536.9,189.4z"/>
					<path class="st2" d="M334.7,204.7c0,0.5-0.5,0.9-0.9,0.9l0,0h-10c-0.5,0-0.9-0.5-0.9-0.9l0,0v-11.5c0-0.5,0.5-0.9,0.9-0.9l0,0
						h10c0.5,0,0.9,0.5,0.9,0.9l0,0l0,0V204.7z M332.9,194.2h-8.2v11.7h8.2V194.2z"/>
					<path class="st2" d="M323.1,203h1.3c0.5,0,0.9,0.5,0.9,0.9l0,0v1.6c0,0.5-0.5,0.9-0.9,0.9l0,0h-1.3c-0.5,0-0.9-0.5-0.9-0.9l0,0
						V204C322.2,203.4,322.6,203,323.1,203L323.1,203z"/>
					<path class="st2" d="M333.2,203h1.3c0.5,0,0.9,0.5,0.9,0.9l0,0v1.6c0,0.5-0.5,0.9-0.9,0.9l0,0h-1.3c-0.5,0-0.9-0.5-0.9-0.9l0,0
						V204C332.1,203.4,332.5,203,333.2,203z"/>
					<polygon class="st3" points="340.9,214.8 340.9,200.9 335,200.9 331.3,214.8 					"/>
					<path class="st4" d="M366.3,212.6h-0.5c-0.1,0-0.2-0.1-0.2-0.2l0,0v-7.9c0-0.1,0.1-0.2,0.2-0.2h0.5c0.1,0,0.2,0.1,0.2,0.2l0,0
						v7.9C366.5,212.5,366.4,212.6,366.3,212.6"/>
					<path class="st4" d="M368.4,212.6h-0.3c-0.1,0-0.2-0.1-0.2-0.2l0,0v-7.9c0-0.1,0.1-0.2,0.2-0.2h0.5c0.1,0,0.2,0.1,0.2,0.2l0,0
						v7.9C368.6,212.5,368.6,212.6,368.4,212.6"/>
					<path class="st4" d="M370.4,212.6h-0.5c-0.1,0-0.2-0.1-0.2-0.2l0,0v-7.9c0-0.1,0.1-0.2,0.2-0.2h0.5c0.1,0,0.2,0.1,0.2,0.2v7.9
						C370.7,212.5,370.7,212.6,370.4,212.6L370.4,212.6"/>
					<path class="st4" d="M372.5,212.6h-0.3c-0.1,0-0.2-0.1-0.2-0.2l0,0v-7.9c0-0.1,0.1-0.2,0.2-0.2h0.5c0.1,0,0.2,0.1,0.2,0.2l0,0
						v7.9C372.7,212.5,372.6,212.6,372.5,212.6"/>
					<path class="st4" d="M374.5,212.6h-0.3c-0.1,0-0.2-0.1-0.2-0.2l0,0v-7.9c0-0.1,0.1-0.2,0.2-0.2h0.3c0.1,0,0.2,0.1,0.2,0.2v7.9
						C374.8,212.5,374.7,212.6,374.5,212.6"/>
					<path class="st4" d="M380.7,212.6h-0.3c-0.1,0-0.2-0.1-0.2-0.2l0,0v-7.9c0-0.1,0.1-0.2,0.2-0.2h0.5c0.1,0,0.2,0.1,0.2,0.2v7.9
						C380.9,212.4,380.9,212.6,380.7,212.6"/>
					<path class="st4" d="M382.6,212.6h-0.5c-0.1,0-0.2-0.1-0.2-0.2l0,0v-7.9c0-0.1,0.1-0.2,0.2-0.2h0.5c0.1,0,0.2,0.1,0.2,0.2l0,0
						v7.9C382.9,212.5,382.8,212.6,382.6,212.6L382.6,212.6"/>
					<path class="st4" d="M384.6,212.6h-0.5c-0.1,0-0.2-0.1-0.2-0.2l0,0v-7.9c0-0.1,0.1-0.2,0.2-0.2h0.5c0.1,0,0.2,0.1,0.2,0.2l0,0
						v7.9C385,212.5,384.9,212.6,384.6,212.6"/>
					<path class="st4" d="M386.8,212.6h-0.3c-0.1,0-0.2-0.1-0.2-0.2l0,0v-7.9c0-0.1,0.1-0.2,0.2-0.2h0.3c0.1,0,0.2,0.1,0.2,0.2l0,0
						v7.9C387,212.4,386.8,212.6,386.8,212.6L386.8,212.6"/>
					<path class="st4" d="M396.9,212.6h-0.5c-0.1,0-0.2-0.1-0.2-0.2l0,0v-7.9c0-0.1,0.1-0.2,0.2-0.2h0.5c0.1,0,0.2,0.1,0.2,0.2v7.9
						C397.1,212.5,397.1,212.6,396.9,212.6"/>
					<path class="st4" d="M399,212.6h-0.5c-0.1,0-0.2-0.1-0.2-0.2l0,0v-7.9c0-0.1,0.1-0.2,0.2-0.2h0.5c0.1,0,0.2,0.1,0.2,0.2v7.9
						C399.3,212.5,399.2,212.6,399,212.6L399,212.6"/>
					<path class="st4" d="M401.1,212.6h-0.5c-0.1,0-0.2-0.1-0.2-0.2l0,0v-7.9c0-0.1,0.1-0.2,0.2-0.2h0.5c0.1,0,0.2,0.1,0.2,0.2v7.9
						C401.3,212.4,401.3,212.6,401.1,212.6"/>
					<path class="st4" d="M403.1,212.6h-0.5c-0.1,0-0.2-0.1-0.2-0.2l0,0v-7.9c0-0.1,0.1-0.2,0.2-0.2h0.5c0.1,0,0.2,0.1,0.2,0.2l0,0
						v7.9C403.3,212.4,403.2,212.6,403.1,212.6L403.1,212.6"/>
				</g>
				<rect x="-36" y="250.3" class="st5" width="769" height="263.2"/>
				<rect x="-50" y="207.5" class="st6" width="804" height="31.9"/>
				<rect x="-50" y="215.5" class="st7" width="804" height="50.5"/>
				<g>
					<g>
						<path class="st8" d="M94.6,35.7c5.2,0,6.4,1.4,6.4,5.3h7.1c7.3,0,9.3,2.1,9.3,7.5h-71c0-3.8,1.3-5.3,6.4-5.3
							c0-5.4,1.8-7.5,9.3-7.5h5.2c0-6.8,2.4-9.6,11.7-9.6s11.7,2.7,11.7,9.6H94.6z"/>
					</g>
					<g>
						<path class="st8" d="M297.6,79.3H262c0-4.6,1.6-6.3,7.7-6.3h5.5c0-6.4,2.2-9.1,11.1-9.1c7,0,8.6,2,8.6,7.1
							c8.2,0,10.2,2.4,10.2,8.4h-13.3"/>
					</g>
					<g>
						<path class="st8" d="M662.6,72.1c7.8,0,9.8,2.2,9.8,8h10.9c11.1,0,14.1,3.3,14.1,11.4H589.7c0-5.7,2-8,9.8-8
							c0-8.1,2.7-11.4,14.1-11.4h7.8c0-10.2,3.5-14.4,17.7-14.4s17.7,4.1,17.7,14.4H662.6z"/>
					</g>
				</g>
				<rect x="154.2" y="-338.9" class="st6" width="7.3" height="551.9"/>
				<rect x="539.1" y="-338.9" class="st6" width="7.3" height="551.9"/>
			</g>
			<g>
				<g>
					<g>
						<g>
							<g>
								<rect x="350.4" y="379.8" class="st9" width="19.1" height="144.3"/>
								<path class="st10" d="M407.3,395.3V389h-94.6v6.4l0,0c0,3.4,2.7,6.4,6.4,6.4h82C404.4,401.6,407.3,398.9,407.3,395.3
									L407.3,395.3"/>
								<rect x="353.3" y="306.7" class="st9" width="13.3" height="65.8"/>
								<path class="st11" d="M299.2,315.4c-8.2,0-14.8-6.7-14.8-15v-93.8c0-8.2,6.7-15,14.8-15l0,0h121.7c8.2,0,15,6.7,15,15l0,0
									v93.8c0,8.2-6.7,14.8-15,15H299.2L299.2,315.4z"/>
								<path class="st12" d="M261.9,379.8v13.9H458v-13.8l0,0c0-7.6-6.2-13.8-13.8-13.8H275.7C268.1,366,261.9,372.3,261.9,379.8
									L261.9,379.8"/>
								<path class="st9" d="M399.9,367.2l-87.5,14.1c-15.1,0-27.3-12.3-27.3-27.3c0-1.3,0.1-2.5,0.2-3.8l6.7-47.5h133.4
									L399.9,367.2z"/>
								<path class="st9" d="M405.3,381.2h-21.5l41.4-78.7L430,354c1.3,13.7-8.9,25.8-22.5,27.1C406.9,381.2,406,381.2,405.3,381.2z
									"/>
								<polygon class="st9" points="386.1,531 424.6,514.9 346.6,316.8 288.6,341 								"/>
								<path class="st14" d="M317.6,457.6L278.7,437l123.5-140.3c7.9-8.9,21.5-9.7,30.4-1.8c0.2,0.2,0.5,0.5,0.8,0.8l11.9,11.8
									c8.6,8.6,8.7,22.5,0.1,31.1c-0.2,0.2-0.7,0.5-1,1L317.6,457.6z"/>
								<path class="st15" d="M326,92.7c-0.5,7.1,2.7,14.1,8.6,18.3c1.3,0.8,4.2-20.3,4.2-20.3l44,2.6c0,0,0.8,16.4,0.8,19.6
									c0,0,11.9-12,8.9-22.8c5.6-5.6,2.5-11.8-1.3-15c3.1-7.1-3.4-17.1-10.3-15.9c-3-5.9-15-8.2-20.7-4c-5.7-5-19.7-2-20.9,4.2
									c-8.2,0.5-13.8,9.1-12.6,15.3C322.4,77.8,320.7,88.2,326,92.7"/>
								<path class="st13" d="M333.3,78c0,7.9-0.2,24.2-0.2,24.2h-1.5c-2.3,0-4.2,1.8-4.2,6.7c0,6.8,1.3,7.5,5.4,7.5v5.7
									c-0.1,5.6,2.4,10.8,6.7,14.3v8.2l19.7,30.7l19.6-29.8v-8.4c0,0,6.2-5.4,6.2-13.3c0-2-0.1-3-0.1-5.4c4.6,0,5-2.3,5-8.6
									c0-6.4-2.3-7.1-3.6-7.1H385v-16c-8.2,5.6-19.2,5-27-1.3C353.3,81.7,346.9,78,333.3,78"/>
								<path class="st16" d="M348.7,107.6h-2c-0.8,0-1.3-0.5-1.3-1.3v-2c0-0.8,0.5-1.3,1.3-1.3h2c0.8,0,1.3,0.5,1.3,1.3v2
									C350.1,107,349.4,107.6,348.7,107.6"/>
								<path class="st16" d="M371.6,107.6h-2c-0.8,0-1.3-0.5-1.3-1.3v-2c0-0.8,0.5-1.3,1.3-1.3h2c0.8,0,1.3,0.5,1.3,1.3v2
									C373,107,372.4,107.6,371.6,107.6"/>
								<path class="st16" d="M379,136.9l1.5,8.7c0,0-12.6,15.6-12.6,16.2c-14.1,0-28.3-25.6-28.3-25.6
									C355.1,149.7,363.7,151.7,379,136.9"/>
								<path class="st8" d="M367.8,130.8h-15.3C352.3,134.4,367.8,134.6,367.8,130.8"/>
								<path class="st17" d="M379,332c0,8.9,10.8,17.8,24.4,11.1l11.9-6.9l27.6,6.4l16.8-70.7c1.5-6.2,1.1-12.7-0.8-18.7
									l-24.8-73.7c-3-8.6-9.1-15.8-17.3-19.6l-31.2-15.2l-5.8-4.2l0.7,11.3l-20.4,27l-19.4-21.9l-1.5-16l-5,3.3l-38.5,16.9
									c-7.9,3.4-13.5,10.9-14.6,19.5l-6.2,44.2l11.5,2.3L306,347.8l14.8,0.1c8.9,0,13.2-4,13.2-13.2l0.2-10.7h45.1 M415.7,325.1
									v-94l12.5,33.4L415.7,325.1z M286.9,345.8l27.8,3l1-38.3l-6.8-77.1l-22.8-5.9L286.9,345.8z"/>
								<path class="st18" d="M347.7,244.4h21.9l15.6-99.5l-5.6-4.6c0,0-2.3,41.1-19.5,41.1c-17.3,0-20.4-42.8-20.4-42.8l-5.9,5.9
									L347.7,244.4z"/>
								<path class="st17" d="M274.9,220.8l-3.1,52.6c-0.2,3.8,0.7,7.6,2.6,10.8l41.1,68.7l25.4-17.4L306,271.2l5.2-53.6
									L274.9,220.8z"/>
								<path class="st19" d="M596.3,326.7H123.7l-21,245.5h15.5c0,0,44.4-162.8,55-200.5c2.4-8.4,6.1-13.5,16.6-13.5H530
									c10.5,0,14.3,5,16.6,13.5c10.5,37.7,55,200.5,55,200.5h15.6L596.3,326.7z"/>
								<path class="st20" d="M620.6,313c0,10-2.4,14.8-21.7,14.8h-477c-19.2,0-22.5-1-22.5-14.8H620.6z"/>
								<path class="st17" d="M212.7,313v-7.7c0-3.8,3-6.7,6.7-6.7h41.8c3.8,0,6.7,3,6.7,6.7v7.7"/>
								<polygon class="st18" points="357.6,228.5 382.5,144.8 379.3,140.8 359.5,168 339.3,138.5 332.9,144.8 								"/>
								<path class="st21" d="M366.8,177.7l-7.5-7.9c0,0-4.4,4.6-7.4,7.7c-1.3,1.3-1.5,3.4-0.7,5.1l4.2,7.9l-3.8,28.6l7.9,24.2
									l7.6-23.5l-3.8-29.3l4.2-7.7C368.5,181.3,368.1,179.2,366.8,177.7z"/>
								<path class="st22" d="M306.8,219.3H418c5.1,0,9.3,4.2,9.3,9.3v76.5c0,5.1-4.2,9.3-9.3,9.3H306.8c-5.1,0-9.3-4.2-9.3-9.3
									v-76.7C297.4,223.4,301.7,219.3,306.8,219.3z"/>
								<path class="st6" d="M361.6,261.6c-0.5-0.1-0.9-0.1-1.5-0.1c-3.8,0-6.8,3.1-6.8,6.8s3.1,6.8,6.8,6.8c3.8,0,6.8-3.1,6.8-6.8
									C359.89,267.48,361.6,261.6,361.6,261.6z"/>
							</g>
						</g>
					</g>
				</g>
			</g>
		</g>
	</g>
</g>
<g>
	<path class="st23" d="M582.5,46.3v85.2c0,4.9-4,8.9-8.9,8.9H458.4c-4.9,0-8.9-4-8.9-8.9V46.3c0-4.9,4-8.9,8.9-8.9h115.1
		C578.4,37.4,582.5,41.4,582.5,46.3z"/>
	<path class="st24" d="M449.5,50.8v-4.5c0-4.9,4-8.9,8.9-8.9l0,0h115.1c4.9,0,8.9,4,8.9,8.9l0,0v4.5"/>
	<rect x="532.3" y="59.7" class="st25" width="40.8" height="1.7"/>
	<rect x="532.3" y="64" class="st25" width="42" height="1.7"/>
	<rect x="532.3" y="72.8" class="st26" width="33.2" height="1.7"/>
	<rect x="532.3" y="68.4" class="st26" width="24.2" height="1.7"/>
	<circle class="st17" cx="459" cy="44" r="2.6"/>
	<circle class="st17" cx="467" cy="44" r="2.6"/>
	<circle class="st17" cx="475.1" cy="44" r="2.6"/>
	<path class="st27" d="M572.5,101.5l-8.6,1.6l-12.9,2.4l-1.7,0.3c-0.3,0-0.6,0-0.7,0.3c-0.1,0.3-0.1,0.4-0.3,0.7l-0.9,1.7l-5.8,11.9
		l-2.7,5.8c-0.6,1-1,2.2-1.4,3.2v0.1l0.9-0.1l-10.7-10.6l-1.6-1.6c-0.1-0.1-0.3-0.1-0.6-0.1l-11.2,4.2l-17.8,6.5l-4.2,1.4h0.4
		l-9.6-5.8l-15.2-9.2l-3.5-2c-0.6-0.4-1.2,0.6-0.6,1l10.2,6.2l15.5,9.3l2,1.3c0.3,0.1,0.7,0.4,1,0.4c0.3-0.1,0.6-0.3,0.9-0.3
		l2.3-0.9l17-6.2l8.2-3c1.4-0.6,3-1,4.5-1.7h0.1l-0.6-0.1l10.6,10.6l1.6,1.6c0.1,0.1,0.6,0.1,0.7,0c0,0,0-0.1,0.1-0.1l3.7-7.9
		l6-12.7l1.4-2.9l-0.3,0.3l8.1-1.4l12.8-2.3l2.9-0.6C573.5,102.5,573.2,101.5,572.5,101.5L572.5,101.5z"/>
	<circle class="st26" cx="525.2" cy="118" r="3.5"/>
	<circle class="st25" cx="549.5" cy="106.7" r="3.5"/>
	<path class="st28" d="M476.8,76.9c2.3-6.9,16-5.6,21.3-3.9c6.5,2.6,5,14.4,3.7,19.7c-2.3,6.9-16,5.8-21.3,3.9
		C474.2,94,475.8,82.4,476.8,76.9"/>
	<path class="st29" d="M489.2,71.9l-9.9-8.1C485,58.8,493.8,66.6,489.2,71.9"/>
</g>
<g>
	<path class="st20" d="M516,185.5h147c3.4,0,6.3,2.9,6.3,6.3v92.8c0,3.4-2.9,6.3-6.3,6.3H516c-3.4,0-6.3-2.9-6.3-6.3v-92.8
		C509.7,188.3,512.5,185.5,516,185.5z"/>
	<path class="st22" d="M660.8,235.4h3.2c0.6,0,1.1,0.5,1.1,1.1v3.2c0,0.6-0.5,1.1-1.1,1.1h-3.2c-0.6,0-1.1-0.5-1.1-1.1v-3.2
		C659.5,235.9,660,235.4,660.8,235.4z"/>
	<g>
		<rect x="516" y="191.7" class="st8" width="137.2" height="94.4"/>
		<g>
			<g>
				<g>
					<g>
						<g>
							<g>
								<g>
									<defs>
										<rect id="SVGID_3_" x="516" y="191.7" width="139.9" height="94.4"/>
									</defs>
									<clipPath id="SVGID_4_">
										<use xlink:href="#SVGID_3_"  style="overflow:visible;"/>
									</clipPath>
									<g class="st30">
										<path class="st31" d="M566,203.6l-26.3-20.2h-38.3v16.5l12.4,14.1v11.8l24.4,26.9c0.6,0.9,1.9,1.2,2.9,1.2h13.6l-4.3,12.2
											c-0.3,1.2-0.2,2.6,0.3,3.4l7.6,10.8v23.8l5.4,4.3v-13l21.6-22.7c2.2-2.5,2.2-5.9-0.2-8.2l-14.7-13.9
											c-0.6-0.6-1.9-1.2-3.1-1.2H544l-5.4-15.1h7.7c1.7,0,3.2-0.6,4.3-1.9l16.4-19.6C569.5,209.8,569,205.7,566,203.6L566,203.6
											z"/>
										<path class="st31" d="M633.7,216.6h11.1L631,267.3c-0.6,1.5-2,2.9-3.6,3.6l-8.5,3.2c-2.2,0.9-4.6-0.2-5.6-2.5
											c-0.2-0.5-0.3-1.1-0.3-1.5v-27.3h-15.3c-1.7,0-3.2-0.6-4.2-1.9l-6.3-8.2c-1.4-1.7-1.4-4.3,0-5.9l8.2-10.3
											c1.2-1.5,3.1-2.5,5.1-2.6H629C630.8,213.8,632.8,214.7,633.7,216.6z"/>
									</g>
								</g>
							</g>
						</g>
					</g>
				</g>
			</g>
		</g>
		<rect x="516" y="191.7" class="st32" width="137.2" height="94.4"/>
		<circle class="st26" cx="554" cy="227.7" r="6"/>
	</g>
	<circle class="st26" cx="617.2" cy="245.6" r="3.2"/>
</g>
<g>
	<g>
		<path class="st23" d="M259.4,13l-99.1,1c-7,0.1-12.4,5.8-12.4,12.8l0.9,135.5c0,7,5.7,12.5,12.7,12.5l0,0l36.9-0.4l30,35.6
			l-0.3-35.9l32.5-0.3c7,0,12.4-5.8,12.4-12.8l-0.9-135.5C271.8,18.5,266.3,13,259.4,13L259.4,13"/>
		<g>
			<g>
				<g>
					<g>
						<g>
							<g>
								<g>
									<defs>
										<path id="SVGID_5_" d="M259.4,13l-99.1,1c-7,0.1-12.4,5.8-12.4,12.8l0.9,135.5c0,7,5.7,12.5,12.7,12.5l0,0l36.9-0.4
											l30,35.6l-0.3-35.9l32.5-0.3c7,0,12.4-5.8,12.4-12.8l-0.9-135.5C271.8,18.5,266.3,13,259.4,13L259.4,13"/>
									</defs>
									<clipPath id="SVGID_6_">
										<use xlink:href="#SVGID_5_"  style="overflow:visible;"/>
									</clipPath>
									<g class="st33">
										<path class="st34" d="M225.3,98.3l26.9,13.7c7.3,3.7,12.4,10.5,13.9,18.5l11.4,58.1c0.7,3.8-0.4,7.7-3.1,10.6l-18,18.7
											l-7.5-7.2l-69.6,1.9l-0.7,3.5l-27.7-5.2c-5.1-1-8.5-6-7.8-11.2l10.8-69.4c1-7.2,5.6-13.4,12-16.5l31.6-15.6
											C197.6,98.3,225.3,98.3,225.3,98.3z"/>
										<path class="st17" d="M239.2,261.4l-58,9.5c-10,0-18-8.2-18-18.2c0-0.9,0-1.7,0.1-2.6l4.4-31.8H256L239.2,261.4z"/>
										<path class="st17" d="M242.7,270.9h-14.2l27.4-52.6l3.4,34.5c0.7,9.2-5.7,17.2-14.9,18.1
											C244,270.9,243.4,270.9,242.7,270.9z"/>
										<path class="st17" d="M176.4,350h-26.8c-2.6,0-4.5-2.2-4.4-4.8c0-0.6,0.1-1.2,0.4-1.9l13.5-27.7l22.4,9.5L176.4,350z"/>
										<polygon class="st35" points="186.6,302 179.1,337 148.7,337 169,295.6 										"/>
										<path class="st17" d="M238.9,399.7l25.3,0.1c2.9,0,5.3-2.3,5.3-5.4c0-0.9-0.1-1.7-0.6-2.5l-13.2-26.2l-22.1,9.3
											L238.9,399.7z"/>
										<polygon class="st17" points="219.8,355.6 245.3,344.9 204,227.8 165.6,243.9 										"/>
										<polyline class="st17" points="223.8,283.8 196.9,308 199.8,314.1 229.4,300 										"/>
										<path class="st36" d="M245.3,344.9l-16.7,7l6.9,32.4c4.5,1.3,9.4,1.9,14.1,1.7c7.3-0.4,12.7-6.9,12.7-6.9L245.3,344.9z"/>
										<path class="st17" d="M179.1,337c0,0-19,0.4-25.3-10.1l-6.3,12.5L179.1,337z"/>
										<path class="st37" d="M174.1,146.7h71.5c3.4,0,5.9,2.8,5.9,6v49.8c0,3.4-2.8,6-5.9,6h-71.5c-3.4,0-5.9-2.8-5.9-6v-49.8
											C168.2,149.4,170.8,146.7,174.1,146.7z"/>
										<path class="st38" d="M188.7,315.4l-19.6-19.7l71.8-81.3c5.3-6,14.2-6.4,20.2-1.2c0.1,0.1,0.3,0.3,0.6,0.4l7.9,7.9
											c5.7,5.7,5.7,15,0.1,20.8c-0.1,0.3-0.4,0.4-0.7,0.6L188.7,315.4z"/>
										<path class="st39" d="M246.5,94.9c0-21.4-9.1-15.6-9.1-37.2c0-20.7-5.7-29.1-25-29.1c-18.2,0-27.2,5.4-27.2,30.7
											c0,27.4,7.8,39.1,28.1,39.1l12.3-0.4c0,2.5-0.1,13.4-0.1,19.7h5C241.2,117.7,246.5,106.3,246.5,94.9z"/>
										<path class="st40" d="M231.4,47.5l-0.1,17.6l4.5,0.1c0,5.5-1,8.2-4.1,8.2v4.5c0,7.4-6.3,12.3-6.3,12.3v7.7l-13.8,42.7
											l-13.8-42.2v-7.6c0,0-6-5.8-6-11.8c0-1.6,0.1-2.3,0.1-4.1c-3.1,0-3.8-2.3-3.8-5.2c0-0.3,0-4.1,0-4.1l3.8-0.1v-9.8
											C191.9,55.6,215.4,59.4,231.4,47.5"/>
										<path class="st17" d="M203.4,66.1h-1.5c-0.6,0-1-0.4-1-1l0,0v-1.6c0-0.6,0.4-1,1-1h1.5c0.6,0,1,0.4,1,1v1.6
											C204.5,65.6,204,66.1,203.4,66.1L203.4,66.1"/>
										<path class="st17" d="M220.7,66.1h-1.5c-0.6,0-1-0.4-1-1l0,0v-1.6c0-0.6,0.4-1,1-1h1.5c0.6,0,1,0.4,1,1v1.6
											C221.8,65.6,221.5,66.1,220.7,66.1L220.7,66.1"/>
										<path class="st41" d="M225.3,90v7.9l-3.5,10.8c-18.2,0-24.2-17.8-24.2-17.8C206.8,98.9,213.8,100.3,225.3,90"/>
										<polygon class="st18" points="225.3,97.8 227.6,128.2 211.6,140.5 196.9,128.2 197.7,98.4 211.6,140.5 										"/>
										<path class="st8" d="M216.9,83.3h-11C205.9,86.3,216.9,86.3,216.9,83.3"/>
									</g>
								</g>
							</g>
						</g>
					</g>
				</g>
			</g>
		</g>
	</g>
	<g>
		<g>
			<path class="st17" d="M237.3,61.1h-1.6c0-18.7-1.6-29.9-24.5-29.9c-23.6,0-25.3,12.4-25.3,29.9h-1.6c0-17.9,1.9-31.6,26.9-31.6
				C235.5,29.4,237.3,42,237.3,61.1z"/>
		</g>
		<g>
			<path class="st42" d="M234.6,77.1h-2.5c-0.6,0-1-0.4-1-1V61.7c0-0.6,0.4-1,1-1h2.5l0,0V77.1L234.6,77.1z"/>
		</g>
		<g>
			<path class="st43" d="M234.6,60.5h3.5c4.5,3.8,5.1,10.5,1.3,15c-0.4,0.4-0.9,0.9-1.3,1.3h-3.5V60.5z"/>
		</g>
		<g>
			<path class="st17" d="M203.1,90.4c-10.8,0-18-6.3-18-15.5h1.6c0,6.4,4.2,13.8,16.4,13.8V90.4L203.1,90.4z"/>
		</g>
		<g>
			<path class="st44" d="M202.4,87.7h2.5c0.9,0,1.5,0.6,1.5,1.6v0.9c0,0.9-0.6,1.6-1.5,1.6h-2.5c-0.9,0-1.5-0.6-1.5-1.6v-0.9
				C201,88.4,201.5,87.7,202.4,87.7z"/>
		</g>
		<g>
			<path class="st42" d="M187.2,60.5h2.5c0.6,0,1,0.4,1,1v14.3c0,0.6-0.4,1-1,1h-2.5l0,0V60.5L187.2,60.5z"/>
		</g>
		<g>
			<path class="st43" d="M187.2,77.1h-3.5c-4.5-3.8-5.1-10.5-1.3-15c0.4-0.4,0.9-0.9,1.3-1.3h3.5V77.1z"/>
		</g>
	</g>
</g>
<g>
	<path class="st24" d="M59.5,130.4h53.3c8.3,0,14.9,6.8,14.9,14.9v112.3c0,8.3-6.8,14.9-14.9,14.9H59.5c-8.3,0-14.9-6.8-14.9-14.9
		V145.3C44.4,137,51.2,130.4,59.5,130.4z"/>
	<rect x="52.1" y="150.1" class="st8" width="68" height="102.8"/>
	<path class="st22" d="M83.6,258.3h4.9c1,0,1.7,0.7,1.7,1.7l0,0v4.9c0,1-0.7,1.7-1.7,1.7l0,0h-4.9c-1,0-1.7-0.7-1.7-1.7V260
		C81.9,258.9,82.6,258.3,83.6,258.3z"/>
	<circle class="st45" cx="124.7" cy="171.8" r="14.1"/>
	<path class="st8" d="M123.1,164.5h3.1l-0.3,9.7h-2.4L123.1,164.5z M123.1,175.7h3.1v3.1h-3.1V175.7z"/>
	<path class="st1" d="M62.8,173.5h30c2.5,0,4.7,2,4.7,4.7v6.1c0,2.5-2,4.7-4.7,4.7H62.9c-2.5,0-4.7-2-4.7-4.7v-6.1
		C58.2,175.5,60.2,173.5,62.8,173.5z"/>
	<path class="st46" d="M73.3,192.6h36c2.5,0,4.7,2,4.7,4.7v6.1c0,2.5-2,4.7-4.7,4.7h-36c-2.5,0-4.7-2-4.7-4.7v-6.1
		C68.5,194.8,70.7,192.6,73.3,192.6z"/>
	<path class="st46" d="M85,231.1h24.4c2.5,0,4.7,2,4.7,4.7v6.1c0,2.5-2,4.7-4.7,4.7H85c-2.5,0-4.7-2-4.7-4.7v-6.1
		C80.2,233.2,82.3,231.1,85,231.1z"/>
	<path class="st1" d="M62.8,211.8h36c2.5,0,4.7,2,4.7,4.7v6.1c0,2.5-2,4.7-4.7,4.7h-36c-2.5,0-4.7-2-4.7-4.7v-6.1
		C58.2,214,60.2,211.8,62.8,211.8z"/>
	<rect x="61.7" y="176.4" class="st47" width="23.1" height="1.5"/>
	<rect x="61.7" y="180.4" class="st47" width="30.4" height="1.5"/>
	<rect x="61.7" y="184.3" class="st47" width="18.3" height="1.5"/>
	<rect x="83.8" y="234.2" class="st48" width="25.3" height="1.5"/>
	<rect x="83.8" y="238.1" class="st48" width="23.6" height="1.5"/>
	<rect x="83.8" y="242" class="st48" width="18.3" height="1.5"/>
	<rect x="72.1" y="195.7" class="st48" width="36.6" height="1.5"/>
	<rect x="72.1" y="199.6" class="st48" width="37.8" height="1.5"/>
	<rect x="72.1" y="203.7" class="st48" width="21.9" height="1.5"/>
	<rect x="61.6" y="214.8" class="st47" width="28.2" height="1.5"/>
	<rect x="61.6" y="218.9" class="st47" width="33.4" height="1.5"/>
	<rect x="61.6" y="222.8" class="st47" width="36.8" height="1.5"/>
	<path class="st21" d="M61.4,157.2c0-2.5,0.7-3.1,2.5-3.1c1.7,0,2.5,0.7,2.5,3.1c0,2.5-0.7,3.1-2.5,3.1
		C62.2,160.2,61.4,159.7,61.4,157.2z"/>
	<path class="st21" d="M58.2,168.7c0-5.9,1.7-7.3,5.9-7.3s5.9,1.5,5.9,7.3H58.2z"/>
</g>
</svg>
