<svg width="336" height="189" viewBox="0 0 336 189" fill="none" xmlns="http://www.w3.org/2000/svg">
  <rect opacity="0.5" width="336" height="189" rx="7" />
  <path d="M132 118H204V119H132V118Z" fill="#00243D"/>
  <path d="M132 68H204V69H132V68Z" fill="#00243D"/>
  <path d="M142 58H143V130H142V58Z" fill="#00243D"/>
  <path d="M192 58H193V130H192V58Z" fill="#00243D"/>
  <path d="M168 85V111" stroke="#42B0D5" stroke-width="1"/>
  <path d="M161 93H175" stroke="#42B0D5" stroke-width="1"/>
  <circle cx="168" cy="81" r="4" stroke="#42B0D5" stroke-width="1"/>
  <path d="M152 103L159.121 110.121C159.684 110.684 160.447 111 161.243 111H167H174.757C175.553 111 176.316 110.684 176.879 110.121L184 103" stroke="#42B0D5" stroke-width="1"/>
  <path d="M150 110V104.414C150 104.149 150.105 103.895 150.293 103.707L152.707 101.293C152.895 101.105 153.149 101 153.414 101H159" stroke="#42B0D5" stroke-width="1"/>
  <path d="M186 110V104.414C186 104.149 185.895 103.895 185.707 103.707L183.293 101.293C183.105 101.105 182.851 101 182.586 101H177" stroke="#42B0D5" stroke-width="1"/>
  </svg>
