<?xml version="1.0" encoding="UTF-8"?>
<svg width="336" height="189" viewBox="0 0 336 189" fill="none" xmlns="http://www.w3.org/2000/svg">
  <path d="M81 94C81 89.5817 84.5817 86 89 86H247C251.418 86 255 89.5817 255 94V94C255 98.4183 251.418 102 247 102H89C84.5817 102 81 98.4183 81 94V94Z" stroke="#00243D" stroke-width="1" />
  <path fill-rule="evenodd" clip-rule="evenodd" d="M86 98.0007C84.7856 97.0885 84 95.6362 84 94.0004C84 92.3645 84.7856 90.9122 86 90V98.0007Z" fill="#42B0D5" />
  <rect x="90" y="89" width="1" height="10" fill="#42B0D5" />
  <rect x="96" y="89" width="1" height="10" fill="#42B0D5" />
  <rect x="102" y="89" width="1" height="10" fill="#42B0D5" />
  <rect x="108" y="89" width="1" height="10" fill="#42B0D5" />
  <rect x="114" y="89" width="1" height="10" fill="#42B0D5" />
  <rect x="120" y="89" width="1" height="10" fill="#42B0D5" />
  <rect x="126" y="89" width="1" height="10" fill="#42B0D5" />
  <rect x="132" y="89" width="1" height="10" fill="#42B0D5" />
  <rect x="138" y="89" width="1" height="10" fill="#42B0D5" />
</svg>
