<?xml version="1.0" encoding="utf-8"?>
<!-- Generator: Adobe Illustrator 25.2.0, SVG Export Plug-In . SVG Version: 6.00 Build 0)  -->
<svg version="1.1" id="Layer_1" xmlns="http://www.w3.org/2000/svg" xmlns:xlink="http://www.w3.org/1999/xlink" x="0px" y="0px"
	 viewBox="0 0 720 420" style="enable-background:new 0 0 720 420;" xml:space="preserve">
<style type="text/css">
	.st0{fill:#FFFFFF;}
	.st1{fill:#C7C6C5;}
	.st2{fill:#355163;}
	.st3{fill:#9B9B9B;}
	.st4{fill:#DCDCDC;}
	.st5{fill:#CFD0D0;}
	.st6{fill:#FBB47F;}
	.st7{fill:#FFEBCB;}
	.st8{opacity:0.62;fill:#9A9B9B;enable-background:new    ;}
	.st9{fill:#555554;}
	.st10{fill:#31323A;}
	.st11{fill:#FFD188;}
	.st12{fill:#FCB33C;}
	.st13{fill:#1A1210;}
	.st14{fill:#DCDADD;}
	.st15{fill:#878787;}
	.st16{fill:#06060A;}
	.st17{fill:#F99E1C;}
	.st18{clip-path:url(#SVGID_8_);}
	.st19{fill:none;}
	.st20{fill:#010101;}
	.st21{fill:#03253D;}
	.st22{fill:#0475B1;}
	.st23{fill-rule:evenodd;clip-rule:evenodd;fill:#B5816B;}
	.st24{fill:#B5816B;}
	.st25{fill:#01253E;}
	.st26{fill:#355167;}
	.st27{fill:#02243C;}
	.st28{fill:#313F54;}
	.st29{fill:#F7B584;}
	.st30{fill:#F26A57;}
	.st31{fill:#FFE9CC;}
	.st32{fill:#545554;}
	.st33{fill:#D0D0CF;}
	.st34{fill:#444E62;}
	.st35{fill:#FBD5C2;}
	.st36{fill:#79BFDD;}
	.st37{fill:#41B0D5;}
</style>
<g>
	<defs>
		<rect id="SVGID_1_" width="720" height="420"/>
	</defs>
	<use xlink:href="#SVGID_1_"  style="overflow:visible;fill:#E5F5FC;"/>
	<clipPath id="SVGID_2_">
		<use xlink:href="#SVGID_1_"  style="overflow:visible;"/>
	</clipPath>
</g>
<g>
	<defs>
		<rect id="SVGID_3_" y="313.77" width="720" height="106.23"/>
	</defs>
	<use xlink:href="#SVGID_3_"  style="overflow:visible;fill:#E3E4E4;"/>
	<clipPath id="SVGID_4_">
		<use xlink:href="#SVGID_3_"  style="overflow:visible;"/>
	</clipPath>
</g>
<g>
	<defs>
		<rect id="SVGID_5_" y="270.1" width="720" height="46.9"/>
	</defs>
	<use xlink:href="#SVGID_5_"  style="overflow:visible;fill:#C0BFBF;"/>
	<clipPath id="SVGID_6_">
		<use xlink:href="#SVGID_5_"  style="overflow:visible;"/>
	</clipPath>
</g>
<g>
	<path class="st0" d="M274.74,63.21h-63.72c0-8.1,2.78-11.24,13.78-11.24h9.91c0-11.61,3.99-16.32,19.95-16.32
		c12.45,0,15.36,3.63,15.36,12.57c14.75,0,18.38,4.35,18.38,14.99h-23.58"/>
</g>
<g>
	<path class="st0" d="M82.21,132.71c6.85,0,8.59,1.86,8.59,7.08h9.52c9.75,0,12.19,2.79,12.19,9.98H18.49
		c0-4.99,1.74-7.08,8.59-7.08c0-7.2,2.44-9.98,12.19-9.98h6.85c0-8.94,3.02-12.65,15.44-12.65s15.44,3.6,15.44,12.65L82.21,132.71z"
		/>
</g>
<g>
	<path class="st0" d="M525.9,51.24c7.45,0,9.23,2.02,9.23,7.53h10.21c10.45,0,13.2,3.08,13.2,10.69H457.22
		c0-5.35,1.78-7.53,9.23-7.53c0-7.69,2.59-10.69,13.2-10.69h7.45c0-9.64,3.32-13.61,16.68-13.61c13.36,0,16.68,3.81,16.68,13.61
		H525.9z"/>
</g>
<path class="st1" d="M257.18,179.14L257.18,179.14c0,0.86,0.43,1.72,1.51,1.94v8.17c-1.29,0.43-1.94,1.72-1.94,2.8h-2.15l0,0
	c-0.43,0-1.29,0.43-1.29,1.29v12.47h16.99v-12.69l0,0l0,0c0-0.43-0.43-0.86-0.86-0.86h-2.58c0-1.51-0.43-2.58-1.94-2.8v-8.17h0.22
	c0.86-0.22,1.51-0.86,1.51-1.72h92.46v101.49c-3.87,0.22-6.88,2.15-7.31,6.45h-6.24v-0.22c0-1.72-1.29-3.01-2.8-3.66v-25.37l0,0
	c0-1.94-1.72-3.66-3.87-3.66h-36.55l0,0c-1.94,0-3.66,1.72-3.66,3.87v25.16c-1.51,0.43-2.58,1.94-2.58,3.66v0.22h-0.22
	c-23.65,0-27.09,17.2-27.09,17.2h246.57v-17.2h-34.55v-9.46l0,0c0-0.43-0.43-0.86-1.29-0.86h-10.75l0,0c-0.43,0-1.29,0.43-1.29,1.29
	v9.25h-2.58v-9.46l0,0c0-0.43-0.43-0.86-1.29-0.86h-10.75l0,0c-0.43,0-1.29,0.43-1.29,1.29v9.25h-1.94v-9.46
	c0-0.43-0.43-0.86-1.29-0.86h-11.18l0,0c-0.43,0-1.29,0.43-1.29,1.29v9.25h-10.11c-0.43-3.66-3.87-6.45-7.74-6.45V179.57h14.62v9.89
	h12.47l0,0c1.94,0,3.44-1.72,3.01-3.66v-6.24h8.82v-10.11h-2.8l-89.45-42.36v-2.58c0-1.51-4.52-1.51-4.52,0v1.94l-115.04,41.93
	h-3.87l0,0c-3.87,0-7.31,3.44-7.31,7.31v3.01L257.18,179.14 M413.5,157.64c0,0-0.22-0.22-0.43-0.22l0,0c-0.86,0-1.72,0.86-1.51,1.72
	v9.03l-44.94-39.99l86.01,40.64h-22.79v-3.87c0,0-0.22-7.31-9.03-7.31H413.5 M411.35,182.15v17.42h-44.08L411.35,182.15z
	 M367.7,203.66H412v76.55c-4.3,0-7.96,1.94-8.17,6.45h-27.95c-0.86-3.66-3.87-6.45-7.96-6.45h-0.22V203.66L367.7,203.66z
	 M367.7,179.14h43.65l-43.65,17.2V179.14z M365.55,129.26l44.51,39.35h-44.51V129.26z M321.69,270.1h-2.8v-7.31h2.8V270.1z
	 M336.31,282.79c-1.72,0.43-2.8,1.94-2.8,3.66v0.22h-24.3v-0.22c0-1.72-1.29-3.44-2.8-3.66v-21.5h10.54l0,0
	c0,0.43,0.43,1.29,1.29,1.29v7.31c-1.29,0.22-1.72,1.51-1.72,2.58h-2.15c-0.43,0-0.86,0.43-0.86,0.86v3.87h14.84v-3.87
	c0-0.43-0.43-0.86-0.86-0.86h-2.15c0-1.29-0.43-2.15-1.72-2.58v-7.31l0,0c0.86,0,1.51-0.43,1.51-1.51h11.4L336.31,282.79
	L336.31,282.79z M285.35,168.61l76.12-39.78v39.78H285.35z M260.19,180.86h3.01v8.17h-3.01V180.86z M249.01,168.61l108.8-38.92
	l-74.61,38.92H249.01z"/>
<g>
	<path class="st2" d="M432.28,317V144.87c0-5.51,3.67-10.6,9.04-12.44l121.53-39.85c2.69-0.85,5.51-0.85,8.2,0l121.53,39.85
		c5.37,1.84,9.04,6.92,9.04,12.44v172.27L432.28,317L432.28,317z"/>
	<rect x="454.18" y="173.56" class="st3" width="225.4" height="137.58"/>
	<rect x="449.09" y="163.67" class="st4" width="235.15" height="9.89"/>
	<path class="st5" d="M458,151.94L458,151.94c0.85-0.28,1.27-0.85,1.27-1.27v-7.91l0,0c0-0.85-0.57-1.27-1.27-1.27h-2.54l0,0
		c-0.85,0-1.27,0.57-1.27,1.27v7.91c0,0.85,0.57,1.27,1.27,1.27H458"/>
	<path class="st5" d="M470.29,151.94L470.29,151.94c0.85,0,1.27-0.85,1.27-1.27v-12.01l0,0c0-0.85-0.57-1.27-1.27-1.27h-2.69l0,0
		c-0.85,0-1.27,0.57-1.27,1.27v12.01l0,0c0,0.85,0.57,1.27,1.27,1.27H470.29"/>
	<path class="st5" d="M482.44,151.94L482.44,151.94c0.85-0.28,1.27-0.85,1.27-1.27v-15.69l0,0c0-0.85-0.57-1.27-1.27-1.27h-2.69
		c-0.85,0-1.27,0.57-1.27,1.27v15.69l0,0c0,0.85,0.57,1.27,1.27,1.27H482.44"/>
	<path class="st5" d="M494.74,151.94L494.74,151.94c0.85-0.28,1.27-0.85,1.27-1.27v-19.64l0,0c0-0.85-0.57-1.27-1.27-1.27h-2.69
		c-0.85,0-1.27,0.57-1.27,1.27v19.64l0,0c0,0.85,0.57,1.27,1.27,1.27H494.74"/>
	<path class="st5" d="M506.61,151.94L506.61,151.94c0.85,0,1.27-0.85,1.27-1.27v-23.6l0,0c0-0.85-0.57-1.27-1.27-1.27h-2.69l0,0
		c-0.85,0-1.27,0.57-1.27,1.27v23.6l0,0c0,0.85,0.57,1.27,1.27,1.27H506.61"/>
	<path class="st5" d="M519.33,151.94L519.33,151.94c0.57,0,1.13-0.85,1.27-1.27v-27.56l0,0c0-0.85-0.57-1.27-1.27-1.27h-2.69
		c-0.85,0-1.27,0.57-1.27,1.27v27.56l0,0c0,0.85,0.57,1.27,1.27,1.27H519.33"/>
	<path class="st5" d="M531.34,151.94L531.34,151.94c0.57,0,1.27-0.85,1.27-1.27v-31.66l0,0c0-0.85-0.57-1.27-1.27-1.27h-2.69l0,0
		c-0.85,0-1.27,0.57-1.27,1.27v31.66l0,0c0,0.85,0.57,1.27,1.27,1.27H531.34"/>
	<path class="st5" d="M543.49,151.94L543.49,151.94c0.85,0,1.27-0.85,1.27-1.27v-35.61l0,0c0-0.85-0.57-1.27-1.27-1.27h-2.68l0,0
		c-0.85,0-1.27,0.57-1.27,1.27v35.61l0,0c0,0.85,0.57,1.27,1.27,1.27H543.49"/>
	<path class="st5" d="M555.79,151.94L555.79,151.94c0.85,0,1.27-0.85,1.27-1.27v-39.57l0,0c0-0.85-0.57-1.27-1.27-1.27h-2.68l0,0
		c-0.85,0-1.27,0.57-1.27,1.27v39.57l0,0c0,0.85,0.57,1.27,1.27,1.27H555.79"/>
	<path class="st5" d="M567.94,151.94L567.94,151.94c0.85-0.28,1.27-0.85,1.27-1.27v-43.24l0,0c0-0.85-0.57-1.27-1.27-1.27h-2.69l0,0
		c-0.85,0-1.27,0.57-1.27,1.27v43.24l0,0c0,0.85,0.57,1.27,1.27,1.27H567.94"/>
	<path class="st5" d="M580.24,151.94L580.24,151.94c0.85,0,1.27-0.85,1.27-1.27v-39.57l0,0c0-0.85-0.57-1.27-1.27-1.27h-2.69l0,0
		c-0.85,0-1.27,0.57-1.27,1.27v39.57l0,0c0,0.85,0.57,1.27,1.27,1.27H580.24"/>
	<path class="st5" d="M592.39,151.94L592.39,151.94c0.85,0,1.27-0.85,1.27-1.27v-35.61l0,0c0-0.85-0.57-1.27-1.27-1.27h-2.69l0,0
		c-0.85,0-1.27,0.57-1.27,1.27v35.61l0,0c0,0.85,0.57,1.27,1.27,1.27H592.39"/>
	<path class="st5" d="M604.68,151.94L604.68,151.94c0.85,0,1.27-0.85,1.27-1.27v-31.66l0,0c0-0.85-0.57-1.27-1.27-1.27H602
		c-0.85,0-1.27,0.57-1.27,1.27v31.66l0,0c0,0.85,0.57,1.27,1.27,1.27H604.68"/>
	<path class="st5" d="M617.12,151.94L617.12,151.94c0.57,0,1.13-0.85,1.27-1.27v-27.56l0,0c0-0.85-0.57-1.27-1.27-1.27h-2.69l0,0
		c-0.85,0-1.27,0.57-1.27,1.27v27.56l0,0c0,0.85,0.57,1.27,1.27,1.27H617.12"/>
	<path class="st5" d="M629.27,151.94L629.27,151.94c0.57,0,1.27-0.85,1.27-1.27v-23.6l0,0c0-0.85-0.57-1.27-1.27-1.27h-2.69l0,0
		c-0.85,0-1.27,0.57-1.27,1.27v23.6l0,0c0,0.85,0.57,1.27,1.27,1.27H629.27"/>
	<path class="st5" d="M641.57,151.94L641.57,151.94c0.57,0,1.27-0.85,1.27-1.27v-19.64c0-0.85-0.57-1.27-1.27-1.27h-2.69
		c-0.85,0-1.27,0.57-1.27,1.27v19.64l0,0c0,0.85,0.57,1.27,1.27,1.27H641.57"/>
	<path class="st5" d="M653.72,151.94L653.72,151.94c0.85-0.28,1.27-0.85,1.27-1.27v-15.69l0,0c0-0.85-0.57-1.27-1.27-1.27h-2.69l0,0
		c-0.85,0-1.27,0.57-1.27,1.27v15.69l0,0c0,0.85,0.57,1.27,1.27,1.27H653.72"/>
	<path class="st5" d="M666.02,151.94L666.02,151.94c0.85,0,1.27-0.85,1.27-1.27v-12.01l0,0c0-0.85-0.57-1.27-1.27-1.27h-2.69l0,0
		c-0.85,0-1.27,0.57-1.27,1.27v12.01l0,0c0,0.85,0.57,1.27,1.27,1.27H666.02"/>
	<path class="st5" d="M678.17,151.94L678.17,151.94c0.85,0,1.27-0.85,1.27-1.27v-7.91l0,0c0-0.85-0.57-1.27-1.27-1.27h-2.69l0,0
		c-0.85,0-1.27,0.57-1.27,1.27v7.91l0,0c0,0.85,0.57,1.27,1.27,1.27H678.17"/>
	<g>
		<g>
			<g>
				<rect x="507.88" y="255.99" class="st6" width="54.63" height="54.63"/>
			</g>
			<g>
				<polygon class="st7" points="541.38,255.99 529.01,255.99 529.01,268.36 535.33,264.6 541.38,268.36 				"/>
			</g>
		</g>
		<g>
			<g>
				<rect x="565.81" y="255.99" class="st6" width="54.63" height="54.63"/>
			</g>
			<g>
				<polygon class="st7" points="599.31,255.99 586.8,255.99 586.8,268.36 593.12,264.6 599.31,268.36 				"/>
			</g>
		</g>
	</g>
	<g>
		<g>
			<g>
				<rect x="507.88" y="198" class="st6" width="54.63" height="54.63"/>
			</g>
			<g>
				<polygon class="st7" points="541.38,198 529.01,198 529.01,210.64 535.33,206.88 541.38,210.64 				"/>
			</g>
		</g>
		<g>
			<g>
				<rect x="565.81" y="198" class="st6" width="54.63" height="54.63"/>
			</g>
			<g>
				<polygon class="st7" points="599.31,198 586.8,198 586.8,210.64 593.12,206.88 599.31,210.64 				"/>
			</g>
		</g>
	</g>
	<g>
		<g>
			<g>
				<rect x="622.89" y="254.6" class="st6" width="54.63" height="54.63"/>
			</g>
			<g>
				<polygon class="st7" points="656.4,254.6 644.02,254.6 644.02,267.25 650.34,263.48 656.4,267.25 				"/>
			</g>
		</g>
		<g>
			<g>
				<rect x="622.89" y="197.81" class="st6" width="54.63" height="54.63"/>
			</g>
			<g>
				<polygon class="st7" points="656.4,197.81 643.88,197.81 643.88,210.46 650.21,206.69 656.4,210.46 				"/>
			</g>
		</g>
	</g>
</g>
<g>
	<g>
		<g>
			<g>
				<rect x="357.13" y="281.29" class="st6" width="35.24" height="35.24"/>
			</g>
			<g>
				<polygon class="st7" points="378.75,281.29 370.67,281.29 370.67,289.28 374.75,286.85 378.75,289.28 				"/>
			</g>
		</g>
	</g>
	<g>
		<g>
			<g>
				<rect x="357.13" y="243.89" class="st6" width="35.24" height="35.24"/>
			</g>
			<g>
				<polygon class="st7" points="378.75,243.89 370.67,243.89 370.67,252.05 374.75,249.62 378.75,252.05 				"/>
			</g>
		</g>
	</g>
	<g>
		<g>
			<g>
				<rect x="393.96" y="280.4" class="st6" width="35.24" height="35.24"/>
			</g>
			<g>
				<polygon class="st7" points="415.57,280.4 407.58,280.4 407.58,288.56 411.66,286.13 415.57,288.56 				"/>
			</g>
		</g>
		<g>
			<g>
				<rect x="393.96" y="243.77" class="st6" width="35.24" height="35.24"/>
			</g>
			<g>
				<polygon class="st7" points="415.57,243.77 407.5,243.77 407.5,251.93 411.57,249.5 415.57,251.93 				"/>
			</g>
		</g>
	</g>
</g>
<g>
	<g>
		<g>
			<g>
				<rect x="230.16" y="282.22" class="st6" width="40.79" height="40.79"/>
			</g>
			<g>
				<polygon class="st7" points="255.18,282.22 245.84,282.22 245.84,291.47 250.56,288.65 255.18,291.47 				"/>
			</g>
		</g>
	</g>
	<g>
		<g>
			<g>
				<rect x="230.16" y="238.92" class="st6" width="40.79" height="40.79"/>
			</g>
			<g>
				<polygon class="st7" points="255.18,238.92 245.84,238.92 245.84,248.36 250.56,245.55 255.18,248.36 				"/>
			</g>
		</g>
	</g>
	<g>
		<g>
			<g>
				<rect x="272.8" y="281.19" class="st6" width="40.79" height="40.79"/>
			</g>
			<g>
				<polygon class="st7" points="297.81,281.19 288.57,281.19 288.57,290.64 293.29,287.82 297.81,290.64 				"/>
			</g>
		</g>
		<g>
			<g>
				<rect x="272.8" y="238.78" class="st6" width="40.79" height="40.79"/>
			</g>
			<g>
				<polygon class="st7" points="297.81,238.78 288.47,238.78 288.47,248.22 293.19,245.41 297.81,248.22 				"/>
			</g>
		</g>
	</g>
</g>
<g>
	<path class="st8" d="M332.25,360.31H53.77c-1.25,0-2.5-1.02-2.5-1.93l0,0c0-1.02,1.25-1.93,2.5-1.93h278.48
		c1.25,0,2.5,1.02,2.5,1.93l0,0C334.75,359.29,333.5,360.31,332.25,360.31z"/>
	<g>
		<polygon class="st9" points="216.24,330.55 313.85,330.55 313.85,326.23 307.82,322.71 216.24,322.71 		"/>
		<polygon class="st9" points="200.68,318.62 216.24,318.62 216.24,285.67 200.68,296.46 		"/>
		<rect x="212.72" y="216.58" class="st9" width="7.61" height="58.74"/>
		<polygon class="st9" points="212.72,294.87 222.04,294.87 222.04,271.01 219.99,263.74 212.72,263.74 		"/>
		<rect x="212.04" y="294.87" class="st9" width="11.13" height="36.7"/>
		<polygon class="st9" points="181.48,275.33 182.95,267.83 168.3,250.9 164.09,254.76 		"/>
		<rect x="187.27" y="281.01" class="st9" width="15.79" height="31.59"/>
		<polygon class="st9" points="188.41,289.07 196.93,282.71 180.34,256.81 166.82,267.83 		"/>
		<rect x="50.7" y="332.36" class="st10" width="151.68" height="10.45"/>
		<path class="st9" d="M63.31,297.6c0,5,3.75,8.75,9.32,8.75l0,0h76.13c5,0,9.32-4.32,9.32-8.75l0,0c0-5-4.32-8.75-9.32-8.75H73.08
			C67.63,289.07,63.31,293.51,63.31,297.6L63.31,297.6L63.31,297.6z"/>
		<path class="st9" d="M68.31,293.51c0,1.59,1.59,3.18,3.18,3.18l0,0h78.4c1.59,0,3.18-1.14,3.18-3.18l0,0l0,0
			c0-1.59-1.59-3.18-3.18-3.18l0,0h-78.4C69.9,290.67,68.31,291.8,68.31,293.51L68.31,293.51L68.31,293.51z"/>
		<rect x="92.17" y="307.03" class="st9" width="106.92" height="16.25"/>
		<polygon class="st11" points="44.9,336.68 107.74,336.68 92.74,294.87 59.56,294.87 		"/>
		<rect x="50.24" y="321.57" class="st12" width="152.48" height="16.93"/>
		<path class="st12" d="M54.9,307.82h25.11l11.13,30.9H47.18c-0.8,0-1.59,0-1.59-0.34c-0.34-0.34-0.8-1.14-0.34-2.05v-12.73
			c0-0.34,0-0.8,0.34-1.14s0.8-0.8,1.59-0.34h3.18L54.9,307.82z"/>
		<path class="st11" d="M81.04,318.62c11.93,0,21.59,9.66,21.59,21.25H59.45C59.56,327.71,69.11,318.62,81.04,318.62L81.04,318.62z"
			/>
		<path class="st13" d="M62.74,340.89c0,10,8.52,18.07,18.52,18.07s18.52-8.18,18.52-18.07c0-10-8.52-18.07-18.52-18.07l0,0
			C71.15,322.71,62.74,330.89,62.74,340.89z"/>
		<path class="st14" d="M71.49,340.89c0,5,4.32,9.32,9.66,9.32c5.23,0,9.66-4.32,9.66-9.32c0-5-4.32-9.32-9.66-9.32
			S71.49,335.89,71.49,340.89z"/>
		<path class="st11" d="M205.45,335.89h-25.91c0-13.52,11.59-25.11,25.91-25.11l0,0h0.34v25.11H205.45z"/>
		<path class="st13" d="M182.61,337.48c0,11.93,10,21.59,21.93,21.59c12.27,0,21.93-9.66,21.93-21.59c0-11.93-10-21.59-21.93-21.59
			l0,0C193.07,316.23,182.61,325.89,182.61,337.48z"/>
		<path class="st14" d="M193.75,337.48c0,6.14,5,10.79,11.13,10.79c5.79,0,11.13-5,11.13-10.79s-5-10.79-11.13-10.79l0,0
			C198.97,326.57,193.75,331.68,193.75,337.48z"/>
		<path class="st15" d="M101.6,234.76c3.75,0.34,6.93,3.52,6.93,6.93c-0.34,3.75-3.18,6.14-6.93,6.48h-0.34l7.39,10.79l3.18,21.93
			h26.93c2.39,0,4.32,2.05,3.75,4.32c0,2.05-1.59,3.75-3.75,3.75h-35.11c-2.39,0-3.75-2.05-3.75-4.32c0,0,0,0,0-0.34l-0.34,0.34
			l-4.32-37.04l0,0v-13.52L101.6,234.76L101.6,234.76z"/>
		<path class="st9" d="M213.52,214.65h11.13c0.8,0,1.59,0.8,1.59,1.14v1.14c0,0.8-0.8,1.14-1.59,1.14h-11.13
			c-0.8,0-1.59-0.8-1.59-1.14v-1.14C212.04,215.45,212.72,214.65,213.52,214.65z"/>
		<polygon class="st16" points="212.72,222.83 219.99,220.79 219.99,218.52 212.72,218.52 		"/>
		<rect x="214.2" y="281.58" class="st17" width="5" height="13.52"/>
		<g>
			<g>
				<g>
					<g>
						<g>
							<g>
								<g>
									<g>
										<g>
											<defs>
												<rect id="SVGID_7_" x="214.2" y="281.58" width="5" height="13.52"/>
											</defs>
											<clipPath id="SVGID_8_">
												<use xlink:href="#SVGID_7_"  style="overflow:visible;"/>
											</clipPath>
											<g class="st18">
												<polygon class="st19" points="213.18,293.85 221.7,289.07 222.83,291.12 214.2,295.78 												"/>
												<polygon class="st19" points="213.18,284.98 220.45,281.01 221.7,282.71 213.86,286.92 												"/>
												<polygon class="st19" points="212.72,289.53 220.45,285.33 221.7,287.37 213.86,291.46 												"/>
											</g>
										</g>
									</g>
								</g>
							</g>
						</g>
					</g>
				</g>
			</g>
		</g>
		<path class="st9" d="M107.06,203.06c0.8-0.8,1.59-0.8,2.61-0.8l58.74,0.34c0.8,0,1.59,0.34,2.39,0.8c0.34,0.34,0.8,1.14,0.8,2.05
			l32.04,79.88v23.07h-4.66v-22.72l-31.59-77.6h-56.7l-16.93,32.72l0.34,51.36h-5l-0.34-51.02c0-0.34,0-0.8,0-1.59
			c0-0.34,0.34-0.8,0.8-1.14l16.25-32.38C106.15,204.65,106.49,203.86,107.06,203.06z"/>
		<path class="st9" d="M165.68,202.27l1.59,5.57l5.57-0.34c-0.34-2.61-0.8-5-3.75-5.57h-3.18L165.68,202.27L165.68,202.27z"/>
		<path class="st15" d="M168.64,205.68L168.64,205.68c-0.34,0-0.8-0.34-0.8-0.8l0,0c0-0.34,0.34-0.8,0.8-0.8l0,0
			c0.34,0,0.8,0.34,0.8,0.8l0,0C169.43,205.45,169.21,205.68,168.64,205.68z"/>
		<path class="st9" d="M111.71,202.27l-1.59,5.57l-5.57-0.34c0.34-2.61,0.8-5,3.75-5.57h3.18L111.71,202.27L111.71,202.27z"/>
		<path class="st15" d="M108.87,204.31L108.87,204.31c0.34,0,0.8,0.34,0.8,0.8l0,0c0,0.34-0.34,0.8-0.8,0.8l0,0
			c-0.34,0-0.8-0.34-0.8-0.8l0,0C108.19,204.31,108.53,204.31,108.87,204.31z"/>
		<polygon class="st9" points="175.34,227.38 176.14,229.76 171.82,231.36 177.16,243.97 181.48,242.15 182.39,243.97 
			174.43,247.15 167.5,230.56 		"/>
		<path class="st20" d="M150.57,308.96l-0.8,3.75c0,0.34,0.34,0.8,0.8,1.14l0,0l16.93,3.18l0.34-0.8c0.34-0.8-0.34-1.59-0.8-2.05
			l-10.45-5.79L150.57,308.96z"/>
		<path class="st21" d="M159.89,275.33l1.59,0.8c2.39,1.14,3.52,3.75,3.18,6.14l-3.75,27.72h-10.79l2.39-23.86l-8.52-3.75
			L159.89,275.33z"/>
		<path class="st20" d="M172.16,310.09l2.39,3.18c0.34,0.34,0.8,0.34,1.59,0.34l0,0l13.98-10l-0.8-1.02c-0.34-0.8-1.59-0.8-2.39-0.8
			l-11.59,3.18L172.16,310.09z"/>
		<path class="st22" d="M119.67,273.39l3.52,11.13h30.11l15.11,26.59h3.52l4.32-6.14l-13.18-28.63c-0.8-2.05-3.18-3.18-5-3.18h-38.4
			L119.67,273.39L119.67,273.39z"/>
		<path class="st23" d="M157.5,262.83c-0.34,0.34-0.34,0.34-0.34,0.8c0,0.57,0.34,0.34,0.34,0.8c0.34,0.34,0.34,0.8,0.8,0.8
			c-0.34,0-0.34,0-0.8,0c-1.59,0.34-3.52,0.34-5,1.14l0.8-5l5.57-1.14l0,0l0,0C158.3,261.46,157.84,262.26,157.5,262.83z"/>
		<path class="st24" d="M168.3,261.81c-0.34,0.34-0.8,0.8-1.59,1.14c-1.59,1.14-3.75,2.05-6.14,2.05l0,0h-0.34c-0.34,0-0.8,0-1.59,0
			c-0.34,0-0.34,0-0.8,0l0,0c-0.34,0-0.8-0.34-0.8-0.8c0-0.57-0.34-0.34-0.34-0.8c0-0.34,0-0.34,0.34-0.8
			c0.34-0.34,0.8-1.14,1.59-2.61l0,0l0,0c0.34-0.34,0.34-0.34,0.34-0.8l0,0c0-0.34,0.34-0.34,0.34-0.34l0,0
			c0.8-0.8,1.59-2.05,1.59-2.05c0.34-0.34,0.34-0.34,0.8-0.34c0.34,0,0.34,0.34,0.34,0.34l0,0c0,0.34,0,2.05,0,2.05
			c0,0.34,0.34,0.34,0.34,0.34s0.8,0,1.59,0.34c0.8,0,1.59,0.34,2.39,0.34l0,0c0.34,0,0.8,0.34,1.59,0.34l0,0
			C168.64,260.56,168.64,261.01,168.3,261.81C168.64,261.46,168.3,261.81,168.3,261.81z"/>
		<path class="st25" d="M150.23,260.21l5-0.34l0.8,6.48c0,0.34-0.34,0.8-0.8,0.8l0,0l-4.32,0.34"/>
		<polyline class="st25" points="137.39,261.46 150.57,260.21 151.37,267.6 138.19,268.74 		"/>
		<path class="st24" d="M141.26,232.83c0,0.8,0.34,1.14,0.34,2.05c0,0.34,0,0.34,0,0.8c-0.34,3.18-2.39,3.18-5,3.75l-0.8,4.32
			l-0.34,0.8l0,0h-0.23l-7.61-6.14v-0.8l0,0l0.34-2.61v-0.34l-0.34-3.75l2.39-4.32l5.79-4.32c0,0,0-1.14,2.39-0.34
			c0.34,0.34,0.8,0.34,1.59,0.8c0.8,1.14,1.59,3.18,2.39,4.66l2.39,4.32L141.26,232.83z"/>
		<path class="st20" d="M139.1,228.97h-0.34c-0.34,0-0.34,0-0.34-0.34l0,0v-0.34c0-0.34,0-0.34,0.34-0.34h0.34
			c0.34,0,0.34,0,0.34,0.34L139.1,228.97L139.1,228.97L139.1,228.97L139.1,228.97z"/>
		<polygon class="st24" points="127.05,237.49 135.12,243.29 136.26,245.67 126.26,238.97 		"/>
		<path class="st17" d="M137.39,278.39l2.39-10.79l-0.34-14.54c0-2.05-0.34-3.75-1.59-5.57l-0.8-1.59l-10.45-6.48l-5.57,6.48
			c-0.8,1.14-1.59,3.18-1.59,4.66v34.43L137.39,278.39z"/>
		<path class="st20" d="M124.33,226.13c-0.34-0.8,0-1.59,0.8-2.05h0.34c0-0.8,0.8-1.59,2.61-1.59c0.8-0.8,2.39-1.14,3.52-0.8
			c0.8-0.8,2.39-0.8,3.52-0.34c0.8-0.34,2.39,0,2.61,1.14c0,0.34,0.34,0.8,0.34,0.8h-0.34c-1.59,0.34-0.34,3.18-3.75,3.75l0.8,5
			c0.34,0.8,1.59,2.05,2.39,1.59l0,0c1.59-0.34,3.75-0.8,3.75-0.8s0.34,1.14-0.34,1.59c0.34,0.34,0.8,0.8,0.8,2.05
			c0.34,1.14-0.8,1.59-3.75,2.05c-3.75,0.34-4.32-0.34-4.66-3.52c-0.34-0.8-0.8-4.32-0.8-5.57c-0.34-0.8-0.34-1.59-2.39-1.14
			c-1.59,0.34-1.59,0.8-1.59,1.59l0.34,1.14l-3.18,0.8c-0.8-0.34-0.8-0.8-0.8-1.59c0,0,0-0.34,0.34-0.34
			c-0.8-0.34-1.59-1.59-0.8-2.39l0,0C123.98,228.17,123.98,226.58,124.33,226.13L124.33,226.13z"/>
		<path class="st0" d="M141.26,235.56l-2.05,0.34c0,0,0-0.8,1.59-1.14L141.26,235.56z"/>
		<polygon class="st26" points="123.08,227.83 122.51,228.97 122.51,228.97 123.08,228.17 		"/>
		<path class="st5" d="M122.85,230.56l-0.34-1.59l2.61-1.14c0.34,0,0.34-0.34,0.34-0.34l1.59-3.18l1.59,0.8l-1.59,3.18
			c-0.34,0.8-0.8,1.14-1.59,1.14L122.85,230.56z"/>
		<path class="st0" d="M142.39,221.7l-20.45,6.48l0.34-1.14c-1.59-5-0.34-7.61,3.18-10c0.34-0.34,1.59-0.8,2.39-0.8l1.59-0.34
			c0.8-0.34,1.59-0.34,2.39-0.34c3.18-0.34,6.48,1.59,7.39,4.66c0.8,0.34,2.39,0.8,3.18,1.14
			C142.39,220.79,142.39,221.24,142.39,221.7L142.39,221.7z"/>
		<path class="st5" d="M139.1,219.65l-3.18,3.18l0,0l4.32-2.61C139.78,219.99,139.78,219.99,139.1,219.65z"/>
		<polygon class="st5" points="127.85,226.13 134.44,223.97 131.6,220.56 127.51,221.7 		"/>
		<polygon class="st15" points="127.51,221.7 126.26,226.58 127.85,226.13 		"/>
		<path class="st9" d="M161.37,264.87c0.34,0.34,1.59,0.8,2.39,0l11.59-10c0.34-0.34,0.8-1.14,0.34-2.05l0,0l0,0
			c-0.34-0.34-1.59-0.8-2.39,0l-11.59,10C161.03,263.74,160.68,264.42,161.37,264.87L161.37,264.87L161.37,264.87z"/>
		<path class="st22" d="M164.09,238.29l1.59,4.66l-15.11,12.27c-0.8,0.34-1.59,0.34-2.39,0.34l-18.52-1.14h-0.8
			c-2.61,0-4.66-2.05-4.66-5v-0.34v-0.34c0.34-2.05,2.39-3.52,4.32-3.52c0.8,0,1.59,0,2.39,0l17.72,2.05L164.09,238.29z"/>
		<polygon class="st0" points="139.44,262.83 119.33,262.83 119.33,259.42 139.44,259.42 		"/>
		<polygon class="st0" points="139.44,268.4 119.33,268.74 119.33,265.21 139.44,265.21 139.44,267.26 		"/>
		<path class="st24" d="M164.09,238.29l3.75-2.61h5.57c0.34,0,0.8,0.34,0.8,0.8l0.8,2.05c0.34,0.34,0,0.8-0.34,1.14l-3.75,3.18
			l-5,0.34"/>
	</g>
</g>
<g>
	<g>
		<g>
			<g>
				<rect x="588.35" y="339.55" class="st6" width="52.85" height="52.85"/>
			</g>
			<g>
				<polygon class="st7" points="620.76,339.55 608.66,339.55 608.66,351.79 614.78,348.14 620.76,351.79 				"/>
			</g>
		</g>
	</g>
	<g>
		<g>
			<g>
				<rect x="643.58" y="339.37" class="st6" width="52.85" height="52.85"/>
			</g>
			<g>
				<polygon class="st7" points="675.99,339.37 663.88,339.37 663.88,351.61 670,347.96 675.99,351.61 				"/>
			</g>
		</g>
	</g>
</g>
<g>
	<path class="st27" d="M472.64,286.39l2.81,15.2c0.33,1.76-0.29,3.56-1.62,4.75l-12.35,11.05c-0.1,0.09-0.21,0.14-0.34,0.15
		l-3.33,0.35l-1.5-1.68v-1.02c0-0.14,0.05-0.28,0.14-0.39l10.8-12.81l-4.09-11.42l-1.83-4.61L472.64,286.39z"/>
	<path class="st28" d="M461.33,283.33l1.83,7.24l2.1,13.73l0.16,17.78c0,0.16,0.06,0.31,0.17,0.42l2.14,2.16l1.73-0.07l2.17-2.34
		c0.1-0.1,0.15-0.24,0.16-0.38l0.94-18.02l0.28-20.23L461.33,283.33z"/>
	<path class="st28" d="M460.5,281.51l-0.09,4.92c0,1.26,0.32,2.51,0.92,3.62l2.42,4.43h8.93"/>
	<path class="st27" d="M467.29,324.2v2.43c0,0.33,0.27,0.6,0.6,0.6h11.15v-0.65c0-0.56-0.35-1.07-0.87-1.27l-6.94-2.65L467.29,324.2
		z"/>
	<path class="st27" d="M456.31,316.2l-1.58,1.85c-0.22,0.25-0.19,0.63,0.07,0.85l8.47,7.24l0.43-0.49c0.37-0.43,0.44-1.05,0.17-1.55
		l-3.57-6.51L456.31,316.2z"/>
	<path class="st27" d="M476.95,286.92l5.33-1.74c0.19-0.06,0.29-0.26,0.23-0.44l-0.5-1.54c-0.06-0.18-0.26-0.29-0.44-0.23
		l-5.33,1.74c-0.19,0.06-0.29,0.26-0.22,0.44l0.5,1.54C476.56,286.88,476.76,286.98,476.95,286.92z"/>
	
		<rect x="500.89" y="303.41" transform="matrix(0.9506 -0.3103 0.3103 0.9506 -71.504 173.2865)" class="st29" width="15.91" height="15.91"/>
	
		<rect x="496.82" y="293.75" transform="matrix(-0.9506 0.3104 -0.3104 -0.9506 1072.8046 427.878)" class="st30" width="11.08" height="11.08"/>
	<polygon class="st31" points="505.76,307.9 507.16,306.26 509.25,306.76 508.11,303.26 504.61,304.4 	"/>
	
		<rect x="482.15" y="282.44" transform="matrix(-0.9506 0.3105 -0.3105 -0.9506 1032.4613 402.2774)" class="st32" width="4.12" height="1.78"/>
	
		<rect x="495.82" y="314.41" transform="matrix(-0.9057 -0.4239 0.4239 -0.9057 829.0618 814.6801)" class="st32" width="18.62" height="1.44"/>
	<path class="st32" d="M522.06,315.39l0.22,0.67c0.2,0.61-0.13,1.27-0.75,1.47l-20.71,6.76c-0.61,0.2-1.27-0.13-1.47-0.75
		l-0.22-0.67L522.06,315.39z"/>
	<path class="st32" d="M499.2,322.55l1.7-0.55l-12.77-39.04c-0.3-0.92-1.29-1.42-2.21-1.12l-0.03,0.01L499.2,322.55z"/>
	<g>
		<path class="st27" d="M496.82,324.62c0.65,1.99,2.79,3.08,4.78,2.43c1.99-0.65,3.08-2.79,2.43-4.78
			c-0.65-1.99-2.79-3.08-4.78-2.43C497.26,320.48,496.17,322.62,496.82,324.62L496.82,324.62z"/>
		<path class="st33" d="M498.4,324.1c0.37,1.12,1.57,1.74,2.7,1.37c1.12-0.37,1.74-1.57,1.37-2.7c-0.37-1.12-1.57-1.74-2.7-1.37
			C498.64,321.77,498.03,322.98,498.4,324.1L498.4,324.1z"/>
	</g>
	<path class="st27" d="M480.39,283.35l0.72,2.21l1.17-0.38c0.18-0.06,0.28-0.26,0.22-0.44l-0.5-1.54c-0.06-0.18-0.26-0.29-0.44-0.23
		L480.39,283.35z"/>
	<path class="st34" d="M467.41,244.18l-0.15,1.84l2.98-0.33c0,0,0.17-0.77,0.07-1.04c-0.1-0.27-0.47-1.18-0.68-1.17
		C469.42,243.51,467.41,244.18,467.41,244.18z"/>
	<path class="st35" d="M476.37,244.36c-1.3-0.87-1.47-0.24-1.47-0.24l-4.37,2.06l-1.96,2.47l-0.65,2.26l-1.44,3.38l5.26,4.68
		l1.7-3.98l4.19-2.92v-0.27l1.07-0.42l-0.67-2.51C478.04,246.05,477.67,245.23,476.37,244.36"/>
	<path class="st27" d="M477.65,254.74c-0.05,0.99-0.68,1.16-2.85,1.15c-2.61-0.01-2.81-0.69-2.79-2.81
		c0.01-0.67-0.03-3.66-0.05-4.21c-0.02-0.61-0.03-1.12-1.14-1.09c-0.86,0.02-1.1,0.35-1.11,1.07c0,0.05,0,0.99,0,1.04
		c0,0.55-0.49,2.03-1.55,1.6c-0.66-0.76-0.96-1.45-0.96-4.57v-0.01c0-0.54,0.07-1.02,0.19-1.44c0.2-0.67,0.56-1.18,1.05-1.57
		c0.95-0.74,2.39-1.01,4.17-1.01c3.32,0,4.18,0.69,4.58,2.16c0,0-1.49-0.01-2.38-0.01c-0.42,0-0.79,0.13-1.04,0.42
		c-0.21,0.24-0.33,0.59-0.33,1.07v4.14c0,0.79,0.62,1.39,1.39,1.39c1.23,0,2.8,0.01,2.8,0.01s0.1,0.93-0.3,1.16
		C477.64,253.59,477.69,253.84,477.65,254.74z"/>
	<path class="st27" d="M476.73,249.08h-0.29c-0.11,0-0.2-0.09-0.2-0.2v-0.29c0-0.11,0.09-0.2,0.2-0.2h0.29c0.11,0,0.2,0.09,0.2,0.2
		v0.29C476.93,248.99,476.84,249.08,476.73,249.08"/>
	<path class="st36" d="M466.51,254.22l5.67,4.63c0.25,0.2,0.42,0.48,0.51,0.79l0.7,2.67l-7.34-7.02L466.51,254.22z"/>
	<path class="st27" d="M474.5,266.8l-0.64,18.14l-13.4-1.06l0.06-3.28l0.1-4.82l0.1-2.43l0.09-6.43l0-0.21l0.08-3.69
		c0.03-1.18,0.46-2.32,1.23-3.22l3.93-4.58l5.87,5.07C473.79,261.93,474.75,264.35,474.5,266.8z"/>
	<path class="st35" d="M477.93,281.2l2.31,1.46l1.16,2.87c0.1,0.25,0.03,0.53-0.16,0.71l-0.91,0.83c-0.2,0.18-0.49,0.22-0.73,0.09
		l-2.55-1.35l-1.21-2.65"/>
	<path class="st35" d="M477.93,281.2l-2.1,1.96l-10.31-4.7c-0.42-0.29-0.74-0.7-0.91-1.18l-2.88-8.01l5.01-1.71l2.5,7.52
		L477.93,281.2z"/>
	<path class="st37" d="M468.6,246.27v-1.25c0-0.1-0.02-0.19-0.05-0.27c-0.12-0.33-0.44-0.55-0.8-0.55h-0.35
		c0.06-0.42,0.13-0.79,0.22-1.03c0.25-0.72,0.76-1.24,1.52-1.58c0.76-0.33,1.93-0.5,3.5-0.5c1.57,0,2.74,0.17,3.5,0.5
		c0.76,0.34,1.26,0.85,1.5,1.56c0.21,0.61,0.33,2.01,0.35,3.12H468.6z"/>
	<path class="st37" d="M481.59,246.26l-3.81,0v-1.08c1.7,0,2.84,0,2.98,0C481.37,245.18,481.59,245.71,481.59,246.26z"/>
	<polygon class="st34" points="467.23,246.25 468.6,246.27 468.6,245.26 467.32,245.26 	"/>
</g>
</svg>
