<svg width="120" height="120" viewBox="0 0 120 120" fill="none" xmlns="http://www.w3.org/2000/svg">
<g clip-path="url(#clip0_413_4226)">
<rect width="120" height="120" fill="white"/>
<rect width="120" height="120" fill="#FFA201" fill-opacity="0.2"/>
<path d="M123.004 20.0678L114.124 11L112 13.0797L120.881 22.1475L123.004 20.0678Z" fill="white"/>
<path d="M123.004 20.0678L114.124 11L112 13.0797L120.881 22.1475L123.004 20.0678Z" fill="#FFA201" fill-opacity="0.3"/>
<path d="M57.0042 7.06782L48.1235 -2L46 0.079689L54.8806 9.14751L57.0042 7.06782Z" fill="white"/>
<path d="M57.0042 7.06782L48.1235 -2L46 0.079689L54.8806 9.14751L57.0042 7.06782Z" fill="#FFA201" fill-opacity="0.3"/>
<path d="M4.521 113.049L15.4255 106.553L13.9045 104L3 110.495L4.521 113.049Z" fill="white"/>
<path d="M4.521 113.049L15.4255 106.553L13.9045 104L3 110.495L4.521 113.049Z" fill="#FFA201" fill-opacity="0.3"/>
<path d="M67.4768 107L56 112.42L57.2692 115.108L68.746 109.688L67.4768 107Z" fill="white"/>
<path d="M67.4768 107L56 112.42L57.2692 115.108L68.746 109.688L67.4768 107Z" fill="#963700" fill-opacity="0.8"/>
<path d="M97.1657 30L91 32.9116L92.2691 35.5991L98.4348 32.6875L97.1657 30Z" fill="white"/>
<path d="M97.1657 30L91 32.9116L92.2691 35.5991L98.4348 32.6875L97.1657 30Z" fill="#963700" fill-opacity="0.8"/>
<path d="M122.181 94.2589L116.856 90L115 92.321L120.325 96.58L122.181 94.2589Z" fill="white"/>
<path d="M122.181 94.2589L116.856 90L115 92.321L120.325 96.58L122.181 94.2589Z" fill="#963700" fill-opacity="0.6"/>
<path d="M95.1814 12.2589L89.8564 8L88.0001 10.3211L93.325 14.58L95.1814 12.2589Z" fill="white"/>
<path d="M95.1814 12.2589L89.8564 8L88.0001 10.3211L93.325 14.58L95.1814 12.2589Z" fill="#963700" fill-opacity="0.6"/>
<path d="M30.7157 8L24 9.18042L24.5145 12.1076L31.2302 10.9272L30.7157 8Z" fill="white"/>
<path d="M30.7157 8L24 9.18042L24.5145 12.1076L31.2302 10.9272L30.7157 8Z" fill="#963700" fill-opacity="0.6"/>
<path d="M38.6986 84L32 85.2743L32.5555 88.1941L39.254 86.9198L38.6986 84Z" fill="white"/>
<path d="M38.6986 84L32 85.2743L32.5555 88.1941L39.254 86.9198L38.6986 84Z" fill="#FFA201" fill-opacity="0.3"/>
<path d="M110.699 43L104 44.2743L104.555 47.1941L111.254 45.9198L110.699 43Z" fill="white"/>
<path d="M110.699 43L104 44.2743L104.555 47.1941L111.254 45.9198L110.699 43Z" fill="#FFA201" fill-opacity="0.3"/>
<path d="M4.69857 37L-2 38.2743L-1.44453 41.1941L5.25404 39.9198L4.69857 37Z" fill="white"/>
<path d="M4.69857 37L-2 38.2743L-1.44453 41.1941L5.25404 39.9198L4.69857 37Z" fill="#FFA201" fill-opacity="0.3"/>
<path d="M13.6097 80L-2 82.9694L-1.44455 85.8893L14.1651 82.9199L13.6097 80Z" fill="white"/>
<path d="M13.6097 80L-2 82.9694L-1.44455 85.8893L14.1651 82.9199L13.6097 80Z" fill="#F07508" fill-opacity="0.5"/>
<path d="M36.152 111.337L30.8901 107L28.9999 109.294L34.2618 113.63L36.152 111.337Z" fill="white"/>
<path d="M36.152 111.337L30.8901 107L28.9999 109.294L34.2618 113.63L36.152 111.337Z" fill="#F07508" fill-opacity="0.5"/>
<path d="M6.01983 6L-16 16.3991L-15.0187 18.4769L7.00109 8.07779L6.01983 6Z" fill="white"/>
<path d="M6.01983 6L-16 16.3991L-15.0187 18.4769L7.00109 8.07779L6.01983 6Z" fill="#963700" fill-opacity="0.8"/>
<path d="M111.183 69.8967C111.124 70.4075 110.915 70.8895 110.582 71.2816C110.25 71.6737 109.808 71.9584 109.314 72.0996C108.819 72.2408 108.294 72.2323 107.805 72.075C107.315 71.9177 106.883 71.6188 106.564 71.2161C106.244 70.8134 106.051 70.3249 106.009 69.8124C105.967 69.3 106.078 68.7865 106.327 68.3371C106.577 67.8876 106.954 67.5223 107.412 67.2873C107.869 67.0524 108.386 66.9583 108.897 67.017C109.582 67.0958 110.207 67.4435 110.636 67.9835C111.065 68.5235 111.261 69.2117 111.183 69.8967Z" fill="white"/>
<path d="M111.183 69.8967C111.124 70.4075 110.915 70.8895 110.582 71.2816C110.25 71.6737 109.808 71.9584 109.314 72.0996C108.819 72.2408 108.294 72.2323 107.805 72.075C107.315 71.9177 106.883 71.6188 106.564 71.2161C106.244 70.8134 106.051 70.3249 106.009 69.8124C105.967 69.3 106.078 68.7865 106.327 68.3371C106.577 67.8876 106.954 67.5223 107.412 67.2873C107.869 67.0524 108.386 66.9583 108.897 67.017C109.582 67.0958 110.207 67.4435 110.636 67.9835C111.065 68.5235 111.261 69.2117 111.183 69.8967Z" fill="#F07508" fill-opacity="0.5"/>
<path d="M62.2853 25.3956C62.2367 25.8179 62.0639 26.2164 61.7888 26.5406C61.5138 26.8648 61.1487 27.1001 60.7399 27.2168C60.331 27.3336 59.8968 27.3264 59.492 27.1963C59.0872 27.0662 58.7301 26.819 58.4658 26.486C58.2015 26.1529 58.0419 25.749 58.0072 25.3252C57.9725 24.9015 58.0642 24.477 58.2707 24.1053C58.4773 23.7337 58.7894 23.4317 59.1676 23.2374C59.5459 23.0432 59.9732 22.9655 60.3955 23.0141C60.676 23.0464 60.9474 23.1336 61.1941 23.2707C61.4409 23.4079 61.6582 23.5923 61.8337 23.8134C62.0092 24.0345 62.1394 24.2881 62.2169 24.5596C62.2944 24.831 62.3176 25.1151 62.2853 25.3956Z" fill="white"/>
<path d="M62.2853 25.3956C62.2367 25.8179 62.0639 26.2164 61.7888 26.5406C61.5138 26.8648 61.1487 27.1001 60.7399 27.2168C60.331 27.3336 59.8968 27.3264 59.492 27.1963C59.0872 27.0662 58.7301 26.819 58.4658 26.486C58.2015 26.1529 58.0419 25.749 58.0072 25.3252C57.9725 24.9015 58.0642 24.477 58.2707 24.1053C58.4773 23.7337 58.7894 23.4317 59.1676 23.2374C59.5459 23.0432 59.9732 22.9655 60.3955 23.0141C60.676 23.0464 60.9474 23.1336 61.1941 23.2707C61.4409 23.4079 61.6582 23.5923 61.8337 23.8134C62.0092 24.0345 62.1394 24.2881 62.2169 24.5596C62.2944 24.831 62.3176 25.1151 62.2853 25.3956Z" fill="#FFA201" fill-opacity="0.3"/>
<path d="M27.3374 70.4243C27.2883 70.8518 27.1135 71.2552 26.8351 71.5834C26.5567 71.9115 26.1872 72.1498 25.7734 72.268C25.3596 72.3862 24.9201 72.379 24.5103 72.2474C24.1006 72.1158 23.7391 71.8656 23.4716 71.5285C23.204 71.1914 23.0424 70.7826 23.0073 70.3536C22.9721 69.9247 23.0649 69.495 23.274 69.1189C23.483 68.7427 23.7989 68.437 24.1818 68.2404C24.5646 68.0437 24.9971 67.9651 25.4246 68.0143C25.9979 68.0802 26.5214 68.3712 26.8801 68.8231C27.2389 69.2751 27.4033 69.851 27.3374 70.4243Z" fill="white"/>
<path d="M27.3374 70.4243C27.2883 70.8518 27.1135 71.2552 26.8351 71.5834C26.5567 71.9115 26.1872 72.1498 25.7734 72.268C25.3596 72.3862 24.9201 72.379 24.5103 72.2474C24.1006 72.1158 23.7391 71.8656 23.4716 71.5285C23.204 71.1914 23.0424 70.7826 23.0073 70.3536C22.9721 69.9247 23.0649 69.495 23.274 69.1189C23.483 68.7427 23.7989 68.437 24.1818 68.2404C24.5646 68.0437 24.9971 67.9651 25.4246 68.0143C25.9979 68.0802 26.5214 68.3712 26.8801 68.8231C27.2389 69.2751 27.4033 69.851 27.3374 70.4243Z" fill="#963700" fill-opacity="0.6"/>
<path d="M132.546 171.922C131.021 168.288 99.4328 97.4106 91.3926 80.8943C91.1741 80.4459 90.8658 80.0471 90.4869 79.7226C90.1081 79.3981 89.6666 79.1549 89.1899 79.0079C88.7133 78.8608 88.2115 78.8132 87.7157 78.8679C87.2198 78.9227 86.7405 79.0786 86.3074 79.326L71.9372 87.4869C71.4937 87.7388 71.1078 88.0808 70.8044 88.4908C70.501 88.9008 70.2868 89.3698 70.1756 89.8676C70.0644 90.3654 70.0586 90.8809 70.1586 91.3811C70.2587 91.8812 70.4623 92.3549 70.7564 92.7716L129.925 173.951L132.546 171.922Z" fill="#FA6A55"/>
<mask id="mask0_413_4226" style="mask-type:alpha" maskUnits="userSpaceOnUse" x="70" y="78" width="63" height="96">
<path d="M132.546 171.922C131.021 168.288 99.4328 97.4106 91.3926 80.8943C91.1741 80.4459 90.8658 80.0471 90.4869 79.7226C90.1081 79.3981 89.6666 79.1549 89.1899 79.0079C88.7133 78.8608 88.2115 78.8132 87.7157 78.8679C87.2198 78.9227 86.7405 79.0786 86.3074 79.326L71.9372 87.4869C71.4937 87.7388 71.1078 88.0808 70.8044 88.4908C70.501 88.9008 70.2868 89.3698 70.1756 89.8676C70.0644 90.3654 70.0586 90.8809 70.1586 91.3811C70.2587 91.8812 70.4623 92.3549 70.7564 92.7716L129.925 173.951L132.546 171.922Z" fill="#FA6A55"/>
</mask>
<g mask="url(#mask0_413_4226)">
<path d="M62.3368 93.0369L126.72 93.0369V86.7781L62.3368 86.7781V93.0369Z" fill="#FFC767"/>
<path d="M62.3368 118.259L126.72 118.259V112L62.3368 112V118.259Z" fill="#FFC767"/>
<path d="M62.3368 105.613L126.72 105.613V99.3539L62.3368 99.3539V105.613Z" fill="#FFC767"/>
</g>
<path d="M12.4684 49.6902C12.5072 49.6056 12.5459 49.521 12.6306 49.5597C12.6544 49.5468 12.6809 49.5395 12.7079 49.5386C12.735 49.5377 12.7619 49.5431 12.7866 49.5544C12.8112 49.5656 12.8329 49.5825 12.8499 49.6036C12.8669 49.6247 12.8787 49.6495 12.8845 49.676L13.8898 51.0577L15.6774 50.9548L15.9313 51.0711C15.9595 51.1371 15.962 51.2113 15.9384 51.2791L14.987 52.6862L15.5834 54.2902C15.6003 54.3383 15.6062 54.3895 15.6007 54.4401C15.5952 54.4908 15.5785 54.5395 15.5518 54.5829C15.5287 54.6254 15.491 54.6582 15.4456 54.675C15.4002 54.6919 15.3503 54.6918 15.305 54.6746L13.5807 54.1922L12.2449 55.321C12.2061 55.4056 12.1215 55.3669 12.0369 55.3281C11.9767 55.2898 11.9309 55.2329 11.9063 55.166L11.8881 53.4172L10.4809 52.4657C10.4384 52.4427 10.4056 52.4049 10.3888 52.3596C10.3719 52.3142 10.372 52.2643 10.3892 52.219C10.4045 52.1704 10.4305 52.1259 10.4653 52.0887C10.5 52.0515 10.5427 52.0225 10.59 52.0038L12.2787 51.4461L12.4684 49.6902Z" fill="#B2CC02"/>
<path d="M57.9686 87.8262C57.8452 87.8721 57.8452 87.8721 57.7606 87.8333L56.3534 86.8819L54.7106 87.563C54.6719 87.6476 54.5873 87.6089 54.5026 87.5701L54.418 87.5314C54.3755 87.5083 54.3427 87.4705 54.3259 87.4252C54.309 87.3798 54.3091 87.3299 54.3262 87.2846L54.7699 85.6449L53.6411 84.3091C53.5565 84.2703 53.5953 84.1857 53.634 84.1011C53.6723 84.041 53.7293 83.9951 53.7961 83.9705L55.6224 83.783L56.528 82.2525C56.5511 82.2099 56.5888 82.1772 56.6342 82.1603C56.6795 82.1435 56.7295 82.1436 56.7748 82.1607C56.8233 82.1761 56.8678 82.2021 56.9051 82.2368C56.9423 82.2716 56.9713 82.3142 56.9899 82.3616L57.5476 84.0503L59.1873 84.4939C59.2719 84.5326 59.3565 84.5714 59.3178 84.656C59.3307 84.6798 59.3379 84.7063 59.3389 84.7334C59.3398 84.7605 59.3344 84.7874 59.3231 84.812C59.3119 84.8367 59.295 84.8584 59.2739 84.8753C59.2528 84.8923 59.228 84.9042 59.2015 84.9099L57.8657 86.0387L58.0073 87.7416C58.092 87.7803 58.0532 87.8649 57.9686 87.8262Z" fill="#B2CC02"/>
<path d="M55.9533 41.8592L55.8869 43.5693L55.7707 43.8232C55.7226 43.84 55.6714 43.8459 55.6207 43.8405C55.5701 43.835 55.5213 43.8183 55.478 43.7916L54.1484 42.6708L52.4985 43.1439C52.4318 43.169 52.3587 43.1715 52.2905 43.151L52.2058 43.1123C52.1212 43.0736 52.1599 42.9889 52.1987 42.9043L52.8504 41.2575L51.8837 39.7911C51.8379 39.6677 51.8379 39.6677 51.8766 39.5831C51.9154 39.4985 51.9929 39.3292 52.0775 39.368L53.8722 39.4731L54.9929 38.1434C55.016 38.1009 55.0537 38.0681 55.0991 38.0513C55.1444 38.0344 55.1944 38.0345 55.2397 38.0517C55.3243 38.0904 55.4089 38.1292 55.3702 38.2138L55.8045 39.9483L57.4513 40.6C57.5359 40.6387 57.6205 40.6775 57.5818 40.7621L57.4655 41.016L55.9533 41.8592Z" fill="#B2CC02"/>
<path d="M36.0802 24.3493L36.0139 26.0594L35.8976 26.3133C35.8495 26.3301 35.7983 26.336 35.7477 26.3306C35.6971 26.3251 35.6483 26.3084 35.605 26.2816L34.2753 25.1609L32.6254 25.634C32.5587 25.6591 32.4857 25.6616 32.4174 25.6411L32.3328 25.6024C32.2481 25.5636 32.2869 25.479 32.3256 25.3944L32.9773 23.7476L32.0107 22.2812C31.9648 22.1578 31.9648 22.1578 32.0036 22.0732C32.0423 21.9886 32.1198 21.8193 32.2045 21.858L33.9991 21.9632L35.1198 20.6335C35.1429 20.591 35.1806 20.5582 35.226 20.5414C35.2714 20.5245 35.3213 20.5246 35.3666 20.5418C35.4512 20.5805 35.5359 20.6192 35.4971 20.7039L35.9314 22.4384L37.5782 23.0901C37.6628 23.1288 37.7475 23.1676 37.7087 23.2522L37.5925 23.5061L36.0802 24.3493Z" fill="#B2CC02"/>
<path d="M90.7559 60.28L89.0704 59.713L87.6499 60.803C87.6112 60.8876 87.5265 60.8488 87.4419 60.8101C87.3818 60.7718 87.3359 60.7148 87.3114 60.648L87.2931 58.8992L85.886 57.9477C85.8434 57.9246 85.8107 57.8869 85.7938 57.8415C85.7769 57.7962 85.7771 57.7462 85.7942 57.7009C85.8095 57.6524 85.8355 57.6079 85.8703 57.5707C85.9051 57.5334 85.9477 57.5044 85.9951 57.4858L87.6837 56.9281L88.1661 55.2038C88.2049 55.1192 88.2436 55.0345 88.3283 55.0733C88.3521 55.0604 88.3786 55.0531 88.4056 55.0522C88.4327 55.0513 88.4596 55.0567 88.4843 55.068C88.5089 55.0792 88.5306 55.0961 88.5476 55.1172C88.5646 55.1383 88.5764 55.1631 88.5822 55.1896L89.5875 56.5713L91.3363 56.553L91.5902 56.6693C91.6184 56.7353 91.621 56.8095 91.5973 56.8773L90.6459 58.2844L91.2424 59.8884C91.2592 59.9365 91.2651 59.9877 91.2597 60.0384C91.2542 60.089 91.2375 60.1378 91.2107 60.1811C91.172 60.2657 90.8406 60.3188 90.7559 60.28Z" fill="#B2CC02"/>
<path d="M44.1466 39.369C44.8676 38.8689 45.2498 38.3934 45.1019 38.1802L38.1288 28.1257C37.981 27.9125 37.4017 28.1038 36.6807 28.6038C35.9596 29.1039 35.5775 29.5794 35.7253 29.7926L42.7231 39.8826C42.8463 40.0603 43.4255 39.869 44.1466 39.369Z" fill="#B2CC02"/>
<path d="M66.1078 70.6526C66.8289 70.1525 67.0399 69.4303 66.6353 68.8469L47.5536 41.3332C47.1491 40.7498 46.3986 40.6943 45.6776 41.1944C44.9566 41.6945 44.7455 42.4167 45.1501 43.0001L64.2992 70.6111C64.6364 71.0972 65.3868 71.1527 66.1078 70.6526Z" fill="#B2CC02"/>
<path d="M75.7019 79.7362C75.8221 79.6528 76.0454 79.7182 76.1656 79.6349C76.415 79.418 76.5856 79.1246 76.6506 78.8005C76.7157 78.4765 76.6716 78.14 76.5252 77.8436L64.8062 43.2392C64.6713 42.8047 64.3952 42.4277 64.0216 42.168C63.6481 41.9084 63.1985 41.7808 62.7443 41.8057C61.9371 41.925 61.5255 42.8713 61.8009 43.7816L73.5198 78.3861C73.9154 79.2131 74.8948 79.8554 75.7019 79.7362Z" fill="#B2CC02"/>
<path d="M81.1572 74.4291C81.3215 74.4566 81.4901 74.4405 81.6462 74.3824C81.8023 74.3242 81.9404 74.2261 82.0467 74.0978C82.2291 73.9356 82.3607 73.724 82.4256 73.4886C82.4904 73.2532 82.4858 73.0041 82.4122 72.7713L74.8046 26.5039C74.7427 26.0473 74.5281 25.625 74.1958 25.3057C73.8635 24.9865 73.4329 24.789 72.9741 24.7455C72.7733 24.7172 72.5685 24.7385 72.3778 24.8076C72.187 24.8768 72.0162 24.9917 71.8802 25.1422C71.7442 25.2927 71.6471 25.4743 71.5976 25.671C71.5481 25.8677 71.5475 26.0736 71.5961 26.2706L79.3267 72.6707C79.3886 73.1274 79.6032 73.5497 79.9355 73.8689C80.2678 74.1882 80.6984 74.3856 81.1572 74.4291Z" fill="#B2CC02"/>
<path d="M72.513 20.6431C72.6773 20.6706 72.8459 20.6545 73.002 20.5963C73.1582 20.5382 73.2962 20.4401 73.4025 20.3118C73.585 20.1495 73.7165 19.9379 73.7814 19.7026C73.8462 19.4672 73.8416 19.2181 73.768 18.9853L72.2184 8.77059C72.1565 8.31393 71.942 7.89163 71.6096 7.57238C71.2773 7.25312 70.8467 7.05569 70.3879 7.01219C70.1871 6.98382 69.9823 7.00514 69.7916 7.0743C69.6009 7.14345 69.43 7.25832 69.294 7.40884C69.158 7.55936 69.061 7.74093 69.0114 7.93766C68.9619 8.13439 68.9614 8.34027 69.0099 8.53725L70.6826 18.8847C70.7444 19.3413 70.959 19.7636 71.2913 20.0829C71.6236 20.4021 72.0542 20.5996 72.513 20.6431Z" fill="#B2CC02"/>
<path d="M66.7722 81.7443C67.4252 82.1726 67.992 82.22 68.4727 81.8866C68.5929 81.8033 68.8332 81.6366 68.8503 81.4045C69.0441 80.9913 69.0757 80.5204 68.9386 80.0851C68.8015 79.6497 68.5058 79.2818 68.1102 79.0543L30.065 50.3729C29.309 49.796 28.2785 49.8499 27.987 50.7128C27.7932 51.1259 27.7616 51.5969 27.8987 52.0322C28.0358 52.4675 28.3315 52.8354 28.7271 53.063L66.7722 81.7443Z" fill="#B2CC02"/>
<path d="M36.5176 47.2013C37.1705 47.6296 37.7374 47.677 38.2181 47.3436C38.3382 47.2603 38.5786 47.0936 38.5956 46.8615C38.7895 46.4483 38.821 45.9774 38.6839 45.5421C38.5468 45.1067 38.2512 44.7388 37.8555 44.5113L12.2503 22.4207C11.4943 21.8437 10.4638 21.8976 10.1723 22.7605C9.97846 23.1737 9.94693 23.6446 10.084 24.0799C10.2211 24.5153 10.5168 24.8832 10.9124 25.1107L36.5176 47.2013Z" fill="#B2CC02"/>
</g>
<defs>
<clipPath id="clip0_413_4226">
<rect width="120" height="120" fill="white"/>
</clipPath>
</defs>
</svg>
