<svg width="120" height="120" viewBox="0 0 120 120" fill="none" xmlns="http://www.w3.org/2000/svg">
<g clip-path="url(#clip0_413_4226)">
<rect width="120" height="120" fill="white"/>
<rect width="120" height="120" fill="#B5E0F5" fill-opacity="0.3"/>
<circle cy="2" r="35.5" fill="white"/>
<circle cy="2" r="35.5" fill="#FFA201" fill-opacity="0.3"/>
<circle cy="2" r="35.5" stroke="white"/>
<circle cy="2" r="35.5" stroke="#FFA201" stroke-opacity="0.3"/>
<path d="M20 41.5L34 62" stroke="white" stroke-width="2"/>
<path d="M20 41.5L34 62" stroke="#FFA201" stroke-opacity="0.3" stroke-width="2"/>
<path d="M6 47.5L10 64" stroke="white" stroke-width="2"/>
<path d="M6 47.5L10 64" stroke="#FFA201" stroke-opacity="0.3" stroke-width="2"/>
<path d="M34 32.5L45 42.5" stroke="white" stroke-width="2"/>
<path d="M34 32.5L45 42.5" stroke="#FFA201" stroke-opacity="0.3" stroke-width="2"/>
<path d="M41 19.5L62 31" stroke="white" stroke-width="2"/>
<path d="M41 19.5L62 31" stroke="#FFA201" stroke-opacity="0.3" stroke-width="2"/>
<path d="M48 4.5L60.5 8" stroke="white" stroke-width="2"/>
<path d="M48 4.5L60.5 8" stroke="#FFA201" stroke-opacity="0.3" stroke-width="2"/>
<mask id="mask0_413_4226" style="mask-type:alpha" maskUnits="userSpaceOnUse" x="66" y="34" width="34" height="34">
<rect x="69.46" y="33.5732" width="31.1199" height="31.1199" rx="9.1529" transform="rotate(7.10485 69.46 33.5732)" fill="white"/>
<rect x="69.46" y="33.5732" width="31.1199" height="31.1199" rx="9.1529" transform="rotate(7.10485 69.46 33.5732)" fill="#FFA201" fill-opacity="0.6"/>
</mask>
<g mask="url(#mask0_413_4226)">
<rect x="69.46" y="33.5732" width="31.1199" height="31.1199" rx="9.1529" transform="rotate(7.10485 69.46 33.5732)" fill="white"/>
<rect x="69.46" y="33.5732" width="31.1199" height="31.1199" rx="9.1529" transform="rotate(7.10485 69.46 33.5732)" fill="#FFA201" fill-opacity="0.6"/>
<g opacity="0.5">
<path d="M69.46 33.5732L82 50L96.4918 68.3032L65.6109 64.4541L69.46 33.5732Z" fill="white"/>
<path d="M69.46 33.5732L82 50L96.4918 68.3032L65.6109 64.4541L69.46 33.5732Z" fill="#FFA201" fill-opacity="0.3"/>
</g>
</g>
<mask id="mask1_413_4226" style="mask-type:alpha" maskUnits="userSpaceOnUse" x="49" y="51" width="33" height="33">
<rect x="52.2378" y="49.9147" width="31.1199" height="31.1199" rx="9.1529" transform="rotate(7.68896 52.2378 49.9147)" fill="white"/>
<rect x="52.2378" y="49.9147" width="31.1199" height="31.1199" rx="9.1529" transform="rotate(7.68896 52.2378 49.9147)" fill="#4DB5AB" fill-opacity="0.8"/>
</mask>
<g mask="url(#mask1_413_4226)">
<rect x="52.2378" y="49.9147" width="31.1199" height="31.1199" rx="9.1529" transform="rotate(7.68896 52.2378 49.9147)" fill="white"/>
<rect x="52.2378" y="49.9147" width="31.1199" height="31.1199" rx="9.1529" transform="rotate(7.68896 52.2378 49.9147)" fill="#4DB5AB" fill-opacity="0.8"/>
<g opacity="0.5">
<path d="M52.2378 49.9147L65.5 67.5L78.9142 84.9184L48.0741 80.7547L52.2378 49.9147Z" fill="white"/>
<path d="M52.2378 49.9147L65.5 67.5L78.9142 84.9184L48.0741 80.7547L52.2378 49.9147Z" fill="#4DB5AB" fill-opacity="0.4"/>
</g>
</g>
<mask id="mask2_413_4226" style="mask-type:alpha" maskUnits="userSpaceOnUse" x="74" y="60" width="34" height="34">
<rect x="78.9958" y="58.3389" width="31.1199" height="31.1199" rx="9.1529" transform="rotate(12.4143 78.9958 58.3389)" fill="#FFBAA6"/>
</mask>
<g mask="url(#mask2_413_4226)">
<rect x="78.9958" y="58.3389" width="31.1199" height="31.1199" rx="9.1529" transform="rotate(12.4143 78.9958 58.3389)" fill="#FFBAA6"/>
<g opacity="0.5">
<path d="M78.9958 58.3389L90.5 76L102.698 95.4213L72.3058 88.7312L78.9958 58.3389Z" fill="white"/>
<path d="M78.9958 58.3389L90.5 76L102.698 95.4213L72.3058 88.7312L78.9958 58.3389Z" fill="#FFBAA6" fill-opacity="0.6"/>
</g>
</g>
<mask id="mask3_413_4226" style="mask-type:alpha" maskUnits="userSpaceOnUse" x="50" y="78" width="43" height="80">
<path d="M50.4572 153.181L53.6147 84.0948C53.7754 80.5782 57.1568 78.1187 60.552 79.049L88.6132 86.7379C91.9569 87.6541 93.6255 91.4013 92.0694 94.4994L61.1937 155.97C60.4206 157.509 58.6792 158.301 57.011 157.872L53.2034 156.894C51.5243 156.463 50.378 154.913 50.4572 153.181Z" fill="white"/>
<path d="M50.4572 153.181L53.6147 84.0948C53.7754 80.5782 57.1568 78.1187 60.552 79.049L88.6132 86.7379C91.9569 87.6541 93.6255 91.4013 92.0694 94.4994L61.1937 155.97C60.4206 157.509 58.6792 158.301 57.011 157.872L53.2034 156.894C51.5243 156.463 50.378 154.913 50.4572 153.181Z" fill="#F07508" fill-opacity="0.5"/>
</mask>
<g mask="url(#mask3_413_4226)">
<path d="M50.4572 153.181L53.6147 84.0948C53.7754 80.5782 57.1568 78.1187 60.552 79.049L88.6132 86.7379C91.9569 87.6541 93.6255 91.4013 92.0694 94.4994L61.1937 155.97C60.4206 157.509 58.6792 158.301 57.011 157.872L53.2034 156.894C51.5243 156.463 50.378 154.913 50.4572 153.181Z" fill="white"/>
<path d="M50.4572 153.181L53.6147 84.0948C53.7754 80.5782 57.1568 78.1187 60.552 79.049L88.6132 86.7379C91.9569 87.6541 93.6255 91.4013 92.0694 94.4994L61.1937 155.97C60.4206 157.509 58.6792 158.301 57.011 157.872L53.2034 156.894C51.5243 156.463 50.378 154.913 50.4572 153.181Z" fill="#F07508" fill-opacity="0.5"/>
<path d="M63.9369 154.387L48.7567 136.974L79.4659 124.684L51.0729 97.9096L93.1453 87.8372" stroke="white" stroke-width="1.83058"/>
<path d="M63.9369 154.387L48.7567 136.974L79.4659 124.684L51.0729 97.9096L93.1453 87.8372" stroke="#963700" stroke-opacity="0.6" stroke-width="1.83058"/>
<path d="M62.0975 76.1744L90.0539 106.697L49.0069 117.56L73.9704 139.241L46.102 152.086" stroke="white" stroke-width="1.83058"/>
<path d="M62.0975 76.1744L90.0539 106.697L49.0069 117.56L73.9704 139.241L46.102 152.086" stroke="#963700" stroke-opacity="0.6" stroke-width="1.83058"/>
</g>
</g>
<defs>
<clipPath id="clip0_413_4226">
<rect width="120" height="120" fill="white"/>
</clipPath>
</defs>
</svg>
