<?xml version="1.0" encoding="UTF-8"?>
<svg width="45" height="44" viewBox="0 0 45 44" fill="none" xmlns="http://www.w3.org/2000/svg">
<path fill-rule="evenodd" clip-rule="evenodd" d="M22.4773 0.926695C10.4853 0.926695 0.759979 10.6507 0.759979 22.6467C0.759979 32.2414 6.98265 40.3827 15.6133 43.2561C16.7 43.4547 17.096 42.7841 17.096 42.2081C17.096 41.6921 17.0773 40.3267 17.0667 38.5147C11.0253 39.8267 9.75065 35.6027 9.75065 35.6027C8.76265 33.0934 7.33866 32.4254 7.33866 32.4254C5.36666 31.0787 7.48799 31.1054 7.48799 31.1054C9.66799 31.2587 10.8146 33.3441 10.8146 33.3441C12.752 36.6627 15.8987 35.7041 17.136 35.1481C17.3333 33.7454 17.8946 32.788 18.5146 32.2454C13.692 31.696 8.62132 29.8334 8.62132 21.5107C8.62132 19.1387 9.46799 17.2014 10.8573 15.6828C10.6333 15.1334 9.88799 12.9254 11.0707 9.9347C11.0707 9.9347 12.8933 9.3507 17.0426 12.16C18.7746 11.6787 20.6333 11.4387 22.48 11.4294C24.3253 11.4387 26.1827 11.6787 27.9173 12.16C32.064 9.3507 33.884 9.9347 33.884 9.9347C35.0693 12.9254 34.324 15.1334 34.1013 15.6828C35.4933 17.2014 36.3333 19.1387 36.3333 21.5107C36.3333 29.8547 31.2547 31.6907 26.4173 32.2281C27.196 32.8987 27.8907 34.2241 27.8907 36.2507C27.8907 39.1534 27.864 41.4961 27.864 42.2081C27.864 42.7894 28.256 43.4654 29.3573 43.2534C37.9813 40.3747 44.1986 32.2401 44.1986 22.6467C44.1986 10.6507 34.4733 0.926695 22.4773 0.926695" fill="#1B1817"/>
</svg>
