<svg width="745" height="350" viewBox="0 0 745 350" fill="none" xmlns="http://www.w3.org/2000/svg">
  <path d="M222 73.0005H560V251C560 263.151 550.15 273 538 273H244C231.85 273 222 263.151 222 251V73.0005Z" fill="white"/>
  <path d="M222 73.0005H560V251C560 263.151 550.15 273 538 273H244C231.85 273 222 263.151 222 251V73.0005Z" fill="#B5E0F5" fill-opacity="0.6"/>
  <path d="M420.469 89.3045C419.491 89.71 418.709 90.4921 418.304 91.4698L418.765 91.6614C418.595 92.0733 418.5 92.5255 418.5 93.001V95.0394H418V99.1164H418.5V103.193H418V107.27H418.5V111.347H418V115.424H418.5V119.501H418V123.578H418.5V127.655H418V131.732H418.5V135.809H418V139.886H418.5V143.963H418V148.039H418.5V152.116H418V156.193H418.5V160.27H418V164.347H418.5V168.424H418V172.501H418.5V176.578H418V180.655H418.5V184.732H418V188.809H418.5V192.886H418V196.962H418.5V199.001C418.5 199.476 418.595 199.929 418.765 200.341L418.304 200.532C418.709 201.51 419.491 202.292 420.469 202.697L420.66 202.236C421.072 202.406 421.525 202.501 422 202.501H423.967V203.001H427.9V202.501H431.833V203.001H435.767V202.501H439.7V203.001H443.633V202.501H447.567V203.001H451.5V202.501H455.433V203.001H459.367V202.501H463.3V203.001H467.233V202.501H471.167V203.001H475.1V202.501H479.033V203.001H482.967V202.501H486.9V203.001H490.833V202.501H494.767V203.001H498.7V202.501H502.633V203.001H506.567V202.501H510.5V203.001H514.433V202.501H518.367V203.001H522.3V202.501H526.233V203.001H530.167V202.501H534.1V203.001H538.033V202.501H540C540.475 202.501 540.928 202.406 541.34 202.236L541.531 202.697C542.509 202.292 543.291 201.51 543.696 200.532L543.235 200.341C543.405 199.929 543.5 199.476 543.5 199.001V196.963H544V192.886H543.5V188.809H544V184.732H543.5V180.655H544V176.578H543.5V172.501H544V168.424H543.5V164.347H544V160.27H543.5V156.193H544V152.116H543.5V148.039H544V143.963H543.5V139.886H544V135.809H543.5V131.732H544V127.655H543.5V123.578H544V119.501H543.5V115.424H544V111.347H543.5V107.27H544V103.193H543.5V99.1164H544V95.0395H543.5V93.001C543.5 92.5255 543.405 92.0733 543.235 91.6614L543.696 91.4698C543.291 90.4921 542.509 89.71 541.531 89.3045L541.34 89.7664C540.928 89.5955 540.475 89.501 540 89.501H538.033V89.001H534.1V89.501H530.167V89.001H526.233V89.501H522.3V89.001H518.367V89.501H514.433V89.001H510.5V89.501H506.567V89.001H502.633V89.501H498.7V89.001H494.767V89.501H490.833V89.001H486.9V89.501H482.967V89.001H479.033V89.501H475.1V89.001H471.167V89.501H467.233V89.001H463.3V89.501H459.367V89.001H455.433V89.501H451.5V89.001H447.567V89.501H443.633V89.001H439.7V89.501H435.767V89.001H431.833V89.501H427.9V89.001H423.967V89.501H422C421.525 89.501 421.072 89.5955 420.66 89.7664L420.469 89.3045Z" stroke="white" stroke-dasharray="4 4"/>
  <path d="M420.469 89.3045C419.491 89.71 418.709 90.4921 418.304 91.4698L418.765 91.6614C418.595 92.0733 418.5 92.5255 418.5 93.001V95.0394H418V99.1164H418.5V103.193H418V107.27H418.5V111.347H418V115.424H418.5V119.501H418V123.578H418.5V127.655H418V131.732H418.5V135.809H418V139.886H418.5V143.963H418V148.039H418.5V152.116H418V156.193H418.5V160.27H418V164.347H418.5V168.424H418V172.501H418.5V176.578H418V180.655H418.5V184.732H418V188.809H418.5V192.886H418V196.962H418.5V199.001C418.5 199.476 418.595 199.929 418.765 200.341L418.304 200.532C418.709 201.51 419.491 202.292 420.469 202.697L420.66 202.236C421.072 202.406 421.525 202.501 422 202.501H423.967V203.001H427.9V202.501H431.833V203.001H435.767V202.501H439.7V203.001H443.633V202.501H447.567V203.001H451.5V202.501H455.433V203.001H459.367V202.501H463.3V203.001H467.233V202.501H471.167V203.001H475.1V202.501H479.033V203.001H482.967V202.501H486.9V203.001H490.833V202.501H494.767V203.001H498.7V202.501H502.633V203.001H506.567V202.501H510.5V203.001H514.433V202.501H518.367V203.001H522.3V202.501H526.233V203.001H530.167V202.501H534.1V203.001H538.033V202.501H540C540.475 202.501 540.928 202.406 541.34 202.236L541.531 202.697C542.509 202.292 543.291 201.51 543.696 200.532L543.235 200.341C543.405 199.929 543.5 199.476 543.5 199.001V196.963H544V192.886H543.5V188.809H544V184.732H543.5V180.655H544V176.578H543.5V172.501H544V168.424H543.5V164.347H544V160.27H543.5V156.193H544V152.116H543.5V148.039H544V143.963H543.5V139.886H544V135.809H543.5V131.732H544V127.655H543.5V123.578H544V119.501H543.5V115.424H544V111.347H543.5V107.27H544V103.193H543.5V99.1164H544V95.0395H543.5V93.001C543.5 92.5255 543.405 92.0733 543.235 91.6614L543.696 91.4698C543.291 90.4921 542.509 89.71 541.531 89.3045L541.34 89.7664C540.928 89.5955 540.475 89.501 540 89.501H538.033V89.001H534.1V89.501H530.167V89.001H526.233V89.501H522.3V89.001H518.367V89.501H514.433V89.001H510.5V89.501H506.567V89.001H502.633V89.501H498.7V89.001H494.767V89.501H490.833V89.001H486.9V89.501H482.967V89.001H479.033V89.501H475.1V89.001H471.167V89.501H467.233V89.001H463.3V89.501H459.367V89.001H455.433V89.501H451.5V89.001H447.567V89.501H443.633V89.001H439.7V89.501H435.767V89.001H431.833V89.501H427.9V89.001H423.967V89.501H422C421.525 89.501 421.072 89.5955 420.66 89.7664L420.469 89.3045Z" stroke="#0073AB" stroke-opacity="0.4" stroke-dasharray="4 4"/>
  <path d="M222 58.0005C222 50.2685 228.268 44.0005 236 44.0005H546C553.732 44.0005 560 50.2685 560 58.0005V73.0005H222V58.0005Z" fill="#00243D"/>
  <path d="M242.323 63.8972C245.384 63.8972 247.866 61.4157 247.866 58.3546C247.866 55.2935 245.384 52.812 242.323 52.812C239.262 52.812 236.78 55.2935 236.78 58.3546C236.78 61.4157 239.262 63.8972 242.323 63.8972Z" fill="white"/>
  <path d="M259.543 63.8972C262.604 63.8972 265.085 61.4157 265.085 58.3546C265.085 55.2935 262.604 52.812 259.543 52.812C256.482 52.812 254 55.2935 254 58.3546C254 61.4157 256.482 63.8972 259.543 63.8972Z" fill="white"/>
  <path d="M276.543 63.8972C279.604 63.8972 282.085 61.4157 282.085 58.3546C282.085 55.2935 279.604 52.812 276.543 52.812C273.482 52.812 271 55.2935 271 58.3546C271 61.4157 273.482 63.8972 276.543 63.8972Z" fill="white"/>
  <path d="M630.636 32.7743L594.29 38.5309L596.208 50.6462C596.511 52.558 598.306 53.8623 600.218 53.5595L629.641 48.8994C631.553 48.5966 632.857 46.8013 632.554 44.8896L630.636 32.7743Z" fill="white"/>
  <path d="M623.885 12.5531L594.462 17.2132C592.55 17.516 591.245 19.3113 591.548 21.223L594.29 38.5306L630.636 32.774L627.894 15.4664C627.592 13.5546 625.796 12.2503 623.885 12.5531Z" fill="#4CC6BC"/>
  <rect x="598.301" y="41.4441" width="24.5327" height="1.75234" transform="rotate(-9.00003 598.301 41.4441)" fill="#DBDBDB"/>
  <rect x="599.122" y="46.6365" width="18.3996" height="1.75234" transform="rotate(-9.00003 599.122 46.6365)" fill="#DBDBDB"/>
  <path d="M737.422 105.65L712.261 93.3785L708.17 101.766C707.525 103.089 708.074 104.685 709.398 105.331L729.766 115.265C731.09 115.911 732.686 115.361 733.331 114.038L737.422 105.65Z" fill="white"/>
  <path d="M742.038 90.1037L721.67 80.1692C720.346 79.5238 718.75 80.0734 718.105 81.3968L712.261 93.3784L737.422 105.65L743.266 93.6687C743.911 92.3453 743.362 90.7492 742.038 90.1037Z" fill="#FA6A55"/>
  <rect width="18.663" height="1.33307" transform="matrix(0.898795 0.438369 -0.438373 0.898793 713.488 96.9436)" fill="#DBDBDB"/>
  <rect width="13.9973" height="1.33307" transform="matrix(0.898795 0.438369 -0.438373 0.898793 711.735 100.538)" fill="#DBDBDB"/>
  <path d="M240.469 89.3043C239.491 89.7097 238.709 90.4918 238.304 91.4696L238.765 91.6611C238.595 92.0731 238.5 92.5252 238.5 93.0007V95.0507H238V99.1507H238.5V103.251H238V107.351H238.5V111.451H238V115.551H238.5V119.651H238V123.751H238.5V127.851H238V131.951H238.5V134.001C238.5 134.476 238.595 134.928 238.765 135.34L238.304 135.532C238.709 136.51 239.491 137.292 240.469 137.697L240.66 137.235C241.072 137.406 241.525 137.501 242 137.501H243.95V138.001H247.85V137.501H251.75V138.001H255.65V137.501H259.55V138.001H263.45V137.501H267.35V138.001H271.25V137.501H275.15V138.001H279.05V137.501H282.95V138.001H286.85V137.501H290.75V138.001H294.65V137.501H298.55V138.001H302.45V137.501H306.35V138.001H310.25V137.501H314.15V138.001H318.05V137.501H321.95V138.001H325.85V137.501H329.75V138.001H333.65V137.501H337.55V138.001H341.45V137.501H345.35V138.001H349.25V137.501H353.15V138.001H357.05V137.501H360.95V138.001H364.85V137.501H368.75V138.001H372.65V137.501H376.55V138.001H380.45V137.501H384.35V138.001H388.25V137.501H392.15V138.001H396.05V137.501H398C398.475 137.501 398.928 137.406 399.34 137.235L399.531 137.697C400.509 137.292 401.291 136.51 401.696 135.532L401.235 135.34C401.405 134.928 401.5 134.476 401.5 134.001V131.951H402V127.851H401.5V123.751H402V119.651H401.5V115.551H402V111.451H401.5V107.351H402V103.251H401.5V99.1507H402V95.0507H401.5V93.0007C401.5 92.5252 401.405 92.0731 401.235 91.6611L401.696 91.4696C401.291 90.4918 400.509 89.7097 399.531 89.3043L399.34 89.7661C398.928 89.5953 398.475 89.5007 398 89.5007H396.05V89.0007H392.15V89.5007H388.25V89.0007H384.35V89.5007H380.45V89.0007H376.55V89.5007H372.65V89.0007H368.75V89.5007H364.85V89.0007H360.95V89.5007H357.05V89.0007H353.15V89.5007H349.25V89.0007H345.35V89.5007H341.45V89.0007H337.55V89.5007H333.65V89.0007H329.75V89.5007H325.85V89.0007H321.95V89.5007H318.05V89.0007H314.15V89.5007H310.25V89.0007H306.35V89.5007H302.45V89.0007H298.55V89.5007H294.65V89.0007H290.75V89.5007H286.85V89.0007H282.95V89.5007H279.05V89.0007H275.15V89.5007H271.25V89.0007H267.35V89.5007H263.45V89.0007H259.55V89.5007H255.65V89.0007H251.75V89.5007H247.85V89.0007H243.95V89.5007H242C241.525 89.5007 241.072 89.5953 240.66 89.7661L240.469 89.3043Z" stroke="white" stroke-dasharray="4 4"/>
  <path d="M240.469 89.3043C239.491 89.7097 238.709 90.4918 238.304 91.4696L238.765 91.6611C238.595 92.0731 238.5 92.5252 238.5 93.0007V95.0507H238V99.1507H238.5V103.251H238V107.351H238.5V111.451H238V115.551H238.5V119.651H238V123.751H238.5V127.851H238V131.951H238.5V134.001C238.5 134.476 238.595 134.928 238.765 135.34L238.304 135.532C238.709 136.51 239.491 137.292 240.469 137.697L240.66 137.235C241.072 137.406 241.525 137.501 242 137.501H243.95V138.001H247.85V137.501H251.75V138.001H255.65V137.501H259.55V138.001H263.45V137.501H267.35V138.001H271.25V137.501H275.15V138.001H279.05V137.501H282.95V138.001H286.85V137.501H290.75V138.001H294.65V137.501H298.55V138.001H302.45V137.501H306.35V138.001H310.25V137.501H314.15V138.001H318.05V137.501H321.95V138.001H325.85V137.501H329.75V138.001H333.65V137.501H337.55V138.001H341.45V137.501H345.35V138.001H349.25V137.501H353.15V138.001H357.05V137.501H360.95V138.001H364.85V137.501H368.75V138.001H372.65V137.501H376.55V138.001H380.45V137.501H384.35V138.001H388.25V137.501H392.15V138.001H396.05V137.501H398C398.475 137.501 398.928 137.406 399.34 137.235L399.531 137.697C400.509 137.292 401.291 136.51 401.696 135.532L401.235 135.34C401.405 134.928 401.5 134.476 401.5 134.001V131.951H402V127.851H401.5V123.751H402V119.651H401.5V115.551H402V111.451H401.5V107.351H402V103.251H401.5V99.1507H402V95.0507H401.5V93.0007C401.5 92.5252 401.405 92.0731 401.235 91.6611L401.696 91.4696C401.291 90.4918 400.509 89.7097 399.531 89.3043L399.34 89.7661C398.928 89.5953 398.475 89.5007 398 89.5007H396.05V89.0007H392.15V89.5007H388.25V89.0007H384.35V89.5007H380.45V89.0007H376.55V89.5007H372.65V89.0007H368.75V89.5007H364.85V89.0007H360.95V89.5007H357.05V89.0007H353.15V89.5007H349.25V89.0007H345.35V89.5007H341.45V89.0007H337.55V89.5007H333.65V89.0007H329.75V89.5007H325.85V89.0007H321.95V89.5007H318.05V89.0007H314.15V89.5007H310.25V89.0007H306.35V89.5007H302.45V89.0007H298.55V89.5007H294.65V89.0007H290.75V89.5007H286.85V89.0007H282.95V89.5007H279.05V89.0007H275.15V89.5007H271.25V89.0007H267.35V89.5007H263.45V89.0007H259.55V89.5007H255.65V89.0007H251.75V89.5007H247.85V89.0007H243.95V89.5007H242C241.525 89.5007 241.072 89.5953 240.66 89.7661L240.469 89.3043Z" stroke="#0073AB" stroke-opacity="0.4" stroke-dasharray="4 4"/>
  <path d="M240.469 219.304C239.491 219.71 238.709 220.492 238.304 221.47L238.765 221.661C238.595 222.073 238.5 222.525 238.5 223.001V224.876H238V228.626H238.5V232.376H238V236.126H238.5V239.876H238V243.626H238.5V247.376H238V251.126H238.5V253.001C238.5 253.476 238.595 253.928 238.765 254.34L238.304 254.532C238.709 255.51 239.491 256.292 240.469 256.697L240.66 256.235C241.072 256.406 241.525 256.501 242 256.501H243.95V257.001H247.85V256.501H251.75V257.001H255.65V256.501H259.55V257.001H263.45V256.501H267.35V257.001H271.25V256.501H275.15V257.001H279.05V256.501H282.95V257.001H286.85V256.501H290.75V257.001H294.65V256.501H298.55V257.001H302.45V256.501H306.35V257.001H310.25V256.501H314.15V257.001H318.05V256.501H321.95V257.001H325.85V256.501H329.75V257.001H333.65V256.501H337.55V257.001H341.45V256.501H345.35V257.001H349.25V256.501H353.15V257.001H357.05V256.501H360.95V257.001H364.85V256.501H368.75V257.001H372.65V256.501H376.55V257.001H380.45V256.501H384.35V257.001H388.25V256.501H392.15V257.001H396.05V256.501H398C398.476 256.501 398.928 256.406 399.34 256.235L399.531 256.697C400.509 256.292 401.291 255.51 401.696 254.532L401.235 254.34C401.405 253.928 401.5 253.476 401.5 253.001V251.126H402V247.376H401.5V243.626H402V239.876H401.5V236.126H402V232.376H401.5V228.626H402V224.876H401.5V223.001C401.5 222.525 401.405 222.073 401.235 221.661L401.696 221.47C401.291 220.492 400.509 219.71 399.531 219.304L399.34 219.766C398.928 219.595 398.476 219.501 398 219.501H396.05V219.001H392.15V219.501H388.25V219.001H384.35V219.501H380.45V219.001H376.55V219.501H372.65V219.001H368.75V219.501H364.85V219.001H360.95V219.501H357.05V219.001H353.15V219.501H349.25V219.001H345.35V219.501H341.45V219.001H337.55V219.501H333.65V219.001H329.75V219.501H325.85V219.001H321.95V219.501H318.05V219.001H314.15V219.501H310.25V219.001H306.35V219.501H302.45V219.001H298.55V219.501H294.65V219.001H290.75V219.501H286.85V219.001H282.95V219.501H279.05V219.001H275.15V219.501H271.25V219.001H267.35V219.501H263.45V219.001H259.55V219.501H255.65V219.001H251.75V219.501H247.85V219.001H243.95V219.501H242C241.525 219.501 241.072 219.595 240.66 219.766L240.469 219.304Z" stroke="white" stroke-dasharray="4 4"/>
  <path d="M240.469 219.304C239.491 219.71 238.709 220.492 238.304 221.47L238.765 221.661C238.595 222.073 238.5 222.525 238.5 223.001V224.876H238V228.626H238.5V232.376H238V236.126H238.5V239.876H238V243.626H238.5V247.376H238V251.126H238.5V253.001C238.5 253.476 238.595 253.928 238.765 254.34L238.304 254.532C238.709 255.51 239.491 256.292 240.469 256.697L240.66 256.235C241.072 256.406 241.525 256.501 242 256.501H243.95V257.001H247.85V256.501H251.75V257.001H255.65V256.501H259.55V257.001H263.45V256.501H267.35V257.001H271.25V256.501H275.15V257.001H279.05V256.501H282.95V257.001H286.85V256.501H290.75V257.001H294.65V256.501H298.55V257.001H302.45V256.501H306.35V257.001H310.25V256.501H314.15V257.001H318.05V256.501H321.95V257.001H325.85V256.501H329.75V257.001H333.65V256.501H337.55V257.001H341.45V256.501H345.35V257.001H349.25V256.501H353.15V257.001H357.05V256.501H360.95V257.001H364.85V256.501H368.75V257.001H372.65V256.501H376.55V257.001H380.45V256.501H384.35V257.001H388.25V256.501H392.15V257.001H396.05V256.501H398C398.476 256.501 398.928 256.406 399.34 256.235L399.531 256.697C400.509 256.292 401.291 255.51 401.696 254.532L401.235 254.34C401.405 253.928 401.5 253.476 401.5 253.001V251.126H402V247.376H401.5V243.626H402V239.876H401.5V236.126H402V232.376H401.5V228.626H402V224.876H401.5V223.001C401.5 222.525 401.405 222.073 401.235 221.661L401.696 221.47C401.291 220.492 400.509 219.71 399.531 219.304L399.34 219.766C398.928 219.595 398.476 219.501 398 219.501H396.05V219.001H392.15V219.501H388.25V219.001H384.35V219.501H380.45V219.001H376.55V219.501H372.65V219.001H368.75V219.501H364.85V219.001H360.95V219.501H357.05V219.001H353.15V219.501H349.25V219.001H345.35V219.501H341.45V219.001H337.55V219.501H333.65V219.001H329.75V219.501H325.85V219.001H321.95V219.501H318.05V219.001H314.15V219.501H310.25V219.001H306.35V219.501H302.45V219.001H298.55V219.501H294.65V219.001H290.75V219.501H286.85V219.001H282.95V219.501H279.05V219.001H275.15V219.501H271.25V219.001H267.35V219.501H263.45V219.001H259.55V219.501H255.65V219.001H251.75V219.501H247.85V219.001H243.95V219.501H242C241.525 219.501 241.072 219.595 240.66 219.766L240.469 219.304Z" stroke="#0073AB" stroke-opacity="0.4" stroke-dasharray="4 4"/>
  <path d="M540 218.001H423C420.791 218.001 419 219.792 419 222.001V252.001C419 254.21 420.791 256.001 423 256.001H540C542.209 256.001 544 254.21 544 252.001V222.001C544 219.792 542.209 218.001 540 218.001Z" fill="white"/>
  <rect x="510" y="224.001" width="26" height="26" rx="3" fill="#42B0D5"/>
  <path fill-rule="evenodd" clip-rule="evenodd" d="M515 234.001C515 231.24 517.239 229.001 520 229.001C522.761 229.001 525 231.24 525 234.001C525 235.202 524.577 236.304 523.871 237.166L525 238.294L525.293 238.001C525.683 237.611 526.317 237.611 526.707 238.001L531 242.294C531.39 242.685 531.39 243.318 531 243.708L529.707 245.001C529.317 245.392 528.683 245.392 528.293 245.001L524 240.708C523.609 240.318 523.609 239.685 524 239.294L524.293 239.001L523.164 237.873C522.302 238.578 521.201 239.001 520 239.001C517.239 239.001 515 236.763 515 234.001ZM520 230.001C517.791 230.001 516 231.792 516 234.001C516 236.21 517.791 238.001 520 238.001C522.209 238.001 524 236.21 524 234.001C524 231.792 522.209 230.001 520 230.001ZM526 238.708L524.707 240.001L529 244.294L530.293 243.001L526 238.708Z" fill="white"/>
  <path d="M433.224 242.161C435.848 242.161 437.048 241.025 437.048 239.153C437.048 237.473 436.376 236.673 434.584 235.969L433.048 235.361C431.832 234.897 431.304 234.529 431.304 233.441C431.304 232.401 431.912 231.889 433.528 231.889C435.064 231.889 436.168 232.353 436.52 232.545V231.233C436.184 231.041 435.192 230.641 433.528 230.641C430.84 230.641 429.896 231.889 429.896 233.441C429.896 234.929 430.456 235.793 432.136 236.449L433.944 237.153C435.192 237.633 435.656 238.033 435.656 239.121C435.656 240.273 435.064 240.913 433.224 240.913C431.88 240.913 430.568 240.337 429.816 239.905V241.377C430.312 241.649 431.56 242.161 433.224 242.161ZM445.444 237.009C445.444 234.705 444.42 233.521 442.164 233.521C439.892 233.521 438.676 234.593 438.676 237.633C438.676 240.737 439.716 242.161 442.404 242.161C443.796 242.161 444.708 241.809 445.188 241.553V240.289C444.66 240.577 443.684 240.977 442.468 240.977C440.836 240.977 440.068 240.257 439.988 238.193H445.444V237.009ZM439.972 237.201C440.052 235.233 440.676 234.673 442.132 234.673C443.492 234.673 444.148 235.377 444.148 236.737V237.201H439.972ZM449.385 242.161C450.489 242.161 451.513 241.585 451.961 241.265C452.057 241.185 452.105 241.169 452.153 241.169C452.201 241.169 452.233 241.185 452.249 241.297L452.345 242.001H453.481V236.209C453.481 234.497 452.553 233.521 450.441 233.521C449.209 233.521 448.297 233.793 447.689 234.049V235.249C448.185 235.025 449.129 234.705 450.249 234.705C451.801 234.705 452.153 235.425 452.153 236.193V236.593L449.657 237.361C447.849 237.905 447.129 238.401 447.129 239.873C447.129 241.425 447.801 242.161 449.385 242.161ZM449.673 241.057C448.793 241.057 448.473 240.673 448.473 239.793C448.473 239.025 448.729 238.705 449.801 238.353L452.153 237.601V240.241C451.513 240.609 450.617 241.057 449.673 241.057ZM457.359 242.001V235.841C458.239 235.105 459.407 234.753 460.399 234.833V233.569C460.303 233.537 460.111 233.521 459.983 233.521C458.911 233.521 458.063 234.145 457.583 234.577C457.487 234.657 457.439 234.689 457.391 234.689C457.327 234.689 457.279 234.641 457.263 234.513L457.151 233.681H456.031V242.001H457.359ZM465.139 242.161C466.243 242.161 467.155 241.857 467.539 241.633V240.401C467.107 240.673 466.211 240.977 465.331 240.977C463.731 240.977 462.787 240.337 462.787 237.729C462.787 235.409 463.619 234.705 465.283 234.705C466.211 234.705 466.963 234.993 467.379 235.201V233.953C466.931 233.729 466.147 233.521 465.251 233.521C463.075 233.521 461.395 234.449 461.395 237.729C461.395 240.929 462.674 242.161 465.139 242.161ZM473.675 233.521C472.251 233.521 471.195 234.305 470.859 234.577V230.321H469.531V242.001H470.859V235.601C471.323 235.233 472.187 234.705 473.275 234.705C474.187 234.705 474.779 235.009 474.779 236.257V242.001H476.123V235.969C476.123 234.257 475.291 233.521 473.675 233.521Z" fill="#B2B2B2"/>
  <g filter="url(#filter0_dddd)">
  <path d="M370 246.001H203C200.791 246.001 199 247.792 199 250.001V280.001C199 282.21 200.791 284.001 203 284.001H370C372.209 284.001 374 282.21 374 280.001V250.001C374 247.792 372.209 246.001 370 246.001Z" fill="white"/>
  <rect x="211" y="256.001" width="136" height="4" fill="#CFCFCF"/>
  <rect x="211" y="268.001" width="95" height="4" fill="#CFCFCF"/>
  </g>
  <g filter="url(#filter1_dddd)">
  <path d="M578 64.0011H460C457.791 64.0011 456 65.792 456 68.0011V174.001C456 176.21 457.791 178.001 460 178.001H578C580.209 178.001 582 176.21 582 174.001V68.0011C582 65.792 580.209 64.0011 578 64.0011Z" fill="white"/>
  <path d="M485 119.001H469C467.895 119.001 467 119.897 467 121.001V168.001C467 169.106 467.895 170.001 469 170.001H485C486.105 170.001 487 169.106 487 168.001V121.001C487 119.897 486.105 119.001 485 119.001Z" fill="#42B0D5"/>
  <rect x="467" y="76.0011" width="63" height="4" fill="#CFCFCF"/>
  <rect x="467" y="84.0011" width="47" height="4" fill="#CFCFCF"/>
  <path d="M513 134.001H497C495.895 134.001 495 134.897 495 136.001V168.001C495 169.106 495.895 170.001 497 170.001H513C514.105 170.001 515 169.106 515 168.001V136.001C515 134.897 514.105 134.001 513 134.001Z" fill="#00243D"/>
  <path d="M541 103.001H525C523.895 103.001 523 103.897 523 105.001V168.001C523 169.106 523.895 170.001 525 170.001H541C542.105 170.001 543 169.106 543 168.001V105.001C543 103.897 542.105 103.001 541 103.001Z" fill="#FA6A55"/>
  <path d="M569 115.001H553C551.895 115.001 551 115.897 551 117.001V168.001C551 169.106 551.895 170.001 553 170.001H569C570.105 170.001 571 169.106 571 168.001V117.001C571 115.897 570.105 115.001 569 115.001Z" fill="#CFCFCF"/>
  </g>
  <path d="M355.469 154.304C354.491 154.71 353.709 155.492 353.304 156.47L353.765 156.661C353.595 157.073 353.5 157.525 353.5 158.001V160.051H353V164.151H353.5V168.251H353V172.351H353.5V176.451H353V180.551H353.5V184.651H353V188.751H353.5V192.851H353V196.951H353.5V199.001C353.5 199.476 353.595 199.928 353.765 200.34L353.304 200.532C353.709 201.51 354.491 202.292 355.469 202.697L355.66 202.235C356.072 202.406 356.525 202.501 357 202.501H359.05V203.001H363.15V202.501H367.25V203.001H371.35V202.501H375.45V203.001H379.55V202.501H383.65V203.001H387.75V202.501H391.85V203.001H395.95V202.501H398C398.475 202.501 398.928 202.406 399.34 202.235L399.531 202.697C400.509 202.292 401.291 201.51 401.696 200.532L401.235 200.34C401.405 199.928 401.5 199.476 401.5 199.001V196.951H402V192.851H401.5V188.751H402V184.651H401.5V180.551H402V176.451H401.5V172.351H402V168.251H401.5V164.151H402V160.051H401.5V158.001C401.5 157.525 401.405 157.073 401.235 156.661L401.696 156.47C401.291 155.492 400.509 154.71 399.531 154.304L399.34 154.766C398.928 154.595 398.475 154.501 398 154.501H395.95V154.001H391.85V154.501H387.75V154.001H383.65V154.501H379.55V154.001H375.45V154.501H371.35V154.001H367.25V154.501H363.15V154.001H359.05V154.501H357C356.525 154.501 356.072 154.595 355.66 154.766L355.469 154.304Z" stroke="white" stroke-dasharray="4 4"/>
  <path d="M355.469 154.304C354.491 154.71 353.709 155.492 353.304 156.47L353.765 156.661C353.595 157.073 353.5 157.525 353.5 158.001V160.051H353V164.151H353.5V168.251H353V172.351H353.5V176.451H353V180.551H353.5V184.651H353V188.751H353.5V192.851H353V196.951H353.5V199.001C353.5 199.476 353.595 199.928 353.765 200.34L353.304 200.532C353.709 201.51 354.491 202.292 355.469 202.697L355.66 202.235C356.072 202.406 356.525 202.501 357 202.501H359.05V203.001H363.15V202.501H367.25V203.001H371.35V202.501H375.45V203.001H379.55V202.501H383.65V203.001H387.75V202.501H391.85V203.001H395.95V202.501H398C398.475 202.501 398.928 202.406 399.34 202.235L399.531 202.697C400.509 202.292 401.291 201.51 401.696 200.532L401.235 200.34C401.405 199.928 401.5 199.476 401.5 199.001V196.951H402V192.851H401.5V188.751H402V184.651H401.5V180.551H402V176.451H401.5V172.351H402V168.251H401.5V164.151H402V160.051H401.5V158.001C401.5 157.525 401.405 157.073 401.235 156.661L401.696 156.47C401.291 155.492 400.509 154.71 399.531 154.304L399.34 154.766C398.928 154.595 398.475 154.501 398 154.501H395.95V154.001H391.85V154.501H387.75V154.001H383.65V154.501H379.55V154.001H375.45V154.501H371.35V154.001H367.25V154.501H363.15V154.001H359.05V154.501H357C356.525 154.501 356.072 154.595 355.66 154.766L355.469 154.304Z" stroke="#0073AB" stroke-opacity="0.4" stroke-dasharray="4 4"/>
  <path d="M283 154.001H242C239.791 154.001 238 155.792 238 158.001V199.001C238 201.21 239.791 203.001 242 203.001H283C285.209 203.001 287 201.21 287 199.001V158.001C287 155.792 285.209 154.001 283 154.001Z" fill="white"/>
  <path d="M254.63 173.221C252.914 173.221 251.198 173.429 250.21 173.611V175.587C251.042 175.431 252.706 175.223 254.37 175.223C257.074 175.223 257.36 175.951 257.36 177.303V179.331L253.174 179.643C250.522 179.825 249.326 180.787 249.326 183.517C249.326 186.091 250.288 187.261 253.018 187.261C254.578 187.261 256.034 186.663 257.438 186.091L257.802 187.001H259.57V177.225C259.57 174.313 258.582 173.221 254.63 173.221ZM251.588 183.413C251.588 181.983 251.874 181.385 253.538 181.229L257.36 180.969V184.895C256.06 185.181 254.812 185.415 253.668 185.415C252.056 185.415 251.588 184.999 251.588 183.413ZM272.609 169.425C272.505 169.009 272.271 168.801 271.855 168.801H267.331C266.915 168.801 266.655 169.009 266.577 169.425L262.339 187.001H264.679L266.031 181.255H273.155L274.507 187.001H276.899L272.609 169.425ZM270.711 170.855L272.687 179.201H266.499L268.423 170.855H270.711Z" fill="#00243D"/>
  <path d="M341 154.001H299C296.791 154.001 295 155.792 295 158.001V199.001C295 201.21 296.791 203.001 299 203.001H341C343.209 203.001 345 201.21 345 199.001V158.001C345 155.792 343.209 154.001 341 154.001Z" fill="white"/>
  <rect x="306" y="170.001" width="28" height="16" rx="8" fill="#42B0D5"/>
  <circle cx="326" cy="178.001" r="6" fill="white"/>
  <path d="M718.37 11.9057L677.801 1.03528C675.667 0.46351 673.474 1.72984 672.902 3.8637L662.032 44.4326C661.46 46.5665 662.726 48.7598 664.86 49.3316L705.429 60.202C707.563 60.7738 709.756 59.5074 710.328 57.3736L721.199 16.8047C721.77 14.6708 720.504 12.4775 718.37 11.9057Z" fill="white"/>
  <rect width="24" height="24" rx="3" transform="matrix(0.965926 0.25882 -0.258818 0.965926 683.13 15.9218)" fill="#42B0D5"/>
  <path fill-rule="evenodd" clip-rule="evenodd" d="M698.437 28.0578L690.998 35.1343C690.746 35.3744 690.387 35.4659 690.05 35.3757L688.625 34.994C688.327 34.9141 688.083 34.7011 687.963 34.4168L685.842 29.3895L686.763 29.0008L688.884 34.028L690.309 34.4098L697.748 27.3333L698.437 28.0578Z" fill="white"/>
  <path d="M623.887 64.517C622.847 64.7156 621.923 65.3227 621.327 66.1978L621.741 66.4791C621.49 66.8478 621.305 67.2714 621.209 67.737L620.853 69.4546L620.363 69.3532L619.651 72.7885L620.141 72.89L619.429 76.3253L618.939 76.2238L618.227 79.6591L618.717 79.7606L618.005 83.1959L617.515 83.0944L616.803 86.5297L617.293 86.6312L616.937 88.3489C616.84 88.8145 616.841 89.2764 616.925 89.7145L616.434 89.8083C616.632 90.848 617.239 91.7725 618.114 92.368L618.396 91.9546C618.764 92.2055 619.188 92.3899 619.653 92.4864L621.371 92.8425L621.27 93.332L624.706 94.0442L624.807 93.5546L628.243 94.2667L628.141 94.7563L631.577 95.4685L631.679 94.9789L635.114 95.691L635.013 96.1806L638.449 96.8927L638.55 96.4031L640.268 96.7592C640.734 96.8557 641.196 96.8549 641.634 96.7712L641.727 97.2624C642.767 97.0638 643.692 96.4567 644.287 95.5816L643.874 95.3003C644.125 94.9316 644.309 94.508 644.406 94.0424L644.762 92.3247L645.251 92.4262L645.963 88.9909L645.474 88.8894L646.186 85.4541L646.675 85.5556L647.387 82.1203L646.898 82.0188L647.61 78.5835L648.099 78.685L648.811 75.2496L648.322 75.1482L648.678 73.4305C648.774 72.9649 648.774 72.503 648.69 72.0649L649.181 71.9711C648.982 70.9314 648.375 70.0068 647.5 69.4114L647.219 69.8248C646.85 69.5739 646.427 69.3895 645.961 69.293L644.243 68.9369L644.345 68.4473L640.909 67.7352L640.807 68.2248L637.372 67.5127L637.473 67.0231L634.037 66.3109L633.936 66.8005L630.5 66.0884L630.602 65.5988L627.166 64.8867L627.064 65.3762L625.346 65.0202C624.881 64.9237 624.419 64.9245 623.981 65.0082L623.887 64.517Z" stroke="white" stroke-dasharray="3.63 3.63"/>
  <path d="M623.887 64.517C622.847 64.7156 621.923 65.3227 621.327 66.1978L621.741 66.4791C621.49 66.8478 621.305 67.2714 621.209 67.737L620.853 69.4546L620.363 69.3532L619.651 72.7885L620.141 72.89L619.429 76.3253L618.939 76.2238L618.227 79.6591L618.717 79.7606L618.005 83.1959L617.515 83.0944L616.803 86.5297L617.293 86.6312L616.937 88.3489C616.84 88.8145 616.841 89.2764 616.925 89.7145L616.434 89.8083C616.632 90.848 617.239 91.7725 618.114 92.368L618.396 91.9546C618.764 92.2055 619.188 92.3899 619.653 92.4864L621.371 92.8425L621.27 93.332L624.706 94.0442L624.807 93.5546L628.243 94.2667L628.141 94.7563L631.577 95.4685L631.679 94.9789L635.114 95.691L635.013 96.1806L638.449 96.8927L638.55 96.4031L640.268 96.7592C640.734 96.8557 641.196 96.8549 641.634 96.7712L641.727 97.2624C642.767 97.0638 643.692 96.4567 644.287 95.5816L643.874 95.3003C644.125 94.9316 644.309 94.508 644.406 94.0424L644.762 92.3247L645.251 92.4262L645.963 88.9909L645.474 88.8894L646.186 85.4541L646.675 85.5556L647.387 82.1203L646.898 82.0188L647.61 78.5835L648.099 78.685L648.811 75.2496L648.322 75.1482L648.678 73.4305C648.774 72.9649 648.774 72.503 648.69 72.0649L649.181 71.9711C648.982 70.9314 648.375 70.0068 647.5 69.4114L647.219 69.8248C646.85 69.5739 646.427 69.3895 645.961 69.293L644.243 68.9369L644.345 68.4473L640.909 67.7352L640.807 68.2248L637.372 67.5127L637.473 67.0231L634.037 66.3109L633.936 66.8005L630.5 66.0884L630.602 65.5988L627.166 64.8867L627.064 65.3762L625.346 65.0202C624.881 64.9237 624.419 64.9245 623.981 65.0082L623.887 64.517Z" stroke="#0073AB" stroke-opacity="0.4" stroke-dasharray="3.63 3.63"/>
  <ellipse cx="660.697" cy="334.438" rx="53.2983" ry="4.4375" fill="#B5E0F5"/>
  <path d="M676.934 325.245L677.261 332.9C677.27 333.14 677.231 333.379 677.144 333.602C677.058 333.826 676.926 334.03 676.758 334.2C676.589 334.371 676.387 334.505 676.165 334.595C675.942 334.684 675.703 334.727 675.464 334.72L649.79 333.67C649.407 333.652 649.041 333.51 648.747 333.264C648.454 333.018 648.249 332.683 648.164 332.309C648.079 331.935 648.119 331.544 648.278 331.196C648.437 330.847 648.706 330.56 649.043 330.379L667.715 320.74L676.934 325.245Z" fill="#00243F"/>
  <path d="M673.526 328.209L676.817 325.245L675.207 275.811L664.073 275.438L666.221 321.347L658.715 325.383L670.165 328.956C670.742 329.129 671.355 329.151 671.943 329.021C672.531 328.89 673.076 328.61 673.526 328.209Z" fill="#DCA48C"/>
  <path d="M624.091 156.965C624.497 157.961 625.039 158.896 625.701 159.743C628.056 162.683 631.354 164.72 635.037 165.508L635.504 165.624L637.558 166.161L638.912 166.535C639.267 166.642 639.647 166.631 639.996 166.505C640.345 166.379 640.644 166.144 640.849 165.835C641.129 165.391 641.386 164.971 641.572 164.621C641.677 164.398 641.731 164.155 641.731 163.909C641.731 163.663 641.677 163.42 641.572 163.197L639.682 158.109V157.899C639.542 157.432 639.402 157.012 639.262 156.592V156.405C639.145 156.055 639.005 155.728 638.888 155.402C638.878 155.356 638.878 155.308 638.888 155.262C638.142 153.231 637.465 151.597 637.371 151.271C637.329 151.059 637.221 150.865 637.062 150.718C636.903 150.572 636.702 150.479 636.487 150.453C636.273 150.427 636.055 150.469 635.866 150.574C635.677 150.679 635.526 150.841 635.434 151.037C635.431 151.092 635.431 151.146 635.434 151.201C635.434 151.667 634.827 154.515 634.827 154.515C634.775 154.695 634.664 154.853 634.512 154.963C634.36 155.073 634.175 155.129 633.987 155.122L631.28 154.842C630.206 154.842 628.946 154.678 627.966 154.678C627.144 154.586 626.318 154.548 625.492 154.561C625.22 154.585 624.958 154.674 624.728 154.82C624.498 154.966 624.306 155.166 624.169 155.401C624.032 155.637 623.953 155.902 623.94 156.174C623.926 156.446 623.978 156.717 624.091 156.965Z" fill="#FFCCB4"/>
  <path d="M641.964 158.304L637.296 166.613C637.096 167.016 637.055 167.48 637.18 167.912C637.305 168.344 637.588 168.713 637.972 168.947L643.294 171.888L648.779 162.015L641.964 158.304Z" fill="#1A3B53"/>
  <path d="M648.763 162.007L643.278 171.88L658.006 178.648C659.224 179.235 660.579 179.481 661.926 179.362C663.274 179.243 664.564 178.762 665.661 177.971L669.815 174.984L673.013 158.646L662.23 168.985L648.763 162.007Z" fill="#00243F"/>
  <path d="M692.289 222.246L688.018 236.507L679.966 278.682L664.095 280.222L663.255 272.753C662.951 270.08 662.81 267.391 662.835 264.701L663.465 203.411L689.302 198.883L690.165 201.054C691.977 205.574 693.042 210.359 693.316 215.221C693.34 215.641 693.34 216.062 693.316 216.481C693.21 218.438 692.865 220.374 692.289 222.246Z" fill="#00243D"/>
  <path d="M679.262 325.677L680.901 333.974C680.949 334.225 680.941 334.485 680.878 334.733C680.815 334.981 680.698 335.213 680.535 335.411C680.373 335.609 680.169 335.769 679.938 335.88C679.706 335.99 679.454 336.049 679.198 336.051H652.824C652.441 336.044 652.071 335.912 651.771 335.674C651.471 335.437 651.256 335.107 651.161 334.737C651.066 334.366 651.094 333.974 651.243 333.621C651.392 333.269 651.652 332.974 651.984 332.783L670.912 322.421L679.262 325.677Z" fill="#1A3B53"/>
  <path d="M676.63 328.442L679.268 325.665L679.968 278.612L664.618 280.172L669.278 323.214L662.88 326.817L673.199 329.399C673.805 329.559 674.441 329.554 675.044 329.386C675.647 329.218 676.195 328.892 676.63 328.442Z" fill="#FFCCB4"/>
  <path d="M690.774 148.726L689.304 198.883L663.467 203.411L657.959 166.558L656.021 163.804C654.843 162.093 654.199 160.071 654.17 157.994C654.14 155.917 654.728 153.877 655.858 152.134L660.075 145.516L681.731 130.875L688.37 140.534C690.015 142.943 690.856 145.811 690.774 148.726Z" fill="#1A3B53"/>
  <path d="M676.512 134.406L671.613 143.265C670.839 144.636 669.626 145.707 668.169 146.304C666.713 146.901 665.097 146.99 663.584 146.556L660.067 145.524L676.512 134.406Z" fill="white"/>
  <rect x="597.199" y="174.653" width="44.4236" height="44.4236" rx="4" transform="rotate(-32.4483 597.199 174.653)" fill="white"/>
  <mask id="path-53-inside-1" fill="white">
  <path d="M641.997 182C641.997 189.732 635.729 196 627.997 196C620.265 196 613.997 189.732 613.997 182C613.997 174.269 620.265 168 627.997 168C635.729 168 641.997 174.269 641.997 182ZM618.197 182C618.197 187.413 622.584 191.8 627.997 191.8C633.409 191.8 637.797 187.413 637.797 182C637.797 176.588 633.409 172.2 627.997 172.2C622.584 172.2 618.197 176.588 618.197 182Z"/>
  </mask>
  <path d="M641.997 182C641.997 189.732 635.729 196 627.997 196C620.265 196 613.997 189.732 613.997 182C613.997 174.269 620.265 168 627.997 168C635.729 168 641.997 174.269 641.997 182ZM618.197 182C618.197 187.413 622.584 191.8 627.997 191.8C633.409 191.8 637.797 187.413 637.797 182C637.797 176.588 633.409 172.2 627.997 172.2C622.584 172.2 618.197 176.588 618.197 182Z" stroke="#EDEDED" stroke-width="8" mask="url(#path-53-inside-1)"/>
  <mask id="path-54-inside-2" fill="white">
  <path d="M614.248 184.642C613.848 182.562 613.926 180.419 614.475 178.373C615.024 176.327 616.029 174.433 617.417 172.832C618.804 171.231 620.536 169.966 622.483 169.132C624.43 168.298 626.541 167.916 628.656 168.016L628.458 172.211C626.977 172.142 625.5 172.409 624.137 172.993C622.774 173.576 621.562 174.462 620.591 175.582C619.62 176.703 618.915 178.029 618.531 179.461C618.147 180.893 618.093 182.394 618.373 183.85L614.248 184.642Z"/>
  </mask>
  <path d="M614.248 184.642C613.848 182.562 613.926 180.419 614.475 178.373C615.024 176.327 616.029 174.433 617.417 172.832C618.804 171.231 620.536 169.966 622.483 169.132C624.43 168.298 626.541 167.916 628.656 168.016L628.458 172.211C626.977 172.142 625.5 172.409 624.137 172.993C622.774 173.576 621.562 174.462 620.591 175.582C619.62 176.703 618.915 178.029 618.531 179.461C618.147 180.893 618.093 182.394 618.373 183.85L614.248 184.642Z" stroke="#42B0D5" stroke-width="8" mask="url(#path-54-inside-2)"/>
  <path d="M655.296 199.817L654.059 193.679L638.305 191.228C638.156 191.201 638.003 191.213 637.86 191.262C637.717 191.311 637.589 191.396 637.488 191.508L637.138 191.905C637.051 191.988 636.982 192.087 636.935 192.198C636.888 192.308 636.863 192.427 636.863 192.547C636.863 192.667 636.888 192.785 636.935 192.896C636.982 193.006 637.051 193.106 637.138 193.188L640.452 196.106L638.328 200.307C638.169 200.605 638.117 200.948 638.18 201.279C638.244 201.611 638.42 201.91 638.678 202.128L644.163 206.936C644.439 207.174 644.791 207.305 645.155 207.305C645.52 207.305 645.872 207.174 646.147 206.936L653.149 200.844L655.296 199.817Z" fill="#FFCCB4"/>
  <path d="M661.785 198.875L656.371 187.925L649.813 191.169L654.481 200.762C654.566 200.941 654.685 201.101 654.832 201.233C654.979 201.365 655.151 201.467 655.338 201.532C655.525 201.597 655.723 201.624 655.92 201.612C656.117 201.6 656.31 201.549 656.488 201.462L661.785 198.875Z" fill="#00243F"/>
  <path d="M682.792 188.614L661.763 198.884L656.348 187.937L678.964 176.431L682.792 188.614Z" fill="#1A3B53"/>
  <path d="M665.055 124.01C662.151 125.676 659.94 128.326 658.823 131.482C657.705 134.638 657.755 138.089 658.963 141.211L660.854 144.222L669.046 130.498L668.883 125.223C667.559 124.991 666.271 124.583 665.055 124.01Z" fill="#141414"/>
  <path d="M663.561 107.555L659.547 113.297L661.391 115.047C660.177 123.076 662.954 124.15 667.879 125.294V130.568L660.037 145.552L681.72 130.895L681.217 121.657L679.386 101.674L673.014 94.6719C668.906 95.4888 665.615 98.7797 664.005 105.128L663.561 107.555Z" fill="#FFCCB4"/>
  <path d="M691.428 118.385C690.85 121.076 689.631 123.589 687.876 125.71C686.121 127.83 683.881 129.497 681.345 130.568C678.064 126.994 676.27 122.303 676.327 117.451C678.661 117.988 679.291 117.451 679.804 115.257L680.225 113.484L666.804 98.9197C669.512 92.9447 676.14 93.5282 682.022 94.9286C694.882 98.0095 694.508 105.408 692.034 115.934" fill="#141414"/>
  <path d="M667.808 110.706C667.863 110.598 667.896 110.479 667.905 110.358C667.914 110.236 667.898 110.114 667.859 109.999C667.82 109.883 667.758 109.777 667.677 109.686C667.596 109.595 667.498 109.521 667.387 109.469L666.197 108.886C666.089 108.83 665.97 108.797 665.849 108.788C665.727 108.779 665.605 108.795 665.49 108.834C665.374 108.873 665.268 108.935 665.177 109.016C665.086 109.097 665.012 109.196 664.96 109.306L667.808 110.706Z" fill="#141414"/>
  <path d="M676.42 158.576L675.743 177.341L668.344 181.845L676.42 158.576Z" fill="#00243F"/>
  <ellipse cx="111.476" cy="330" rx="66.4762" ry="5" fill="#B5E0F5"/>
  <path d="M99.9166 117.536C99.6721 121.297 102.047 123.861 103.257 124.577C103.814 124.907 104.875 116.704 104.875 116.704L121.874 117.746C121.874 117.746 122.185 124.096 122.225 125.365C122.225 125.365 126.828 120.711 125.64 116.52C127.804 114.411 126.584 111.968 125.161 110.746C126.388 108.002 122.006 100.375 112.985 101.484C107.842 102.116 107.842 104.799 105.045 104.643C99.3811 104.325 97.9139 115.827 99.9166 117.536Z" fill="#580009"/>
  <path d="M103.178 111.977C103.178 115.009 103.091 121.347 103.091 121.347H102.479C101.602 121.347 100.902 122.033 100.902 123.915C100.902 126.542 101.427 126.776 103.002 126.776V128.965C102.987 130.016 103.207 131.057 103.646 132.012C104.086 132.967 104.734 133.811 105.542 134.482L105.541 137.28L105.568 146.138L113.161 148.042L119.976 144.504L120.777 137.698L120.779 134.745C120.779 134.745 123.202 132.643 123.202 129.578C123.202 128.79 123.143 128.439 123.143 127.476C124.895 127.476 125.07 126.601 125.07 124.149C125.07 121.698 124.194 121.347 123.669 121.347H123.143V115.325C121.58 116.368 119.723 116.883 117.846 116.794C115.969 116.704 114.169 116.016 112.712 114.829C110.925 113.404 108.401 111.977 103.178 111.977Z" fill="#B77156"/>
  <path d="M109.111 123.438H108.363C108.295 123.438 108.227 123.425 108.164 123.399C108.101 123.373 108.044 123.334 107.996 123.286C107.948 123.238 107.909 123.181 107.883 123.118C107.857 123.055 107.844 122.987 107.844 122.919V122.171C107.844 122.033 107.898 121.901 107.996 121.804C108.093 121.706 108.225 121.652 108.363 121.652H109.111C109.249 121.652 109.381 121.706 109.478 121.804C109.576 121.901 109.631 122.033 109.631 122.171V122.919C109.631 123.057 109.576 123.189 109.478 123.286C109.381 123.384 109.249 123.438 109.111 123.438Z" fill="#141414"/>
  <path d="M117.994 123.438H117.246C117.178 123.438 117.111 123.425 117.047 123.399C116.984 123.373 116.927 123.335 116.879 123.286C116.831 123.238 116.792 123.181 116.766 123.118C116.74 123.055 116.727 122.987 116.727 122.919V122.171C116.727 122.033 116.781 121.901 116.879 121.804C116.976 121.706 117.109 121.652 117.246 121.652H117.994C118.132 121.652 118.264 121.706 118.361 121.804C118.459 121.901 118.513 122.033 118.514 122.171V122.919C118.514 123.057 118.459 123.189 118.361 123.286C118.264 123.384 118.132 123.438 117.994 123.438Z" fill="#141414"/>
  <path d="M120.803 134.745L120.775 137.698C120.775 137.698 120.034 144.084 119.837 144.109C109.524 145.38 105.566 134.482 105.566 134.482C111.548 139.736 114.906 140.495 120.803 134.745Z" fill="#9B4F31"/>
  <path d="M103.623 111.621V127.204C103.623 128.901 104.873 129.079 106.659 129.079H119.072C120.679 129.079 122.376 128.186 122.376 126.311L122.465 113.821H123.627V128.888C123.627 133.532 123.627 139.304 113.625 139.304C102.82 139.304 102.641 135.05 102.641 129.156V111.621H103.623ZM116.26 132.071H110.366C110.366 133.678 116.26 133.767 116.26 132.071" fill="#580009"/>
  <path d="M112.104 322.676V328.714C112.104 328.925 112.063 329.134 111.982 329.329C111.901 329.524 111.783 329.701 111.634 329.85C111.485 329.999 111.307 330.118 111.113 330.198C110.918 330.279 110.709 330.321 110.498 330.321H82.5469V328.542C82.5469 327.891 82.7445 327.256 83.1135 326.72C83.4826 326.184 84.0057 325.772 84.6137 325.54L102.198 318.825L112.104 322.676Z" fill="#141414"/>
  <path d="M141.326 328.058V330.321H121.993C121.567 330.321 121.159 330.151 120.857 329.85C120.556 329.549 120.387 329.14 120.387 328.714V321.794L128.079 318.819L137.049 322.002C138.3 322.446 139.383 323.266 140.149 324.351C140.915 325.435 141.326 326.73 141.326 328.058Z" fill="#141414"/>
  <path d="M92.4648 214.262L136.497 216.001L138.195 228.551L136.921 276.466C136.914 276.719 136.9 276.971 136.879 277.223L133.715 314.1C133.682 314.482 133.594 314.858 133.452 315.215L131.538 320.054L120.388 321.832L118.846 318.903C118.633 318.411 118.523 317.88 118.522 317.343L118.45 277.748L114.925 234.046L111.398 272.621L113.851 318.015C113.88 318.554 113.798 319.093 113.611 319.599L112.103 322.739L100.997 319.297L98.6883 314.887C98.473 314.472 98.3328 314.023 98.2744 313.559L93.3831 274.755C93.3183 274.26 93.2823 273.762 93.2755 273.263L92.4648 214.262Z" fill="#1A3B53"/>
  <path d="M134.803 146.525L122.753 141.451L122.755 141.381L120.651 138.808L120.651 138.81L120.649 138.808L120.564 139.358C120.235 141.115 118.779 146.497 113.288 146.497C107.663 146.497 105.987 140.641 105.622 138.966L105.568 138.487L105.536 138.521L105.535 138.52L103.516 140.664L103.516 140.665L94.395 144.669C92.4388 145.529 90.7281 146.864 89.4179 148.552C88.1077 150.24 87.2393 152.228 86.8915 154.337L92.5546 175.797L92.8592 218.898L135.077 216.425L136.201 176.99L139.637 154.833L140.161 154.113C139.055 150.851 137.9 148.026 134.803 146.525Z" fill="white"/>
  <path d="M105.92 157.192L100.132 157.611L101.47 176.113L107.259 175.694C112.994 175.279 115.732 173.46 115.179 165.822C114.627 158.183 111.656 156.777 105.92 157.192ZM105.202 172.601L104.33 160.549L106.418 160.398C109.59 160.168 110.758 161.625 111.083 166.118C111.408 170.611 110.461 172.221 107.29 172.45L105.202 172.601ZM123.957 174.752C129.111 174.379 130.776 172.425 130.524 168.936C130.319 166.108 129.402 164.82 126.516 163.859L123.685 162.922C121.944 162.357 121.415 162.023 121.337 160.939C121.251 159.75 121.845 159.149 123.986 158.994C126.1 158.841 128.183 159.355 128.95 159.671L128.698 156.182C127.769 155.825 126.148 155.464 123.69 155.641C118.748 155.999 117.162 158.319 117.365 161.12C117.558 163.79 118.571 165.311 121.291 166.177L124.418 167.173C126.023 167.694 126.496 167.979 126.58 169.142C126.673 170.437 126.198 171.215 123.793 171.389C121.811 171.533 119.431 170.961 118.086 170.367L118.368 174.253C119.185 174.539 121.499 174.93 123.957 174.752Z" fill="#FA6A55"/>
  <path d="M55.812 98.165C55.812 98.165 53.5244 90.3325 52.6544 88.9992C51.7848 87.6661 46.9378 83.7586 46.9378 83.7586C46.9378 83.7586 44.6802 82.137 43.4727 82.8973C42.621 83.4336 41.6704 86.6162 41.1842 88.4451C40.9627 89.2746 41.0557 90.1567 41.4453 90.9218C42.2438 92.4877 43.7108 95.1938 44.9077 96.4453C46.0875 97.6419 47.3842 98.7171 48.7784 99.655L55.812 98.165Z" fill="#B77156"/>
  <path d="M54.3316 94.8907L48.0309 98.7778L63.8031 135.955C64.294 137.315 65.2014 138.485 66.3962 139.299L86.3348 165.622L95.3475 150.225L73.9424 128.069L54.3316 94.8907Z" fill="#B77156"/>
  <path d="M159.876 92.747C159.876 92.747 162.895 85.516 163.292 83.9742C163.52 83.0889 163.489 80.6623 163.422 78.7568C163.395 78.0009 163.145 77.2696 162.705 76.6543C162.265 76.0391 161.654 75.567 160.947 75.2971C159.745 74.8367 158.397 74.3392 157.724 74.1544C156.348 73.7764 154.787 75.7677 154.787 75.7677C154.787 75.7677 152.738 80.7719 152.569 83.2827C152.482 84.9608 152.436 86.7056 152.685 88.3674L159.876 92.747Z" fill="#B77156"/>
  <path d="M152.681 88.2822L160.141 92.0829L156.334 130.175C155.961 131.572 155.156 132.815 154.035 133.728L136.407 161.651L126.118 147.076L145.561 123.18L152.681 88.2822Z" fill="#B77156"/>
  <path d="M93.3615 144.912C94.2337 144.809 100.851 141.861 100.851 141.861C100.851 141.861 104.023 158.502 103.368 170.781C102.713 183.06 95.0935 206.519 94.23 214.949C93.3669 223.38 93.3669 225.029 93.3669 225.029L86.9524 223.438C86.9524 223.438 86.4016 166.244 84.6027 163.678C82.8041 161.112 66.8392 140.434 66.8392 140.434L75.5073 128.518C75.5073 128.518 85.3848 138.845 89.2544 142.516" fill="#00243F"/>
  <path d="M121.422 139.764C121.422 139.764 128.737 149.07 130.02 171.288C131.302 193.506 134.052 221.364 134.052 221.364L146.331 218.065C146.331 218.065 139.709 160.464 139.996 157.65C140.283 154.836 149.446 142.172 152.012 139.341C153.582 137.572 154.722 135.466 155.346 133.185L141.932 124.597C141.932 124.597 133.135 137.536 132.769 137.023L121.422 139.764Z" fill="#00243F"/>
  <g clip-path="url(#clip0)">
  <rect x="2.48832" y="30.4092" width="194" height="64" rx="6" transform="rotate(-5 2.48832 30.4092)" fill="white"/>
  <rect x="-0.0741768" y="23.105" width="8" height="75.9995" transform="rotate(-5 -0.0741768 23.105)" fill="#42B0D5"/>
  <rect x="17.4844" y="41.1436" width="112" height="4" transform="rotate(-5 17.4844 41.1436)" fill="#CFCFCF"/>
  <rect x="18.3555" y="51.1055" width="112" height="4" transform="rotate(-5 18.3555 51.1055)" fill="#CFCFCF"/>
  <rect x="19.2258" y="61.0674" width="82" height="4" transform="rotate(-5 19.2258 61.0674)" fill="#CFCFCF"/>
  <rect x="146.641" y="25.8291" width="40" height="37" rx="3" transform="rotate(-5 146.641 25.8291)" fill="#42B0D5"/>
  </g>
  <path d="M50.7481 88.6877L49.4533 85.8466C49.1827 85.2531 49.3091 84.5539 49.7704 84.0926C50.1377 83.7253 50.7545 83.8118 51.0067 84.2659L52.4065 86.7867C52.5313 87.0115 52.6267 87.2513 52.6904 87.5004L53.7715 91.7307L51.8262 92.5784L50.7481 90.5315V88.6877Z" fill="#B77156"/>
  <path d="M152.812 81.762L155.065 84.1643L155.604 81.3284V79.5627L156.459 77.0363C156.583 76.6688 156.58 76.2701 156.451 75.9042C156.189 75.1602 155.149 75.1258 154.838 75.8507L153.244 79.5627L152.812 81.762Z" fill="#B77156"/>
  <ellipse cx="594.906" cy="303.604" rx="22.9056" ry="3.47055" fill="#B5E0F5"/>
  <path d="M581.734 260.934C581.734 252.492 584.036 250.573 590.176 250.573C596.316 250.573 598.618 252.492 598.618 260.934C598.618 268.993 595.932 271.295 590.176 271.295C584.42 271.295 581.734 268.993 581.734 260.934Z" fill="#00786B"/>
  <path d="M598.618 246.675C598.618 240.535 600.537 239 604.758 239C609.363 239 610.898 240.535 610.898 246.675C610.898 252.815 609.363 254.349 604.758 254.349C600.537 254.349 598.618 252.815 598.618 246.675Z" fill="#00786B"/>
  <path d="M575.594 251.28C575.594 245.908 577.129 244.373 581.35 244.373C585.187 244.373 586.722 245.908 586.722 251.28C586.722 256.652 585.187 257.803 581.35 257.803C577.513 257.803 575.594 256.652 575.594 251.28Z" fill="#4CC6BC"/>
  <path d="M601.304 270.911C601.304 265.539 602.839 264.388 606.677 264.388C610.13 264.388 611.665 265.539 611.665 270.911C611.665 275.9 610.13 277.051 606.677 277.051C602.839 277.051 601.304 275.9 601.304 270.911Z" fill="#00786B"/>
  <path d="M601.687 249.745L597.466 253.582C596.852 254.18 596.366 254.897 596.036 255.688C595.706 256.48 595.54 257.33 595.547 258.187V289.653" stroke="#00786B" stroke-width="1.5" stroke-miterlimit="10"/>
  <path d="M601.686 304.297H589.023C588.627 304.305 588.237 304.201 587.898 303.997C587.558 303.794 587.283 303.498 587.104 303.145L582.883 284.342H607.826L603.605 303.145C603.426 303.498 603.151 303.794 602.811 303.997C602.472 304.201 602.082 304.305 601.686 304.297Z" fill="#00243D"/>
  <defs>
  <filter id="filter0_dddd" x="145" y="201.001" width="283" height="148" filterUnits="userSpaceOnUse" color-interpolation-filters="sRGB">
  <feFlood flood-opacity="0" result="BackgroundImageFix"/>
  <feColorMatrix in="SourceAlpha" type="matrix" values="0 0 0 0 0 0 0 0 0 0 0 0 0 0 0 0 0 0 127 0"/>
  <feMorphology radius="3" operator="dilate" in="SourceAlpha" result="effect1_dropShadow"/>
  <feOffset dy="24"/>
  <feGaussianBlur stdDeviation="19"/>
  <feColorMatrix type="matrix" values="0 0 0 0 0 0 0 0 0 0.45098 0 0 0 0 0.670588 0 0 0 0.03 0"/>
  <feBlend mode="normal" in2="BackgroundImageFix" result="effect1_dropShadow"/>
  <feColorMatrix in="SourceAlpha" type="matrix" values="0 0 0 0 0 0 0 0 0 0 0 0 0 0 0 0 0 0 127 0"/>
  <feMorphology radius="8" operator="dilate" in="SourceAlpha" result="effect2_dropShadow"/>
  <feOffset dy="9"/>
  <feGaussianBlur stdDeviation="23"/>
  <feColorMatrix type="matrix" values="0 0 0 0 0 0 0 0 0 0.45098 0 0 0 0 0.670588 0 0 0 0.03 0"/>
  <feBlend mode="normal" in2="effect1_dropShadow" result="effect2_dropShadow"/>
  <feColorMatrix in="SourceAlpha" type="matrix" values="0 0 0 0 0 0 0 0 0 0 0 0 0 0 0 0 0 0 127 0"/>
  <feMorphology radius="7" operator="erode" in="SourceAlpha" result="effect3_dropShadow"/>
  <feOffset dy="11"/>
  <feGaussianBlur stdDeviation="7.5"/>
  <feColorMatrix type="matrix" values="0 0 0 0 0 0 0 0 0 0.45098 0 0 0 0 0.670588 0 0 0 0.04 0"/>
  <feBlend mode="normal" in2="effect2_dropShadow" result="effect3_dropShadow"/>
  <feColorMatrix in="SourceAlpha" type="matrix" values="0 0 0 0 0 0 0 0 0 0 0 0 0 0 0 0 0 0 127 0"/>
  <feOffset dx="-4" dy="4"/>
  <feGaussianBlur stdDeviation="4"/>
  <feColorMatrix type="matrix" values="0 0 0 0 0 0 0 0 0 0.45098 0 0 0 0 0.670588 0 0 0 0.04 0"/>
  <feBlend mode="normal" in2="effect3_dropShadow" result="effect4_dropShadow"/>
  <feBlend mode="normal" in="SourceGraphic" in2="effect4_dropShadow" result="shape"/>
  </filter>
  <filter id="filter1_dddd" x="402" y="19.0011" width="234" height="224" filterUnits="userSpaceOnUse" color-interpolation-filters="sRGB">
  <feFlood flood-opacity="0" result="BackgroundImageFix"/>
  <feColorMatrix in="SourceAlpha" type="matrix" values="0 0 0 0 0 0 0 0 0 0 0 0 0 0 0 0 0 0 127 0"/>
  <feMorphology radius="3" operator="dilate" in="SourceAlpha" result="effect1_dropShadow"/>
  <feOffset dy="24"/>
  <feGaussianBlur stdDeviation="19"/>
  <feColorMatrix type="matrix" values="0 0 0 0 0 0 0 0 0 0.45098 0 0 0 0 0.670588 0 0 0 0.03 0"/>
  <feBlend mode="normal" in2="BackgroundImageFix" result="effect1_dropShadow"/>
  <feColorMatrix in="SourceAlpha" type="matrix" values="0 0 0 0 0 0 0 0 0 0 0 0 0 0 0 0 0 0 127 0"/>
  <feMorphology radius="8" operator="dilate" in="SourceAlpha" result="effect2_dropShadow"/>
  <feOffset dy="9"/>
  <feGaussianBlur stdDeviation="23"/>
  <feColorMatrix type="matrix" values="0 0 0 0 0 0 0 0 0 0.45098 0 0 0 0 0.670588 0 0 0 0.03 0"/>
  <feBlend mode="normal" in2="effect1_dropShadow" result="effect2_dropShadow"/>
  <feColorMatrix in="SourceAlpha" type="matrix" values="0 0 0 0 0 0 0 0 0 0 0 0 0 0 0 0 0 0 127 0"/>
  <feMorphology radius="7" operator="erode" in="SourceAlpha" result="effect3_dropShadow"/>
  <feOffset dy="11"/>
  <feGaussianBlur stdDeviation="7.5"/>
  <feColorMatrix type="matrix" values="0 0 0 0 0 0 0 0 0 0.45098 0 0 0 0 0.670588 0 0 0 0.04 0"/>
  <feBlend mode="normal" in2="effect2_dropShadow" result="effect3_dropShadow"/>
  <feColorMatrix in="SourceAlpha" type="matrix" values="0 0 0 0 0 0 0 0 0 0 0 0 0 0 0 0 0 0 127 0"/>
  <feOffset dx="4" dy="4"/>
  <feGaussianBlur stdDeviation="4"/>
  <feColorMatrix type="matrix" values="0 0 0 0 0 0 0 0 0 0.45098 0 0 0 0 0.670588 0 0 0 0.04 0"/>
  <feBlend mode="normal" in2="effect3_dropShadow" result="effect4_dropShadow"/>
  <feBlend mode="normal" in="SourceGraphic" in2="effect4_dropShadow" result="shape"/>
  </filter>
  <clipPath id="clip0">
  <rect x="0.578167" y="30.5767" width="195.919" height="64" rx="6" transform="rotate(-5 0.578167 30.5767)" fill="white"/>
  </clipPath>
  </defs>
  </svg>
