<svg width="28" height="47" viewBox="0 0 28 47" fill="none" xmlns="http://www.w3.org/2000/svg">
<path d="M0.85015 16.1616C0.605743 19.9223 2.98011 22.4859 4.19067 23.2021C4.7479 23.532 5.80857 15.3295 5.80857 15.3295L22.8072 16.3716C22.8072 16.3716 23.1186 22.7213 23.1582 23.9901C23.1582 23.9901 27.7613 19.3362 26.5734 15.1456C28.738 13.0359 27.5173 10.5937 26.0945 9.37106C27.3215 6.62716 22.9396 -0.99981 13.9181 0.109397C8.77586 0.741646 8.77585 3.42443 5.9783 3.26776C0.314712 2.95058 -1.15246 14.4521 0.85015 16.1616" fill="#580009"/>
<path d="M4.11045 10.6016C4.11045 13.6331 4.02341 19.971 4.02341 19.971H3.41099C2.53435 19.971 1.83398 20.6572 1.83398 22.5398C1.83398 25.1667 2.35936 25.4003 3.93482 25.4003V27.5895C3.91913 28.6405 4.13915 29.6816 4.57872 30.6364C5.01828 31.5911 5.66622 32.4352 6.4749 33.1066L6.47353 35.9041L6.50074 44.7629L14.0933 46.6669L20.9081 43.1286L21.7097 36.3224L21.7113 33.3691C21.7113 33.3691 24.1346 31.2677 24.1346 28.2027C24.1346 27.4147 24.0755 27.0639 24.0755 26.101C25.8272 26.101 26.0028 25.2254 26.0028 22.7732C26.0028 20.3222 25.1268 19.971 24.6014 19.971H24.0755V13.9497C22.5121 14.9927 20.6556 15.5073 18.7783 15.4181C16.9011 15.3289 15.1018 14.6405 13.6444 13.4539C11.8577 12.0283 9.33309 10.6016 4.11045 10.6016" fill="#B77156"/>
<path d="M10.0431 22.0631H9.29534C9.22712 22.0631 9.15957 22.0497 9.09654 22.0235C9.03352 21.9974 8.97626 21.9592 8.92802 21.9109C8.87978 21.8627 8.84152 21.8054 8.81541 21.7424C8.78931 21.6794 8.77587 21.6118 8.77588 21.5436V20.7958C8.77592 20.6581 8.83066 20.526 8.92807 20.4286C9.02548 20.3312 9.15758 20.2764 9.29534 20.2764H10.0431C10.1809 20.2764 10.313 20.3311 10.4105 20.4285C10.508 20.5259 10.5628 20.658 10.5629 20.7958V21.5436C10.5628 21.6814 10.5081 21.8136 10.4106 21.911C10.3131 22.0084 10.1809 22.0631 10.0431 22.0631" fill="#141414"/>
<path d="M18.9245 22.0631H18.177C18.1088 22.0631 18.0412 22.0497 17.9781 22.0236C17.9151 21.9975 17.8578 21.9593 17.8095 21.911C17.7612 21.8628 17.7229 21.8055 17.6968 21.7425C17.6707 21.6794 17.6572 21.6119 17.6572 21.5436V20.7958C17.6573 20.658 17.7121 20.5259 17.8096 20.4285C17.907 20.3311 18.0392 20.2764 18.177 20.2764H18.9245C19.0623 20.2764 19.1944 20.3311 19.2919 20.4285C19.3893 20.5259 19.4442 20.658 19.4443 20.7958V21.5436C19.4442 21.6814 19.3894 21.8136 19.2919 21.911C19.1945 22.0084 19.0623 22.0631 18.9245 22.0631" fill="#141414"/>
<path d="M21.7373 33.3698L21.7095 36.3232C21.7095 36.3232 20.968 42.7095 20.7708 42.7338C10.4585 44.005 6.50049 33.1074 6.50049 33.1074C12.4825 38.3614 15.8398 39.1206 21.7373 33.3698" fill="#4E2C24"/>
<path d="M4.55668 10.2461V25.8284C4.55668 27.5253 5.80666 27.7033 7.59294 27.7033H20.0059C21.613 27.7033 23.3098 26.8105 23.3098 24.9354L23.3986 12.4454H24.5601V27.5128C24.5601 32.1571 24.5601 37.9287 14.5584 37.9287C3.75318 37.9287 3.57422 33.6749 3.57422 27.7809V10.2461H4.55668ZM17.1933 30.6955H11.2993C11.2993 32.3028 17.1933 32.392 17.1933 30.6955Z" fill="#580009"/>
<path d="M4.55668 10.2461V25.8284C4.55668 27.5253 5.80666 27.7033 7.59294 27.7033H20.0059C21.613 27.7033 23.3098 26.8105 23.3098 24.9354L23.3986 12.4454H24.5601V27.5128C24.5601 32.1571 24.5601 37.9287 14.5584 37.9287C3.75318 37.9287 3.57422 33.6749 3.57422 27.7809V10.2461H4.55668ZM17.1933 30.6955H11.2993C11.2993 32.3028 17.1933 32.392 17.1933 30.6955Z" fill="#580009"/>
</svg>
