<svg width="66" height="66" viewBox="0 0 66 66" fill="none" xmlns="http://www.w3.org/2000/svg">
<g clip-path="url(#clip0_1_2)">
<mask id="mask0_1_2" style="mask-type:luminance" maskUnits="userSpaceOnUse" x="0" y="0" width="66" height="66">
<path d="M66 0H0V66H66V0Z" fill="white"/>
</mask>
<g mask="url(#mask0_1_2)">
<path d="M66 0H0V66L66 0Z" fill="#B80012"/>
<path d="M12.066 44.5932C12.5681 44.0911 12.8721 43.5184 12.9499 43.2426L12.3701 42.6628C12.2994 42.9456 12.0165 43.5254 11.571 43.9709C10.6801 44.8619 9.81034 45.2649 8.02843 43.483C6.46573 41.9203 6.4728 41.1213 7.56881 40.0253C8.09207 39.502 8.5729 39.2474 8.82039 39.1697L8.26886 38.6181C8.00016 38.703 7.50518 38.9717 6.98899 39.4879C5.51821 40.9586 5.4687 42.1819 7.41325 44.1265C9.5275 46.2407 10.8215 45.8377 12.066 44.5932ZM15.5482 41.111C16.6442 40.015 16.6513 38.9473 15.2724 37.5684C13.8936 36.1895 12.8258 36.1966 11.7298 37.2926C10.6338 38.3886 10.6267 39.4564 12.0056 40.8352C13.3844 42.2141 14.4522 42.207 15.5482 41.111ZM15.0391 40.6019C14.3108 41.3302 13.639 41.2383 12.6208 40.22C11.6096 39.2089 11.5106 38.5301 12.2389 37.8017C12.9673 37.0734 13.6531 37.1653 14.6643 38.1765C15.6825 39.1947 15.7674 39.8736 15.0391 40.6019ZM18.6553 37.8625L15.8268 35.0341C15.8693 34.6664 15.9683 34.1007 16.4491 33.6199C16.8309 33.238 17.2269 33.1108 17.7784 33.6623L20.317 36.2008L20.9109 35.6068L18.3088 33.0047C18.231 32.9269 18.1461 32.8562 18.0754 32.7996C18.1179 32.4036 18.2734 31.7955 18.6977 31.3713C19.0795 30.9894 19.4826 30.8551 20.0341 31.4066L22.5726 33.9451L23.1595 33.3582L20.4937 30.6924C19.7371 29.9358 19.0512 29.9712 18.3371 30.6854C17.7572 31.2652 17.637 31.9087 17.5875 32.2269C17.5734 32.3259 17.5663 32.3754 17.538 32.4036C17.4956 32.4461 17.4249 32.4319 17.3542 32.4178C16.9865 32.3612 16.5269 32.4956 16.0955 32.9269C15.5652 33.4572 15.4591 33.9876 15.4096 34.3623C15.3955 34.4896 15.3814 34.532 15.3601 34.5532C15.3389 34.5745 15.3106 34.5745 15.2541 34.532L14.9005 34.2633L14.3914 34.7725L18.0684 38.4494L18.6553 37.8625ZM24.877 31.6408L22.0485 28.8124C22.091 28.4447 22.19 27.879 22.6708 27.3982C23.0526 27.0163 23.4486 26.889 24.0002 27.4406L26.5387 29.9791L27.1326 29.3851L24.5305 26.783C24.4527 26.7052 24.3679 26.6345 24.2971 26.5779C24.3396 26.1819 24.4951 25.5738 24.9194 25.1496C25.3012 24.7677 25.7043 24.6334 26.2558 25.1849L28.7943 27.7234L29.3812 27.1365L26.7155 24.4707C25.9588 23.7141 25.273 23.7495 24.5588 24.4637C23.9789 25.0435 23.8587 25.687 23.8092 26.0052C23.7951 26.1042 23.788 26.1536 23.7597 26.1819C23.7173 26.2244 23.6466 26.2102 23.5759 26.1961C23.2082 26.1395 22.7486 26.2739 22.3172 26.7052C21.7869 27.2355 21.6809 27.7659 21.6314 28.1406C21.6172 28.2679 21.6031 28.3103 21.5819 28.3315C21.5606 28.3528 21.5324 28.3528 21.4758 28.3103L21.1222 28.0416L20.6131 28.5507L24.2901 32.2277L24.877 31.6408ZM31.9331 22.8876C31.8906 23.2553 31.7422 23.8705 31.2613 24.3514C30.8653 24.7473 30.4623 24.8817 29.9107 24.3301L27.3722 21.7916L26.7853 22.3785L29.4511 25.0443C30.2007 25.7939 30.8936 25.7656 31.6078 25.0514C32.1523 24.5069 32.3008 23.9342 32.3503 23.5594C32.3644 23.4321 32.3785 23.3897 32.3998 23.3685C32.421 23.3473 32.4493 23.3473 32.5058 23.3897L32.8735 23.6442L33.3685 23.1493L29.6915 19.4723L29.1046 20.0592L31.9331 22.8876ZM35.1314 21.3864L32.31 18.565C32.3525 18.1973 32.4939 17.5751 32.9747 17.0942C33.3778 16.6912 33.7738 16.5639 34.3253 17.1154L36.8638 19.654L37.4578 19.06L34.792 16.3942C34.0354 15.6376 33.3424 15.68 32.6282 16.3942C32.0838 16.9387 31.9353 17.5114 31.8929 17.8933C31.8787 18.0205 31.8646 18.063 31.8434 18.0842C31.8221 18.1054 31.7939 18.1054 31.7373 18.063L31.3696 17.7943L30.8675 18.2963L34.5445 21.9733L35.1314 21.3864ZM34.1435 12.2909L33.4576 12.9768L34.1576 13.6769L34.8435 12.991L34.1435 12.2909ZM35.4587 13.7051L34.8718 14.292L38.5488 17.969L39.1357 17.3821L35.4587 13.7051ZM41.5981 15.0611C41.895 14.7641 42.1072 14.4106 42.2203 14.1843L41.7183 13.6823C41.6193 13.8944 41.4001 14.2126 41.1667 14.4459C40.9122 14.7005 40.601 14.8702 40.0212 14.2904L37.9352 12.2044L39.0737 11.066L38.5858 10.5781L37.4473 11.7165L36.4008 10.67L35.9836 11.4266L36.8604 12.3034L36.2028 12.961L36.6907 13.4489L37.3483 12.7913L39.4555 14.8985C40.2758 15.7187 40.9263 15.7329 41.5981 15.0611ZM43.7009 11.5299L39.5856 9.57832L38.9633 10.2005L44.0474 12.4986C44.507 13.4108 44.507 14.0189 44.0686 14.4573C43.9201 14.6058 43.7292 14.7402 43.5383 14.8604L44.0969 15.419C44.302 15.2846 44.4646 15.1644 44.6555 14.9735C45.3131 14.3159 45.398 13.5239 44.7474 12.1097L42.3079 6.85596L41.6857 7.47822L43.7009 11.5299Z" fill="white"/>
<mask id="mask1_1_2" style="mask-type:luminance" maskUnits="userSpaceOnUse" x="0" y="0" width="30" height="30">
<path d="M14.9996 0.85788L0.857422 15L14.9996 29.1421L29.1417 15L14.9996 0.85788Z" fill="white"/>
</mask>
<g mask="url(#mask1_1_2)">
<path fill-rule="evenodd" clip-rule="evenodd" d="M5.10002 13.5856C4.7095 13.1951 4.7095 12.562 5.10002 12.1715L6.51424 10.7572C6.90476 10.3666 7.53792 10.3666 7.92845 10.7572L10.0498 12.8786C10.4403 13.2691 10.4403 13.9022 10.0498 14.2927L8.63556 15.7069C8.24503 16.0974 7.61187 16.0974 7.22134 15.7069L5.10002 13.5856ZM7.22134 11.4644L5.80713 12.8786L7.92845 14.9998L9.34266 13.5856L7.22134 11.4644ZM14.9996 9.343C14.609 8.95247 14.609 8.31931 14.9996 7.92878L16.4138 6.51457C16.8043 6.12405 17.4375 6.12405 17.828 6.51457L19.2422 7.92878C19.6327 8.31931 19.6327 8.95247 19.2422 9.343L17.828 10.7572C17.4375 11.1477 16.8043 11.1477 16.4138 10.7572L14.9996 9.343ZM17.1209 7.22168L15.7067 8.63589L17.1209 10.0501L18.5351 8.63589L17.1209 7.22168ZM8.63556 18.5353C8.24503 18.9259 8.24503 19.559 8.63556 19.9495L11.2872 22.6012L12.5247 22.4244L10.0498 19.9495L10.7569 19.2424L16.4138 24.8993L19.2422 22.0709L13.5853 16.414L14.2924 15.7069L16.7673 18.1818L16.9441 16.9443L14.2924 14.2927C13.9019 13.9022 13.2688 13.9022 12.8782 14.2927L8.63556 18.5353ZM17.6512 19.0658L17.934 17.0858C17.9786 16.7742 17.8738 16.4598 17.6512 16.2372L14.9996 13.5856C14.2185 12.8045 12.9522 12.8045 12.1711 13.5856L7.92845 17.8282C7.1474 18.6093 7.1474 19.8756 7.92845 20.6567L10.5801 23.3083C10.8027 23.5309 11.1171 23.6357 11.4287 23.5911L13.4086 23.3083L15.7067 25.6064C16.0972 25.9969 16.7304 25.9969 17.1209 25.6064L19.9493 22.778C20.3398 22.3874 20.3398 21.7543 19.9493 21.3638L17.6512 19.0658ZM19.2422 12.1715C18.8517 12.562 18.8517 13.1951 19.2422 13.5856L20.8635 15.2069H21.8635C22.1287 15.2069 22.3831 15.3123 22.5706 15.4998L24.1919 17.1211L25.6062 15.7069L23.9848 14.0856C23.7973 13.8981 23.6919 13.6438 23.6919 13.3786V12.3786L22.0706 10.7572C21.6801 10.3666 21.0469 10.3666 20.6564 10.7572L19.2422 12.1715ZM18.5351 14.2927C17.754 13.5116 17.754 12.2454 18.5351 11.4644L19.9493 10.0501C20.7304 9.26906 21.9967 9.26905 22.7777 10.0501L24.399 11.6715C24.5866 11.859 24.6919 12.1134 24.6919 12.3786V13.3786L26.3133 14.9998C26.7038 15.3903 26.7038 16.0235 26.3133 16.414L24.899 17.8282C24.5085 18.2188 23.8754 18.2188 23.4848 17.8282L21.8635 16.2069H20.8635C20.5983 16.2069 20.3439 16.1015 20.1564 15.914L18.5351 14.2927Z" fill="white"/>
</g>
</g>
</g>
<defs>
<clipPath id="clip0_1_2">
<rect width="66" height="66" fill="white"/>
</clipPath>
</defs>
</svg>
