<svg width="336" height="160" viewBox="0 0 336 160" fill="none" xmlns="http://www.w3.org/2000/svg">
<path d="M217.5 99.5L212.688 88.6724C211.965 87.0473 210.354 86 208.576 86H193.424C191.646 86 190.035 87.0473 189.312 88.6724L187.536 92.6698" stroke="#00243D"/>
<path d="M195 77.5V67.5C195 66.6716 195.672 66 196.5 66H205.5C206.328 66 207 66.6716 207 67.5V77.5C207 78.3284 206.328 79 205.5 79H196.5C195.672 79 195 78.3284 195 77.5Z" stroke="#00243D"/>
<path d="M120.5 99.5L125.312 88.6724C126.035 87.0473 127.646 86 129.424 86H144.576C146.354 86 147.965 87.0473 148.688 88.6724L149.278 90" stroke="#00243D"/>
<path d="M131 77.5V67.5C131 66.6716 131.672 66 132.5 66H141.5C142.328 66 143 66.6716 143 67.5V77.5C143 78.3284 142.328 79 141.5 79H132.5C131.672 79 131 78.3284 131 77.5Z" stroke="#00243D"/>
<path d="M143.5 107.5L151.544 83.7712C152.713 80.3212 155.951 78 159.594 78H176.406C180.049 78 183.287 80.3212 184.456 83.7712L192.5 107.5" stroke="#42B0D5"/>
<path d="M160 68.5V56.5C160 55.1193 161.119 54 162.5 54H173.5C174.881 54 176 55.1193 176 56.5V68.5C176 69.8807 174.881 71 173.5 71H162.5C161.119 71 160 69.8807 160 68.5Z" stroke="#42B0D5"/>
</svg>
