<svg width="336" height="189" viewBox="0 0 336 189" fill="none" xmlns="http://www.w3.org/2000/svg">
<path d="M74 79C74 76.2386 76.2386 74 79 74H109C111.761 74 114 76.2386 114 79V109C114 111.761 111.761 114 109 114H79C76.2386 114 74 111.761 74 109V79Z" stroke="#00243D"/>
<path fill-rule="evenodd" clip-rule="evenodd" d="M90.3492 92.4707L97.1746 86.6204L97.8254 87.3796L91 93.23L91 94.77L97.8254 100.62L97.1746 101.38L90.3492 95.5293C90.1276 95.3393 90 95.062 90 94.77V93.23C90 92.938 90.1276 92.6607 90.3492 92.4707Z" fill="#00243D"/>
<path d="M123 79C123 76.2386 125.239 74 128 74H158C160.761 74 163 76.2386 163 79V109C163 111.761 160.761 114 158 114H128C125.239 114 123 111.761 123 109V79Z" stroke="#00243D"/>
<path d="M143 86V102" stroke="#00243D"/>
<path d="M172 79C172 76.2386 174.239 74 177 74H207C209.761 74 212 76.2386 212 79V109C212 111.761 209.761 114 207 114H177C174.239 114 172 111.761 172 109V79Z" stroke="#00243D"/>
<path d="M192 86V102" stroke="#42B0D5"/>
<path d="M221 79C221 76.2386 223.239 74 226 74H256C258.761 74 261 76.2386 261 79V109C261 111.761 258.761 114 256 114H226C223.239 114 221 111.761 221 109V79Z" stroke="#00243D"/>
<path fill-rule="evenodd" clip-rule="evenodd" d="M244 93.23L237.175 87.3796L237.825 86.6204L244.651 92.4707C244.872 92.6607 245 92.938 245 93.23V94.77C245 95.062 244.872 95.3393 244.651 95.5293L237.825 101.38L237.175 100.62L244 94.77L244 93.23Z" fill="#00243D"/>
</svg>
